<svg xmlns="http://www.w3.org/2000/svg" preserveAspectRatio="xMinYMin meet" viewBox="0 0 247.34 27.04">
  <path id="Wayfinder" class="cls-1" d="M3636.89,1037.66h5.18l5.47-17.92,5.47,17.92h5.22l8.1-26.85h-5.76l-4.97,17.13-5.22-17.13h-5.32l-5.18,17.13-4.97-17.13h-6.15Zm30.67-.18h5.76l1.73-4.39h12.09l1.73,4.39h6.12l-10.76-26.85h-5.98Zm9.36-9.25,4.18-10.61,4.17,10.61h-8.35Zm27.68,9.25h5.87v-9.36l10.62-17.31h-6.08l-7.35,12.02-7.34-12.02h-6.33l10.61,17.31v9.36Zm21.1,0h5.91v-10.36h13.13v-5.26h-13.13v-5.72h13.49v-5.33h-19.4v26.67Zm25.67,0h5.87v-26.67h-5.87v26.67Zm13.39,0h5.65v-17.99l13.21,17.99h5.4v-26.67h-5.62v16.81l-12.27-16.81h-6.37v26.67Zm31.43,0h9.43c10.51,0,15.01-2.95,15.01-13.35,0-10.58-4.36-13.32-14.87-13.32h-9.57v26.67Zm5.9-5.15V1016.1h3.75c7.62,0,8.85,2.02,8.85,8.03s-1.48,8.2-8.75,8.2h-3.85Zm24.2,5.15h20.19v-5.11h-14.29v-5.9h13.78v-5.15h-13.78v-5.18h14.14v-5.33h-20.04v26.67Zm43.19,0h6.3l-5.29-9.5c4.42-1.4,5.61-4.79,5.61-8.46,0-5.11-2.01-8.71-10.4-8.71h-12.88v26.67h5.76v-8.85h5.97Zm-10.9-13.93v-7.7h6.87c3.35,0,4.71.79,4.71,3.89,0,3.02-1.44,3.81-4.64,3.81h-6.94Z" transform="translate(-3628.75 -1010.62)"/>
</svg>
