<?xml version="1.0" encoding="UTF-8"?>
<svg width="14px" height="15px" viewBox="0 0 14 15" version="1.1" xmlns="http://www.w3.org/2000/svg" xmlns:xlink="http://www.w3.org/1999/xlink">
    <!-- Generator: Sketch 58 (84663) - https://sketch.com -->
    <title></title>
    <desc>Created with Sketch.</desc>
    <g id="Page-1" stroke="none" stroke-width="1" fill="none" fill-rule="evenodd">
        <g id="006" transform="translate(-986.000000, -702.000000)" fill="#EF5054" fill-rule="nonzero">
            <path d="M986.218749,709.750013 C986.218749,708.528661 986.524087,707.398456 987.134763,706.359396 C987.745438,705.320336 988.570306,704.495468 989.609366,703.884792 C990.648426,703.274117 991.778632,702.968779 992.999983,702.968779 C994.221335,702.968779 995.35154,703.274117 996.3906,703.884792 C997.42966,704.495468 998.254528,705.320336 998.865204,706.359396 C999.475879,707.398456 999.781217,708.528661 999.781217,709.750013 C999.781217,710.971364 999.475879,712.101569 998.865204,713.140629 C998.254528,714.179689 997.42966,715.004557 996.3906,715.615233 C995.35154,716.225908 994.221335,716.531246 992.999983,716.531246 C991.778632,716.531246 990.648426,716.225908 989.609366,715.615233 C988.570306,715.004557 987.745438,714.179689 987.134763,713.140629 C986.524087,712.101569 986.218749,710.971364 986.218749,709.750013 Z M998.46872,709.750013 C998.46872,708.76564 998.222627,707.854184 997.730441,707.015644 C997.238254,706.177104 996.572892,705.511741 995.734352,705.019555 C994.895812,704.527369 993.984356,704.281276 992.999983,704.281276 C992.015611,704.281276 991.104155,704.527369 990.265615,705.019555 C989.427075,705.511741 988.761712,706.177104 988.269526,707.015644 C987.77734,707.854184 987.531246,708.76564 987.531246,709.750013 C987.531246,710.734385 987.77734,711.645841 988.269526,712.484381 C988.761712,713.322921 989.427075,713.988284 990.265615,714.48047 C991.104155,714.972656 992.015611,715.218749 992.999983,715.218749 C993.984356,715.218749 994.895812,714.972656 995.734352,714.48047 C996.572892,713.988284 997.238254,713.322921 997.730441,712.484381 C998.222627,711.645841 998.46872,710.734385 998.46872,709.750013 Z M996.60935,709.503919 C996.682266,709.576836 996.718724,709.658867 996.718724,709.750013 C996.718724,709.841158 996.682266,709.923189 996.60935,709.996106 L993.300764,713.304692 C993.227847,713.359379 993.145816,713.386723 993.054671,713.386723 C992.963525,713.386723 992.890609,713.359379 992.835921,713.304692 L992.289048,712.757818 C992.23436,712.70313 992.207016,712.630214 992.207016,712.539068 C992.207016,712.447923 992.23436,712.365892 992.289048,712.292975 L994.230449,710.460948 L989.828116,710.460948 C989.73697,710.460948 989.659496,710.429047 989.595695,710.365245 C989.531893,710.301444 989.499992,710.22397 989.499992,710.132824 L989.499992,709.367201 C989.499992,709.276055 989.531893,709.198581 989.595695,709.13478 C989.659496,709.070978 989.73697,709.039077 989.828116,709.039077 L994.230449,709.039077 L992.316391,707.20705 C992.243475,707.134133 992.207016,707.052102 992.207016,706.960957 C992.207016,706.869811 992.23436,706.796895 992.289048,706.742207 L992.835921,706.195333 C992.890609,706.140646 992.963525,706.113302 993.054671,706.113302 C993.145816,706.113302 993.227847,706.140646 993.300764,706.195333 L996.60935,709.503919 Z" id=""></path>
        </g>
    </g>
</svg>