<?xml version="1.0" encoding="UTF-8"?>
<svg width="98px" height="12px" viewBox="0 0 98 12" version="1.1" xmlns="http://www.w3.org/2000/svg" xmlns:xlink="http://www.w3.org/1999/xlink">
    <!-- Generator: Sketch 58 (84663) - https://sketch.com -->
    <title>LogoLockup</title>
    <desc>Created with Sketch.</desc>
    <defs>
        <polygon id="path-1" points="0 78.4920741 97.7343431 78.4920741 97.7343431 0 0 0"></polygon>
    </defs>
    <g id="Page-1" stroke="none" stroke-width="1" fill="none" fill-rule="evenodd">
        <g id="006" transform="translate(-64.000000, -703.000000)">
            <g id="Wordmark" transform="translate(64.000000, 702.000000)">
                <g id="LogoLockup" transform="translate(0.000000, -65.962963)">
                    <polygon id="Fill-5" fill="#EF5054" points="4.80392157e-05 67.5825704 2.4952049 67.5825704 4.50852843 74.5438296 6.60976373 67.5825704 8.76912647 67.5825704 10.8852539 74.5438296 12.8985775 67.5825704 15.2328029 67.5825704 11.9498029 78.4919778 9.83415588 78.4919778 7.61618529 71.2095704 5.3986951 78.4919778 3.2974598 78.4919778"></polygon>
                    <path d="M22.4119275,74.6608778 L20.7195059,70.3463222 L19.0266039,74.6608778 L22.4119275,74.6608778 Z M19.5665647,67.5094333 L21.988702,67.5094333 L26.3516235,78.4193222 L23.8708784,78.4193222 L23.1704667,76.6349519 L18.2680647,76.6349519 L17.5676529,78.4193222 L15.2329471,78.4193222 L19.5665647,67.5094333 Z" id="Fill-7" fill="#EF5054"></path>
                    <polygon id="Fill-9" fill="#EF5054" points="29.6187706 74.6166778 25.3144569 67.5827148 27.8826333 67.5827148 30.8591431 72.466863 33.8356529 67.5827148 36.3015059 67.5827148 31.9971922 74.6166778 31.9971922 78.418937 29.6187706 78.418937"></polygon>
                    <polygon id="Fill-11" fill="#EF5054" points="37.6664922 67.5825704 45.5309922 67.5825704 45.5309922 69.7468296 40.0593255 69.7468296 40.0593255 72.0719037 45.3849529 72.0719037 45.3849529 74.2077556 40.0593255 74.2077556 40.0593255 78.4192741 37.6664922 78.4192741"></polygon>
                    <mask id="mask-2" fill="white">
                        <use xlink:href="#path-1"></use>
                    </mask>
                    <g id="Clip-14"></g>
                    <polygon id="Fill-13" fill="#EF5054" mask="url(#mask-2)" points="48.0156765 78.4193704 50.3936176 78.4193704 50.3936176 67.5826667 48.0156765 67.5826667"></polygon>
                    <polygon id="Fill-15" fill="#EF5054" mask="url(#mask-2)" points="52.8849314 67.5825704 55.468 67.5825704 60.4429412 74.4123852 60.4429412 67.5825704 62.7195196 67.5825704 62.7195196 78.4192741 60.5308529 78.4192741 55.176402 71.1070148 55.176402 78.4192741 52.8849314 78.4192741"></polygon>
                    <path d="M69.2032765,76.3277667 C72.1509627,76.3277667 72.7495314,75.4355815 72.7495314,72.9935074 C72.7495314,70.5514333 72.2532863,69.7324333 69.1595608,69.7324333 L67.6424824,69.7324333 L67.6424824,76.3277667 L69.2032765,76.3277667 Z M65.249649,67.5826185 L69.1307373,67.5826185 C73.3908549,67.5826185 75.1567765,68.6943593 75.1567765,72.9935074 C75.1567765,77.2204333 73.3332078,78.4193222 69.0726098,78.4193222 L65.249649,78.4193222 L65.249649,67.5826185 Z" id="Fill-16" fill="#EF5054" mask="url(#mask-2)"></path>
                    <polygon id="Fill-17" fill="#EF5054" mask="url(#mask-2)" points="77.4130824 67.5825704 85.5403569 67.5825704 85.5403569 69.7468296 79.8059157 69.7468296 79.8059157 71.8528296 85.3943176 71.8528296 85.3943176 73.9439037 79.8059157 73.9439037 79.8059157 76.342163 85.5984843 76.342163 85.5984843 78.4192741 77.4130824 78.4192741"></polygon>
                    <path d="M93.4447775,72.7594111 C94.7432775,72.7594111 95.3269539,72.4377815 95.3269539,71.2095222 C95.3269539,69.9518926 94.7725814,69.630263 93.4154735,69.630263 L90.6287186,69.630263 L90.6287186,72.7594111 L93.4447775,72.7594111 Z M93.0508559,74.8215963 L90.6287186,74.8215963 L90.6287186,78.4192259 L88.2940127,78.4192259 L88.2940127,67.5825222 L93.5173167,67.5825222 C96.9175324,67.5825222 97.7346794,69.0447815 97.7346794,71.1218926 C97.7346794,72.6130407 97.2533265,73.9881519 95.458101,74.5582259 L97.603052,78.4192259 L95.0497676,78.4192259 L93.0508559,74.8215963 Z" id="Fill-18" fill="#EF5054" mask="url(#mask-2)"></path>
                </g>
            </g>
        </g>
    </g>
</svg>