<svg xmlns="http://www.w3.org/2000/svg" width="40" height="31" viewBox="0 0 40 31">
  <metadata><?xpacket begin="﻿" id="W5M0MpCehiHzreSzNTczkc9d"?>
<x:xmpmeta xmlns:x="adobe:ns:meta/" x:xmptk="Adobe XMP Core 5.6-c138 79.159824, 2016/09/14-01:09:01        ">
   <rdf:RDF xmlns:rdf="http://www.w3.org/1999/02/22-rdf-syntax-ns#">
      <rdf:Description rdf:about=""/>
   </rdf:RDF>
</x:xmpmeta>
                                                                                                    
                                                                                                    
                                                                                                    
                                                                                                    
                                                                                                    
                                                                                                    
                                                                                                    
                                                                                                    
                                                                                                    
                                                                                                    
                                                                                                    
                                                                                                    
                                                                                                    
                                                                                                    
                                                                                                    
                                                                                                    
                                                                                                    
                                                                                                    
                                                                                                    
                                                                                                    
                           
<?xpacket end="w"?></metadata>
<defs>
    <style>
      .cls-1 {
        fill: #444;
        fill-rule: evenodd;
      }
    </style>
  </defs>
  <path class="cls-1" d="M1008.7,9445.54a1.368,1.368,0,0,0-1.38-.51l-37.243,8.45a1.406,1.406,0,0,0-1.064,1.18,1.428,1.428,0,0,0,.7,1.43l11.7,6.65v9.03a1.394,1.394,0,0,0,1.38,1.41,1.421,1.421,0,0,0,.975-0.41l3.509-3.59,5.52,6.34a1.379,1.379,0,0,0,1.029.48,1.067,1.067,0,0,0,.181-0.02,1.388,1.388,0,0,0,1.053-.76l13.793-28.18A1.427,1.427,0,0,0,1008.7,9445.54Zm-8.874,4.08-17.068,10.65-8.535-4.84Zm-15.657,18.74v-2.75l1.268,1.46Zm9.334,3.73-8.586-9.87,19.313-12.06Z" transform="translate(-969 -9445)"/>
</svg>
