<svg id="Code" xmlns="http://www.w3.org/2000/svg" width="185.032" height="122.969" viewBox="0 0 185.032 122.969">
  <metadata><?xpacket begin="﻿" id="W5M0MpCehiHzreSzNTczkc9d"?>
<x:xmpmeta xmlns:x="adobe:ns:meta/" x:xmptk="Adobe XMP Core 5.6-c138 79.159824, 2016/09/14-01:09:01        ">
   <rdf:RDF xmlns:rdf="http://www.w3.org/1999/02/22-rdf-syntax-ns#">
      <rdf:Description rdf:about=""/>
   </rdf:RDF>
</x:xmpmeta>
                                                                                                    
                                                                                                    
                                                                                                    
                                                                                                    
                                                                                                    
                                                                                                    
                                                                                                    
                                                                                                    
                                                                                                    
                                                                                                    
                                                                                                    
                                                                                                    
                                                                                                    
                                                                                                    
                                                                                                    
                                                                                                    
                                                                                                    
                                                                                                    
                                                                                                    
                                                                                                    
                           
<?xpacket end="w"?></metadata>
<defs>
    <style>
      .cls-1 {
        fill: #fff;
      }

      .cls-1, .cls-2 {
        fill-rule: evenodd;
      }

      .cls-2 {
        fill: #ffea00;
      }
    </style>
  </defs>
  <path class="cls-1" d="M43.9,23.763a6.022,6.022,0,0,0-8.7,0L2.681,57.183a6.453,6.453,0,0,0,0,8.942,6.037,6.037,0,0,0,8.7,0L43.9,32.711A6.453,6.453,0,0,0,43.9,23.763Zm0,66.358L11.385,56.707a6.027,6.027,0,0,0-8.7,0,6.453,6.453,0,0,0,0,8.942L35.2,99.063a6.034,6.034,0,0,0,8.7,0A6.445,6.445,0,0,0,43.9,90.121Zm140.24-32.938-32.514-33.42a6.026,6.026,0,0,0-8.7,0,6.453,6.453,0,0,0,0,8.949l32.517,33.414a6.034,6.034,0,0,0,8.7,0A6.445,6.445,0,0,0,184.139,57.183Zm0-.476a6.023,6.023,0,0,0-8.7,0L142.921,90.121a6.445,6.445,0,0,0,0,8.942,6.038,6.038,0,0,0,8.7,0l32.514-33.414A6.445,6.445,0,0,0,184.139,56.707Z" transform="translate(-0.906)"/>
  <path class="cls-2" d="M125.51,0.6a4.25,4.25,0,0,0-5.882,1.613l-59.76,114.2a4.438,4.438,0,0,0,1.563,5.979,4.229,4.229,0,0,0,5.839-1.609L127.087,6.623A4.469,4.469,0,0,0,125.51.6Z" transform="translate(-0.906)"/>
</svg>
