<svg id="Guidelines" xmlns="http://www.w3.org/2000/svg" width="139" height="193.188" viewBox="0 0 139 193.188">
  <metadata><?xpacket begin="﻿" id="W5M0MpCehiHzreSzNTczkc9d"?>
<x:xmpmeta xmlns:x="adobe:ns:meta/" x:xmptk="Adobe XMP Core 5.6-c138 79.159824, 2016/09/14-01:09:01        ">
   <rdf:RDF xmlns:rdf="http://www.w3.org/1999/02/22-rdf-syntax-ns#">
      <rdf:Description rdf:about=""/>
   </rdf:RDF>
</x:xmpmeta>
                                                                                                    
                                                                                                    
                                                                                                    
                                                                                                    
                                                                                                    
                                                                                                    
                                                                                                    
                                                                                                    
                                                                                                    
                                                                                                    
                                                                                                    
                                                                                                    
                                                                                                    
                                                                                                    
                                                                                                    
                                                                                                    
                                                                                                    
                                                                                                    
                                                                                                    
                                                                                                    
                           
<?xpacket end="w"?></metadata>
<defs>
    <style>
      .cls-1, .cls-2 {
        fill: #fff;
      }

      .cls-1, .cls-2, .cls-3, .cls-5, .cls-7 {
        stroke: #fff;
      }

      .cls-1, .cls-2, .cls-3, .cls-5 {
        stroke-linecap: round;
        stroke-linejoin: round;
      }

      .cls-1, .cls-3, .cls-5 {
        stroke-width: 10px;
      }

      .cls-1, .cls-2, .cls-3, .cls-4, .cls-5, .cls-6, .cls-7 {
        fill-rule: evenodd;
      }

      .cls-2 {
        stroke-width: 13px;
      }

      .cls-3, .cls-4 {
        fill: #fd6161;
      }

      .cls-5 {
        fill: #fdfdfd;
      }

      .cls-6 {
        fill: #ffea00;
      }

      .cls-7 {
        fill: none;
        stroke-width: 1px;
        opacity: 0.3;
      }
    </style>
  </defs>
  <path class="cls-1" d="M26,5.783L129.348,16.637c4.206,0,4.652,6.653,4.652,8.715V170.125L26,158.783v-153Z" transform="translate(0 -0.781)"/>
  <path class="cls-2" d="M117,181l15-16" transform="translate(0 -0.781)"/>
  <path class="cls-3" d="M22.248,6.571L5,15.092V168l13-30" transform="translate(0 -0.781)"/>
  <path class="cls-4" d="M131,27.6V167.389l-17,17.373L10,167V15L26,7.658l98.035,12.948S131,20.873,131,27.6Z" transform="translate(0 -0.781)"/>
  <path class="cls-5" d="M5,17.13L113,35.96v153L5,170.13v-153Z" transform="translate(0 -0.781)"/>
  <path class="cls-6" d="M74,150.137L93,153v5l-19-2.863v-5Z" transform="translate(0 -0.781)"/>
  <path class="cls-6" d="M20,142l49,7.384v5L20,147v-5Z" transform="translate(0 -0.781)"/>
  <path id="UX" class="cls-4" d="M52.492,57.71L44.9,56.566V111.61c0,3.416-1.613,4.786-5.03,4.272l-1.8-.272c-3.416-.515-5.03-2.371-5.03-5.788V54.778l-7.592-1.144V108.3c0,8.257,4.081,12.953,12.337,14.2l2.373,0.357c8.256,1.244,12.337-2.221,12.337-10.478V57.71Zm33.872,5.1-7.4-1.116L72.033,86.563,65.105,59.61l-7.592-1.144,9.87,34.8L57.323,124.87l7.4,1.115,7.118-24.741,7.118,26.887,7.593,1.144L76.494,94.542Z" transform="translate(0 -0.781)"/>
  <path class="cls-7" d="M21,12l98,16s3,1.8,3,7V173" transform="translate(0 -0.781)"/>
  <path class="cls-7" d="M26,10l98,14s3,1.8,3,7V168" transform="translate(0 -0.781)"/>
</svg>
