<svg id="Sprint_Planning" data-name="Sprint Planning" xmlns="http://www.w3.org/2000/svg" width="228.875" height="167.532" viewBox="0 0 228.875 167.532">
  <metadata><?xpacket begin="﻿" id="W5M0MpCehiHzreSzNTczkc9d"?>
<x:xmpmeta xmlns:x="adobe:ns:meta/" x:xmptk="Adobe XMP Core 5.6-c138 79.159824, 2016/09/14-01:09:01        ">
   <rdf:RDF xmlns:rdf="http://www.w3.org/1999/02/22-rdf-syntax-ns#">
      <rdf:Description rdf:about=""/>
   </rdf:RDF>
</x:xmpmeta>
                                                                                                    
                                                                                                    
                                                                                                    
                                                                                                    
                                                                                                    
                                                                                                    
                                                                                                    
                                                                                                    
                                                                                                    
                                                                                                    
                                                                                                    
                                                                                                    
                                                                                                    
                                                                                                    
                                                                                                    
                                                                                                    
                                                                                                    
                                                                                                    
                                                                                                    
                                                                                                    
                           
<?xpacket end="w"?></metadata>
<defs>
    <style>
      .cls-1 {
        fill: #fff;
      }

      .cls-1, .cls-2 {
        fill-rule: evenodd;
      }

      .cls-2 {
        fill: none;
        stroke: #fff;
        stroke-width: 14px;
      }

      .cls-2, .cls-3 {
        stroke-linecap: round;
        stroke-linejoin: round;
      }

      .cls-3 {
        fill: #fd6161;
        stroke: #ffea00;
        stroke-width: 6px;
      }
    </style>
  </defs>
  <path class="cls-1" d="M210.033,138.511a4.953,4.953,0,0,1,7.007,0l10.51,10.514a4.958,4.958,0,0,1,0,7.01l-10.51,10.514a4.953,4.953,0,0,1-7.007,0V138.511Z" transform="translate(-0.156 -0.656)"/>
  <path class="cls-1" d="M69.285,1.14a4.954,4.954,0,0,1,6.6,2.348l6.379,13.428a4.958,4.958,0,0,1-2.349,6.6L66.492,29.905a4.953,4.953,0,0,1-6.6-2.348Z" transform="translate(-0.156 -0.656)"/>
  <path class="cls-1" d="M64.111,114.71a4.952,4.952,0,0,1,5.113,4.79l0.483,14.858a4.958,4.958,0,0,1-4.792,5.116l-14.859.489a4.954,4.954,0,0,1-5.114-4.79Z" transform="translate(-0.156 -0.656)"/>
  <path class="cls-2" d="M7.171,154.831h101.2" transform="translate(-0.156 -0.656)"/>
  <path class="cls-2" d="M178.974,152.831h30.855" transform="translate(-0.156 -0.656)"/>
  <path class="cls-2" d="M51.889,68.249A28.382,28.382,0,0,1,63.943,14.169" transform="translate(-0.156 -0.656)"/>
  <path class="cls-2" d="M54.357,123.445a61.1,61.1,0,1,1,53.4,31.386" transform="translate(-0.156 -0.656)"/>
  <circle class="cls-3" cx="122.032" cy="152.532" r="12"/>
  <circle class="cls-3" cx="176.032" cy="152.532" r="12"/>
  <circle class="cls-3" cx="52.031" cy="67.531" r="12"/>
</svg>
