<svg id="UX_Audits" data-name="UX Audits" xmlns="http://www.w3.org/2000/svg" width="157.062" height="157" viewBox="0 0 157.062 157">
  <metadata><?xpacket begin="﻿" id="W5M0MpCehiHzreSzNTczkc9d"?>
<x:xmpmeta xmlns:x="adobe:ns:meta/" x:xmptk="Adobe XMP Core 5.6-c138 79.159824, 2016/09/14-01:09:01        ">
   <rdf:RDF xmlns:rdf="http://www.w3.org/1999/02/22-rdf-syntax-ns#">
      <rdf:Description rdf:about=""/>
   </rdf:RDF>
</x:xmpmeta>
                                                                                                    
                                                                                                    
                                                                                                    
                                                                                                    
                                                                                                    
                                                                                                    
                                                                                                    
                                                                                                    
                                                                                                    
                                                                                                    
                                                                                                    
                                                                                                    
                                                                                                    
                                                                                                    
                                                                                                    
                                                                                                    
                                                                                                    
                                                                                                    
                                                                                                    
                                                                                                    
                           
<?xpacket end="w"?></metadata>
<defs>
    <style>
      .cls-1 {
        fill: #fff;
      }

      .cls-1, .cls-2, .cls-3, .cls-4 {
        fill-rule: evenodd;
      }

      .cls-2 {
        fill: #561e45;
        opacity: 0.2;
      }

      .cls-3, .cls-4 {
        fill: none;
        stroke-linecap: round;
      }

      .cls-3 {
        stroke: #fd6161;
        stroke-width: 4px;
      }

      .cls-4 {
        stroke: #ffea00;
        stroke-linejoin: round;
        stroke-width: 5px;
        opacity: 0.8;
      }
    </style>
  </defs>
  <path class="cls-1" d="M154.14,134.433l-27.723-27.719a68.592,68.592,0,1,0-18.7,18.7l27.722,27.717A13.219,13.219,0,0,0,154.14,134.433ZM69.525,123.842A55.311,55.311,0,1,1,124.852,68.53,55.378,55.378,0,0,1,69.525,123.842Z" transform="translate(-0.969)"/>
  <path class="cls-2" d="M107,125s8.8-6.766,12-10c0,0-.213,10.552-3,18Z" transform="translate(-0.969)"/>
  <path class="cls-3" d="M124,114l8.331,8.331m4.416,4.416,4.677,4.677m4.611,4.611L150,140" transform="translate(-0.969)"/>
  <path class="cls-4" d="M88.756,28.674a44.09,44.09,0,0,1,9.727,6.664m-9.718,71.984A43.813,43.813,0,0,1,69,112M25,68A43.989,43.989,0,0,1,69,24" transform="translate(-0.969)"/>
</svg>
