<?xml version="1.0" encoding="UTF-8"?>
<svg width="160px" height="160px" viewBox="0 0 160 160" version="1.1" xmlns="http://www.w3.org/2000/svg" xmlns:xlink="http://www.w3.org/1999/xlink">
    <!-- Generator: Sketch 54.1 (76490) - https://sketchapp.com -->
    <title>Group</title>
    <desc>Created with Sketch.</desc>
    <g id="Grid-detail" stroke="none" stroke-width="1" fill="none" fill-rule="evenodd">
        <g id="Mobile-Copy-2" transform="translate(-80.000000, -80.000000)">
            <g id="Group" transform="translate(80.000000, 80.000000)">
                <circle id="Oval" fill="#4BA8F5" cx="80" cy="80" r="80"></circle>
                <g id="noun_Content-marketing_1542445" transform="translate(42.000000, 35.000000)" fill="#FFFFFF" fill-rule="nonzero" stroke="#4BA8F5" stroke-width="0.5">
                    <path d="M29.0849653,45.3721679 L37.6554975,45.3721679 C38.3114205,45.3721679 38.8429975,44.8405909 38.8429975,44.1846679 L38.8429975,35.6141357 C38.8429975,34.9582128 38.3114205,34.4266357 37.6554975,34.4266357 L29.0849653,34.4266357 C28.4290423,34.4266357 27.8974653,34.9582128 27.8974653,35.6141357 L27.8974653,44.1846679 C27.8974653,44.8405909 28.4290423,45.3721679 29.0849653,45.3721679 Z M30.2724653,36.8016357 L36.4679975,36.8016357 L36.4679975,42.9971679 L30.2724653,42.9971679 L30.2724653,36.8016357 Z" id="Shape"></path>
                    <path d="M45.9710982,46.7307374 L29.0849653,46.7307374 C28.4290423,46.7307374 27.8974653,47.2623144 27.8974653,47.9182374 C27.8974653,48.5741603 28.4290423,49.1057374 29.0849653,49.1057374 L45.9710982,49.1057374 C46.6270211,49.1057374 47.1585982,48.5741603 47.1585982,47.9182374 C47.1585982,47.2623144 46.6270211,46.7307374 45.9710982,46.7307374 Z" id="Path"></path>
                    <path d="M45.9710982,50.4643067 L29.0849653,50.4643067 C28.4290423,50.4643067 27.8974653,50.9958837 27.8974653,51.6518067 C27.8974653,52.3077296 28.4290423,52.8393067 29.0849653,52.8393067 L45.9710982,52.8393067 C46.6270211,52.8393067 47.1585982,52.3077296 47.1585982,51.6518067 C47.1585982,50.9958837 46.6270211,50.4643067 45.9710982,50.4643067 Z" id="Path"></path>
                    <path d="M45.9710982,54.197876 L29.0849653,54.197876 C28.4290423,54.197876 27.8974653,54.729453 27.8974653,55.385376 C27.8974653,56.0412989 28.4290423,56.572876 29.0849653,56.572876 L45.9710982,56.572876 C46.6270211,56.572876 47.1585982,56.0412989 47.1585982,55.385376 C47.1585982,54.729453 46.6270211,54.197876 45.9710982,54.197876 Z" id="Path"></path>
                    <path d="M45.9710982,57.9320068 L29.0849653,57.9320068 C28.4290423,57.9320068 27.8974653,58.4635838 27.8974653,59.1195068 C27.8974653,59.7754298 28.4290423,60.3070068 29.0849653,60.3070068 L45.9710982,60.3070068 C46.6270211,60.3070068 47.1585982,59.7754298 47.1585982,59.1195068 C47.1585982,58.4635838 46.6270211,57.9320068 45.9710982,57.9320068 Z" id="Path"></path>
                    <path d="M8.85383743,71.5318603 C12.1465606,71.5318603 14.8255172,68.85257 14.8255172,65.5596192 C14.8255172,62.2666683 12.1465607,59.587378 8.85383743,59.587378 C5.56100039,59.587378 2.88159626,62.2667821 2.88159626,65.5596192 C2.88159626,68.8524562 5.56100039,71.5318603 8.85383743,71.5318603 Z M8.85383743,61.962378 C10.8371681,61.962378 12.4505172,63.5759139 12.4505172,65.5596192 C12.4505172,67.5433244 10.8371681,69.1568603 8.85383743,69.1568603 C6.87003871,69.1568603 5.25659626,67.5434178 5.25659626,65.5596192 C5.25659626,63.5758205 6.87003871,61.962378 8.85383743,61.962378 Z" id="Shape"></path>
                    <path d="M59.8964399,65.5596192 C59.8964399,68.85257 62.5753964,71.5318603 65.8681196,71.5318603 C69.1609567,71.5318603 71.8403608,68.8524562 71.8403608,65.5596192 C71.8403608,62.2667822 69.1609566,59.587378 65.8681196,59.587378 C62.5753965,59.587378 59.8964399,62.2666683 59.8964399,65.5596192 Z M69.4653608,65.5596192 C69.4653608,67.5434179 67.8519183,69.1568603 65.8681196,69.1568603 C63.884789,69.1568603 62.2714399,67.5433244 62.2714399,65.5596192 C62.2714399,63.5759139 63.884789,61.962378 65.8681196,61.962378 C67.8519184,61.962378 69.4653608,63.5758204 69.4653608,65.5596192 Z" id="Shape"></path>
                    <path d="M8.85383743,12.6319825 C12.1465606,12.6319825 14.8255172,9.9526921 14.8255172,6.65974129 C14.8255172,3.36679046 12.1465606,0.6875 8.85383743,0.6875 C5.56100046,0.6875 2.88159626,3.3669042 2.88159626,6.65974117 C2.88159626,9.95257821 5.56100041,12.6319825 8.85383743,12.6319825 Z M8.85383743,3.0625 C10.8371681,3.0625 12.4505172,4.67603595 12.4505172,6.65974117 C12.4505172,8.6434464 10.8371681,10.2569823 8.85383743,10.2569823 C6.87003871,10.2569823 5.25659626,8.64353986 5.25659626,6.65974117 C5.25659626,4.67594249 6.87003871,3.0625 8.85383743,3.0625 Z" id="Shape"></path>
                    <path d="M65.8681196,12.6319825 C69.1609566,12.6319825 71.8403608,9.95257826 71.8403608,6.65974129 C71.8403608,3.36690429 69.1609566,0.6875 65.8681196,0.6875 C62.5753965,0.6875 59.8964399,3.36679037 59.8964399,6.65974117 C59.8964399,9.95269205 62.5753964,12.6319825 65.8681196,12.6319825 Z M65.8681196,3.0625 C67.8519184,3.0625 69.4653608,4.67594249 69.4653608,6.65974117 C69.4653608,8.64353982 67.8519183,10.2569823 65.8681196,10.2569823 C63.884789,10.2569823 62.2714399,8.6434464 62.2714399,6.65974117 C62.2714399,4.67603595 63.884789,3.0625 65.8681196,3.0625 Z" id="Shape"></path>
                    <path d="M52.5686169,65.0204918 C52.5682147,65.0216746 52.5677887,65.0229164 52.5673359,65.0242367 C52.56731,65.0243215 52.56731,65.0243215 52.5672842,65.0244061 C52.5678051,65.0235899 52.5681348,65.0230734 52.5686169,65.0204918 Z M44.472358,28.11461 C44.472399,28.114613 44.4724402,28.114616 44.4724818,28.114619 C44.4724745,28.1146187 44.4724708,28.1146185 44.47244,28.114617 Z M44.6779195,28.1279322 C44.6787142,28.1281949 44.6795358,28.1284674 44.6803891,28.1287503 C44.6807064,28.128845 44.6807064,28.128845 44.680991,28.1289299 C44.6807733,28.1285851 44.6806404,28.1283745 44.6779195,28.1279322 Z M57.6217085,29.2005736 C57.6265911,29.2167062 57.6278206,29.2259699 57.6350079,29.2801202 L57.6416124,29.4110436 L50.9947153,34.5199507 L50.839564,34.365579 C50.8108834,34.3370502 50.8108834,34.3370502 50.7822906,34.3086189 C50.7811766,34.3075111 50.7811766,34.3075111 50.7800625,34.3064031 C50.7473465,34.2738637 50.7473465,34.2738637 50.7135764,34.240223 C48.7484145,32.2647392 46.9090113,30.4221904 45.434618,28.9534744 C45.337639,28.8567506 45.214974,28.7804956 45.0536254,28.7124391 C45.0603595,28.7150529 45.0603595,28.7150529 45.054065,28.712922 C45.043026,28.7093714 45.043026,28.7093714 45.0234759,28.7021507 C44.8954586,28.6523309 44.7623921,28.6258477 44.622551,28.6225535 C44.5828485,28.6177984 44.5677602,28.6159913 44.5571436,28.613677 L44.4932295,28.6123755 C44.4647734,28.6143624 44.4602973,28.6146749 44.4530976,28.6143144 C44.4543423,28.6143325 44.4559933,28.6143231 44.4588454,28.6143068 L44.4529471,28.6143068 C44.4516462,28.6142403 44.4502513,28.6141523 44.4486075,28.6140487 C44.4485065,28.6140438 44.448456,28.6140414 44.4484055,28.614039 C44.4503172,28.6142019 44.4512648,28.6142765 44.4526727,28.6143068 L24.1615278,28.6143068 C23.5056048,28.6143068 22.9740278,29.1458838 22.9740278,29.8018068 L22.9740278,34.0042339 L17.2339233,29.6003941 L17.2641452,29.4479903 C17.2707903,29.4144804 17.2776451,29.3876346 17.2908638,29.3397656 C17.2916175,29.3370262 17.2916175,29.3370262 17.2923587,29.3343307 C17.3092531,29.2728689 17.3141889,29.2478997 17.3141889,29.2251222 L17.3141889,22.0589602 C17.3141889,17.4527198 13.5667672,13.7052981 8.96052684,13.7052981 C4.35428649,13.7052981 0.606864748,17.4527198 0.606864748,22.0589602 L0.606864748,29.2251222 C0.606864748,29.8810452 1.13844178,30.4126222 1.79436475,30.4126222 L14.3065108,30.4126222 L14.4586877,30.4642736 L22.8762048,36.9223547 L22.9740279,37.1207034 L22.9740279,64.4326418 L22.9202829,64.5875094 L14.7461606,74.9461163 L14.5478623,74.7669958 C13.0171086,73.3842843 11.0478646,72.6051758 8.96052684,72.6051758 C4.35428649,72.6051758 0.606864748,76.3525975 0.606864748,80.9588379 L0.606864748,88.125 C0.606864748,88.780923 1.13844178,89.3125 1.79436475,89.3125 L16.1266889,89.3125 C16.7826119,89.3125 17.3141889,88.780923 17.3141889,88.125 L17.3141889,80.9588379 C17.3141889,79.5689476 16.9710438,78.2264854 16.3249542,77.022651 L16.2474447,76.8782304 L24.6623336,66.2144688 L24.8585889,66.119336 L49.7656629,66.119336 L49.9619186,66.2144693 L58.5667147,77.1189423 L58.4963014,77.2607294 C57.9243391,78.4124562 57.6217085,79.6669567 57.6217085,80.958838 L57.6217085,88.125 C57.6217085,88.780923 58.1532855,89.3125 58.8092085,89.3125 L73.1415327,89.3125 C73.7974557,89.3125 74.3290327,88.780923 74.3290327,88.125 L74.3290327,80.9588379 C74.3290327,76.3525975 70.581611,72.6051758 65.9753706,72.6051758 C63.8035453,72.6051758 61.7605594,73.4465714 60.2117708,74.9272017 L60.0130578,75.1171698 L52.1280597,65.1249573 L52.0743994,64.963581 C52.0782699,64.9310672 52.0801974,64.9148745 52.0820357,64.9042384 L52.0820357,36.8030914 L52.1796855,36.6048758 L60.1687602,30.4644064 L60.3211104,30.412622 L73.1415328,30.412622 C73.7974557,30.412622 74.3290327,29.881045 74.3290327,29.225122 L74.3290327,22.0589599 C74.3290327,17.4527196 70.581611,13.7052978 65.9753706,13.7052978 C61.3691302,13.7052978 57.6217085,17.4527196 57.6217085,22.0589599 L57.6217085,29.2005736 Z M44.5418804,28.609336 C44.5406687,28.6089362 44.5393907,28.6085102 44.5380212,28.6080537 C44.5377473,28.607972 44.5377473,28.607972 44.5375061,28.6079 C44.5384523,28.6084875 44.5390471,28.6088567 44.5418804,28.609336 Z M52.087465,64.8831519 C52.0879525,64.8817006 52.0884792,64.8801584 52.0890533,64.8784771 C52.0890785,64.8783946 52.0890785,64.8783946 52.0891029,64.8783147 C52.0884215,64.8795338 52.0879855,64.8803141 52.087465,64.8831519 Z M2.98186475,22.0589599 C2.98186475,18.7623194 5.66388636,16.0802978 8.96052684,16.0802978 C12.2571673,16.0802978 14.9391889,18.7623194 14.9391889,22.0589599 L14.9391889,28.037622 L2.98186475,28.037622 L2.98186475,22.0589599 Z M46.2106299,33.1054273 C46.6978319,33.5918829 47.1524671,34.0454283 47.5949649,34.4863935 L48.0235322,34.9134766 L45.7839888,34.9134766 L45.7839888,32.6794398 L46.2106299,33.1054273 Z M14.9391889,86.9375 L2.98186475,86.9375 L2.98186475,80.9588379 C2.98186475,77.6621974 5.66388636,74.9801758 8.96052684,74.9801758 C12.2571673,74.9801758 14.9391889,77.6621974 14.9391889,80.9588379 L14.9391889,86.9375 Z M25.3490278,37.051004 L25.3677863,36.9559915 C25.4876859,36.66418 25.4872361,36.3514823 25.3490278,35.9683166 L25.3490278,30.9893067 L43.4089888,30.9893067 L43.4089888,36.1009766 C43.4089888,36.7568996 43.9405658,37.2884766 44.5964888,37.2884766 L49.7070357,37.2884766 L49.7070357,63.744336 L25.3490278,63.744336 L25.3490278,37.051004 Z M65.9753706,74.9801758 C69.2720111,74.9801758 71.9540327,77.6621974 71.9540327,80.9588379 L71.9540327,86.9375 L59.9967085,86.9375 L59.9967085,80.9588379 C59.9967085,77.6621974 62.6787301,74.9801758 65.9753706,74.9801758 Z M71.9540327,28.037622 L59.9967085,28.037622 L59.9967085,22.0589599 C59.9967085,18.7623194 62.6787301,16.0802978 65.9753706,16.0802978 C69.2720111,16.0802978 71.9540327,18.7623194 71.9540327,22.0589599 L71.9540327,28.037622 Z" id="Shape"></path>
                </g>
            </g>
        </g>
    </g>
</svg>