<?xml version="1.0" encoding="UTF-8"?>
<svg width="56px" height="40px" viewBox="0 0 56 40" version="1.1" xmlns="http://www.w3.org/2000/svg" xmlns:xlink="http://www.w3.org/1999/xlink">
    <!-- Generator: Sketch 54.1 (76490) - https://sketchapp.com -->
    <title>Combined shape 482</title>
    <desc>Created with Sketch.</desc>
    <g id="Grid-detail" stroke="none" stroke-width="1" fill="none" fill-rule="evenodd" opacity="0.9">
        <g id="Walgreens---1440" transform="translate(-387.000000, -924.000000)" fill="#FFEA00">
            <g id="Overview" transform="translate(385.000000, 736.000000)">
                <g id="Quote" transform="translate(0.000000, 187.000000)">
                    <path d="M34.77936,38.790738 L34.77936,19.89729 L36.14532,15.848448 L47.07288,2.352546 L49.80468,1.003086 L58.00044,1.003086 L58.00044,3.702384 L49.80468,17.19795 L49.80468,18.54741 L51.1707,19.89729 L55.26852,19.89729 L56.63442,21.24675 L56.63442,38.790738 L55.26852,40.14024 L36.14532,40.14024 L34.77936,38.790738 Z M1.99674,38.790738 L1.99674,19.89729 L3.36264,15.848448 L14.2902,2.352546 L17.02212,1.003086 L25.2177,1.003086 L25.2177,3.702384 L17.02212,17.19795 L17.02212,18.54741 L18.38802,19.89729 L22.4859,19.89729 L23.8518,21.24675 L23.8518,38.790738 L22.4859,40.14024 L3.36264,40.14024 L1.99674,38.790738 Z" id="Combined-shape-482"></path>
                </g>
            </g>
        </g>
    </g>
</svg>