<?xml version="1.0" encoding="UTF-8"?>
<svg width="160px" height="160px" viewBox="0 0 160 160" version="1.1" xmlns="http://www.w3.org/2000/svg" xmlns:xlink="http://www.w3.org/1999/xlink">
    <!-- Generator: Sketch 54.1 (76490) - https://sketchapp.com -->
    <title>Group</title>
    <desc>Created with Sketch.</desc>
    <g id="Grid-detail" stroke="none" stroke-width="1" fill="none" fill-rule="evenodd">
        <g id="Mobile-Copy-2" transform="translate(-80.000000, -80.000000)">
            <g id="Group" transform="translate(80.000000, 80.000000)">
                <circle id="Oval" fill="#4BA8F5" cx="80" cy="80" r="80"></circle>
                <g id="noun_Data_2377058" transform="translate(46.000000, 35.000000)" fill="#FFFFFF" fill-rule="nonzero">
                    <path d="M44.2111446,80.5771084 L32.0083075,80.5771084 C31.4918675,80.5771084 31.0730666,80.1584946 31.0730666,79.6418675 C31.0730666,79.1252404 31.4918675,78.7066265 32.0083075,78.7066265 L43.537584,78.7066265 L64.5412256,15.8135422 C62.3424741,16.9792265 59.310797,17.8501229 56.7057768,18.4468066 C56.2033654,18.5625895 55.7007669,18.2476003 55.5853581,17.7440666 C55.4701364,17.2405328 55.7845645,16.7388696 56.2882852,16.6236479 C62.3155392,15.2428581 65.0638383,13.6450925 65.6261051,12.6103419 C65.8574837,12.1842461 66.3759813,12.0059892 66.8207819,12.1992099 C67.2653955,12.3924307 67.488544,12.8933458 67.3349774,13.3531102 L45.0981271,79.9381518 C44.9709343,80.3197301 44.6134852,80.5771084 44.2111446,80.5771084 Z M23.3253434,79.647853 C22.9340386,79.647853 22.5692946,79.4003883 22.4383608,79.0087093 L22.3790666,78.8312006 C22.2153994,78.3413214 22.4800726,77.8116009 22.9699518,77.6479337 C23.459831,77.4842666 23.9895515,77.7487527 24.1534057,78.2386319 L24.2127,78.4161407 C24.3763672,78.9060199 24.111694,79.4357404 23.6218148,79.5994075 C23.5234274,79.632328 23.4235437,79.647853 23.3253434,79.647853 Z M20.3035798,70.5995837 C19.912088,70.5995837 19.547344,70.3519319 19.4165973,69.960253 L0.512010542,13.3529232 C0.358443976,12.8931587 0.581779518,12.3922437 1.02639307,12.1990229 C1.47063253,12.0058021 1.98931717,12.1842461 2.22106988,12.6101548 C2.81326446,13.6998976 5.75553253,15.3661229 12.2382488,16.7749699 C18.3988681,18.1138608 26.1003904,18.8512048 33.923494,18.8512048 C35.1875657,18.8512048 36.4669753,18.8317518 37.7261837,18.793594 C37.7357232,18.7932199 37.7454497,18.7932199 37.7549892,18.7932199 C38.2583358,18.7932199 38.6737699,19.193503 38.6892949,19.7000295 C38.7050069,20.2162825 38.2991123,20.6476157 37.7826723,20.6631407 C36.5049461,20.7020467 35.2062705,20.7216867 33.923494,20.7216867 C20.7221937,20.7216867 8.70640482,18.6916527 3.30351777,15.8069955 L21.1907494,69.3676843 C21.3544166,69.8575636 21.0897434,70.3874711 20.5998642,70.5511383 C20.5016639,70.5838717 20.4017801,70.5995837 20.3035798,70.5995837 Z M47.0836437,20.0153928 C46.6135916,20.0153928 46.2086322,19.6620587 46.1553235,19.1839636 C46.0978997,18.6707033 46.4675069,18.2081331 46.9807672,18.1507093 L47.166506,18.129947 C47.6782699,18.0708398 48.1425235,18.4417563 48.1999473,18.9552036 C48.2575581,19.4686509 47.8879509,19.9312211 47.3746907,19.9888319 L47.1885777,20.0097813 C47.1534127,20.0133352 47.1184346,20.0153928 47.0836437,20.0153928 Z" id="Shape" stroke="#FFFFFF" stroke-width="0.4"></path>
                    <path d="M1.39936717,13.9920669 C1.06548614,13.9920669 0.745446687,13.8126877 0.577290361,13.5033099 C0.363307229,13.1095735 0.254819277,12.7062976 0.254819277,12.3045181 C0.254819277,11.8368976 0.600297289,11.4411036 1.06380271,11.3778813 C1.52786928,11.3148461 1.96612319,11.6036485 2.09125843,12.0542476 L2.30019127,12.8063684 C2.42757108,13.2646364 2.19076807,13.7453503 1.74989548,13.9237943 C1.63523494,13.9699952 1.51645934,13.9920669 1.39936717,13.9920669 Z" id="Path"></path>
                    <path d="M66.4476208,13.9920669 C66.3305286,13.9920669 66.211753,13.9699952 66.0972795,13.9236072 C65.656594,13.7451633 65.4196039,13.2644494 65.5469837,12.8061813 L65.7559166,12.0540605 C65.8812389,11.6034614 66.3191187,11.314659 66.7833723,11.3776943 C67.2466907,11.4411036 67.5921687,11.8368976 67.5921687,12.3045181 C67.5921687,12.7062976 67.4836807,13.1095735 67.2696976,13.5033099 C67.1015413,13.8126877 66.7815018,13.9920669 66.4476208,13.9920669 Z" id="Path"></path>
                    <path d="M33.923494,20.7216867 C17.4241599,20.7216867 2.77679006,17.5510328 0.577290361,13.5033099 C0.543434639,13.4410229 0.516873795,13.375369 0.497981928,13.3070964 L0.289049096,12.5549756 C0.266416265,12.4732355 0.254819277,12.3890639 0.254819277,12.3045181 C0.254819277,9.37983253 5.85859608,7.42386958 10.5596783,6.29821355 C17.0515599,4.74346898 25.3490178,3.8873494 33.923494,3.8873494 C43.739409,3.8873494 53.5093102,5.0668753 60.0582416,7.04229127 C60.552797,7.19155572 60.8326211,7.71323313 60.6835437,8.20778855 C60.5342792,8.70234398 60.0120407,8.98179398 59.5180464,8.83309066 C53.1346527,6.90742952 43.5665765,5.75783133 33.923494,5.75783133 C25.4913614,5.75783133 17.3487795,6.59562018 10.9953136,8.11725723 C4.72302651,9.61925422 2.30168765,11.3453349 2.13465361,12.2108069 L2.26783193,12.6902114 C2.95729157,13.7803283 5.91209187,15.4003527 12.2378747,16.7749699 C18.3988681,18.1138608 26.1003904,18.8512048 33.923494,18.8512048 C42.7001693,18.8512048 51.385378,17.9094172 57.7526855,16.2675081 C58.2519172,16.138819 58.7627458,16.4392184 58.8919961,16.9395723 C59.0208723,17.4397392 58.7200988,17.9496325 58.2199319,18.0786958 C51.7065398,19.7583886 42.8509301,20.7216867 33.923494,20.7216867 Z M66.324169,14.1925825 C66.1425452,14.1925825 65.9590509,14.1398349 65.7978154,14.0296636 C65.3713455,13.7382425 65.2615482,13.1565226 65.5527822,12.7298657 C65.575041,12.6973193 65.5956163,12.6645858 65.6145081,12.6316654 C65.8726346,12.184059 66.4442539,12.0306795 66.8918602,12.288806 C67.3394666,12.5469325 67.4928461,13.1189259 67.2347196,13.5663452 C67.1926337,13.639294 67.146994,13.7118687 67.0974262,13.7846304 C66.9163636,14.0498648 66.6226979,14.1925825 66.324169,14.1925825 Z" id="Shape" stroke="#FFFFFF" stroke-width="0.4"></path>
                    <path d="M33.923494,50.0615051 C28.2630416,50.0615051 22.7823425,49.4831521 18.4908958,48.4332506 C13.8373238,47.2945012 11.4777108,45.8375828 11.4777108,44.1027108 C11.4777108,42.3678389 13.8373238,40.9107334 18.4910828,39.7721711 C22.7823425,38.7222696 28.2630416,38.1439166 33.923494,38.1439166 C39.5839464,38.1439166 45.0646455,38.7220825 49.3560922,39.7721711 C54.0096642,40.9107334 56.3692771,42.3678389 56.3692771,44.1027108 C56.3692771,45.8375828 54.0096642,47.2945012 49.3560922,48.4332506 C45.0646455,49.4833392 39.5841334,50.0615051 33.923494,50.0615051 Z M33.923494,40.0143985 C28.4624349,40.0143985 23.1773883,40.5643202 19.0417527,41.5631575 C14.4328852,42.6762813 13.3654012,43.8679654 13.3481928,44.103459 C13.3654012,44.3372693 14.4328852,45.5291404 19.0417527,46.6422642 C23.1772012,47.6409145 28.4622479,48.1910232 33.923494,48.1910232 C39.3847401,48.1910232 44.6695997,47.6409145 48.8052352,46.6422642 C53.4141027,45.5291404 54.4815867,44.3372693 54.4987952,44.1019627 C54.4813997,43.8681524 53.4139157,42.6762813 48.8052352,41.5631575 C44.6695997,40.5643202 39.384553,40.0143985 33.923494,40.0143985 Z" id="Shape" stroke="#FFFFFF" stroke-width="0.4"></path>
                    <path d="M33.923494,89.9295181 C33.4070539,89.9295181 32.988253,89.5109042 32.988253,88.9942771 L32.988253,62.8075301 C32.988253,62.290903 33.4070539,61.8722892 33.923494,61.8722892 C34.4401211,61.8722892 34.8587349,62.290903 34.8587349,62.8075301 L34.8587349,88.9942771 C34.8587349,89.5109042 34.4401211,89.9295181 33.923494,89.9295181 Z" id="Path" stroke="#FFFFFF" stroke-width="0.4"></path>
                    <path d="M33.9240551,89.9295181 C33.6496554,89.9295181 33.3778744,89.8092461 33.1930708,89.5784286 C32.8704127,89.1751527 32.9358795,88.586512 33.3391554,88.264041 L38.0153602,84.5230771 C38.417888,84.200419 39.0070898,84.2655117 39.3297479,84.6691617 C39.652406,85.0724377 39.5869392,85.6610783 39.1836633,85.9835494 L34.5074584,89.7245133 C34.3353741,89.8625548 34.1290599,89.9295181 33.9240551,89.9295181 Z" id="Path" stroke="#FFFFFF" stroke-width="0.4"></path>
                    <path d="M33.9229328,89.9295181 C33.7181151,89.9295181 33.5118009,89.8627419 33.3393425,89.7245133 L28.6631377,85.9835494 C28.2598617,85.6608913 28.1943949,85.0724377 28.517053,84.6691617 C28.8395241,84.2658858 29.4285389,84.2002319 29.8316277,84.5230771 L34.5078325,88.264041 C34.9111084,88.5866991 34.9765753,89.1751527 34.6539172,89.5784286 C34.4691136,89.8092461 34.1971455,89.9295181 33.9229328,89.9295181 Z" id="Path" stroke="#FFFFFF" stroke-width="0.4"></path>
                    <path d="M33.923494,58.1318864 C33.6765904,58.1318864 33.4352982,58.0308804 33.2613434,57.8569256 C33.0873886,57.6829708 32.988253,57.4435491 32.988253,57.1966455 C32.988253,56.9499289 33.0873886,56.7084497 33.2632139,56.5344949 C33.4371687,56.3605401 33.6765904,56.2614045 33.923494,56.2614045 C34.1703976,56.2614045 34.4098193,56.3605401 34.5856446,56.5344949 C34.7595994,56.7084497 34.8587349,56.9499289 34.8587349,57.1966455 C34.8587349,57.4435491 34.7595994,57.6831578 34.5856446,57.8569256 C34.4115027,58.0308804 34.1703976,58.1318864 33.923494,58.1318864 Z" id="Path"></path>
                    <path d="M25.5063253,45.0379518 C24.9898852,45.0379518 24.5710843,44.6191509 24.5710843,44.1027108 L24.5710843,25.3978916 C24.5710843,24.8814515 24.9898852,24.4626506 25.5063253,24.4626506 C26.0227654,24.4626506 26.4415663,24.8814515 26.4415663,25.3978916 L26.4415663,44.1027108 C26.4415663,44.6191509 26.0227654,45.0379518 25.5063253,45.0379518 Z" id="Path"></path>
                    <path d="M31.1177711,45.0379518 C30.601331,45.0379518 30.1825301,44.6191509 30.1825301,44.1027108 L30.1825301,25.3978916 C30.1825301,24.8814515 30.601331,24.4626506 31.1177711,24.4626506 C31.6342111,24.4626506 32.053012,24.8814515 32.053012,25.3978916 L32.053012,44.1027108 C32.053012,44.6191509 31.6342111,45.0379518 31.1177711,45.0379518 Z" id="Path"></path>
                    <path d="M36.7292169,45.0379518 C36.2125898,45.0379518 35.7939759,44.6191509 35.7939759,44.1027108 L35.7939759,25.3978916 C35.7939759,24.8814515 36.2125898,24.4626506 36.7292169,24.4626506 C37.245844,24.4626506 37.6644578,24.8814515 37.6644578,25.3978916 L37.6644578,44.1027108 C37.6644578,44.6191509 37.245844,45.0379518 36.7292169,45.0379518 Z" id="Path"></path>
                    <path d="M42.3406627,45.0379518 C41.8240355,45.0379518 41.4054217,44.6191509 41.4054217,44.1027108 L41.4054217,25.3978916 C41.4054217,24.8814515 41.8240355,24.4626506 42.3406627,24.4626506 C42.8572898,24.4626506 43.2759036,24.8814515 43.2759036,25.3978916 L43.2759036,44.1027108 C43.2759036,44.6191509 42.8572898,45.0379518 42.3406627,45.0379518 Z" id="Path"></path>
                    <path d="M25.5063253,13.239759 C24.9898852,13.239759 24.5710843,12.8209581 24.5710843,12.3045181 L24.5710843,1.08162651 C24.5710843,0.565186446 24.9898852,0.146385542 25.5063253,0.146385542 C26.0227654,0.146385542 26.4415663,0.565186446 26.4415663,1.08162651 L26.4415663,12.3045181 C26.4415663,12.8209581 26.0227654,13.239759 25.5063253,13.239759 Z" id="Path"></path>
                    <path d="M31.1177711,13.239759 C30.601331,13.239759 30.1825301,12.8209581 30.1825301,12.3045181 L30.1825301,1.08162651 C30.1825301,0.565186446 30.601331,0.146385542 31.1177711,0.146385542 C31.6342111,0.146385542 32.053012,0.565186446 32.053012,1.08162651 L32.053012,12.3045181 C32.053012,12.8209581 31.6342111,13.239759 31.1177711,13.239759 Z" id="Path"></path>
                    <path d="M36.7292169,13.239759 C36.2125898,13.239759 35.7939759,12.8209581 35.7939759,12.3045181 L35.7939759,1.08162651 C35.7939759,0.565186446 36.2125898,0.146385542 36.7292169,0.146385542 C37.245844,0.146385542 37.6644578,0.565186446 37.6644578,1.08162651 L37.6644578,12.3045181 C37.6644578,12.8209581 37.245844,13.239759 36.7292169,13.239759 Z" id="Path"></path>
                    <path d="M42.3406627,13.239759 C41.8240355,13.239759 41.4054217,12.8209581 41.4054217,12.3045181 L41.4054217,1.08162651 C41.4054217,0.565186446 41.8240355,0.146385542 42.3406627,0.146385542 C42.8572898,0.146385542 43.2759036,0.565186446 43.2759036,1.08162651 L43.2759036,12.3045181 C43.2759036,12.8209581 42.8572898,13.239759 42.3406627,13.239759 Z" id="Path"></path>
                    <path d="M47.9521084,13.239759 C47.4354813,13.239759 47.0168675,12.8209581 47.0168675,12.3045181 L47.0168675,1.08162651 C47.0168675,0.565186446 47.4354813,0.146385542 47.9521084,0.146385542 C48.4687355,0.146385542 48.8873494,0.565186446 48.8873494,1.08162651 L48.8873494,12.3045181 C48.8873494,12.8209581 48.4687355,13.239759 47.9521084,13.239759 Z" id="Path"></path>
                    <path d="M19.8948795,13.239759 C19.3784395,13.239759 18.9596386,12.8209581 18.9596386,12.3045181 L18.9596386,1.08162651 C18.9596386,0.565186446 19.3784395,0.146385542 19.8948795,0.146385542 C20.4113196,0.146385542 20.8301205,0.565186446 20.8301205,1.08162651 L20.8301205,12.3045181 C20.8301205,12.8209581 20.4113196,13.239759 19.8948795,13.239759 Z" id="Path"></path>
                </g>
            </g>
        </g>
    </g>
</svg>