<?xml version="1.0" encoding="UTF-8"?>
<svg width="160px" height="160px" viewBox="0 0 160 160" version="1.1" xmlns="http://www.w3.org/2000/svg" xmlns:xlink="http://www.w3.org/1999/xlink">
    <!-- Generator: Sketch 54.1 (76490) - https://sketchapp.com -->
    <title>Group</title>
    <desc>Created with Sketch.</desc>
    <g id="Grid-detail" stroke="none" stroke-width="1" fill="none" fill-rule="evenodd">
        <g id="Mobile-Copy-2" transform="translate(-80.000000, -80.000000)">
            <g id="Group" transform="translate(80.000000, 80.000000)">
                <circle id="Oval" fill="#4BA8F5" cx="80" cy="80" r="80"></circle>
                <g id="noun_Tour_148442" transform="translate(29.000000, 42.000000)" fill="#FFFFFF" fill-rule="nonzero">
                    <path d="M0.365384615,0.365384615 L0.365384615,30.6192308 L0.365384615,76 L101.211538,76 L101.211538,30.6192308 L101.211538,0.365384615 L0.365384615,0.365384615 Z M99.1946154,73.9830769 L2.38230769,73.9830769 L2.38230769,32.6361538 L99.1946154,32.6361538 L99.1946154,73.9830769 Z M99.1946154,30.6192308 L2.38230769,30.6192308 L2.38230769,2.38230769 L99.1946154,2.38230769 L99.1946154,30.6192308 Z" id="Shape"></path>
                    <path d="M42.0264435,15.005725 C41.9886262,14.6744454 41.9644231,14.3386277 41.9644231,13.9972635 C41.9644231,13.6558992 41.9886262,13.3200815 42.0264435,12.9888019 L33.6279758,12.9888019 C33.6657931,13.3200815 33.6899962,13.6558992 33.6899962,13.9972635 C33.6899962,14.3386277 33.6657931,14.6744454 33.6279758,15.005725 L42.0264435,15.005725 Z" id="Path"></path>
                    <path d="M67.7875935,15.005725 C67.7497762,14.6744454 67.7255731,14.3386277 67.7255731,13.9972635 C67.7255731,13.6558992 67.7497762,13.3200815 67.7875935,12.9888019 L59.5504796,12.9888019 C59.5882969,13.3200815 59.6125,13.6558992 59.6125,13.9972635 C59.6125,14.3386277 59.5882969,14.6744454 59.5504796,15.005725 L67.7875935,15.005725 Z" id="Path"></path>
                    <path d="M25.0273115,21.0111135 C28.9008123,21.0111135 32.0411615,17.8707642 32.0411615,13.9972635 C32.0411615,10.1237627 28.9008123,6.98341346 25.0273115,6.98341346 C21.1538108,6.98341346 18.0134615,10.1237627 18.0134615,13.9972635 C18.0134615,17.8712685 21.1538108,21.0111135 25.0273115,21.0111135 Z M25.0273115,8.49610577 C28.0607638,8.49610577 30.5284692,10.9638112 30.5284692,13.9972635 C30.5284692,17.0307158 28.0607638,19.4984212 25.0273115,19.4984212 C21.9938592,19.4984212 19.5261538,17.0307158 19.5261538,13.9972635 C19.5261538,10.9638112 21.9938592,8.49610577 25.0273115,8.49610577 Z" id="Shape"></path>
                    <path d="M50.7884615,21.0111135 C54.6619623,21.0111135 57.8023115,17.8707642 57.8023115,13.9972635 C57.8023115,10.1237627 54.6619623,6.98341346 50.7884615,6.98341346 C46.9149608,6.98341346 43.7746115,10.1237627 43.7746115,13.9972635 C43.7746115,17.8712685 46.9149608,21.0111135 50.7884615,21.0111135 Z M50.7884615,8.49610577 C53.8219138,8.49610577 56.2896192,10.9638112 56.2896192,13.9972635 C56.2896192,17.0307158 53.8219138,19.4984212 50.7884615,19.4984212 C47.7550092,19.4984212 45.2873038,17.0307158 45.2873038,13.9972635 C45.2873038,10.9638112 47.7550092,8.49610577 50.7884615,8.49610577 Z" id="Shape"></path>
                    <path d="M76.5496115,21.0111135 C80.4231123,21.0111135 83.5634615,17.8707642 83.5634615,13.9972635 C83.5634615,10.1237627 80.4231123,6.98341346 76.5496115,6.98341346 C72.6761108,6.98341346 69.5357615,10.1237627 69.5357615,13.9972635 C69.5357615,17.8712685 72.6756065,21.0111135 76.5496115,21.0111135 Z M76.5496115,8.49610577 C79.5830638,8.49610577 82.0507692,10.9638112 82.0507692,13.9972635 C82.0507692,17.0307158 79.5830638,19.4984212 76.5496115,19.4984212 C73.5161592,19.4984212 71.0484538,17.0307158 71.0484538,13.9972635 C71.0484538,10.9638112 73.5161592,8.49610577 76.5496115,8.49610577 Z" id="Shape"></path>
                    <path d="M77.7930446,16.2305015 C78.1525612,15.9546873 78.3320673,15.5689508 78.3320673,15.0732919 C78.3320673,14.7329362 78.2251704,14.4621642 78.0113765,14.2614804 C77.7975827,14.0607965 77.4829427,13.9342346 77.0674565,13.8828031 L77.0674565,13.8616254 C77.4199138,13.7769146 77.6932069,13.6221158 77.8883442,13.3967246 C78.0834815,13.1713335 78.1807981,12.8975362 78.1807981,12.5758369 C78.1807981,12.1906046 78.0259992,11.8900831 77.7179142,11.6742723 C77.4088208,11.4584615 76.9877881,11.3500519 76.4548162,11.3500519 C75.8043585,11.3500519 75.2441581,11.5189692 74.7747192,11.8573081 L75.2784458,12.6076035 C75.4922396,12.46894 75.6863685,12.3716235 75.8613365,12.3151496 C76.0363046,12.2586758 76.2087515,12.2304388 76.3776688,12.2304388 C76.8662685,12.2304388 77.1103162,12.4255762 77.1103162,12.8153465 C77.1103162,13.0689746 77.0180419,13.2479765 76.8334935,13.3523523 C76.648945,13.4567281 76.3574996,13.5091681 75.9581488,13.5091681 L75.5603108,13.5091681 L75.5603108,14.3441742 L75.9510896,14.3441742 C76.3832154,14.3441742 76.6978554,14.3945973 76.8950096,14.4954435 C77.0921638,14.5962896 77.1909931,14.7677281 77.1909931,15.0097588 C77.1909931,15.2800265 77.1052738,15.4756681 76.9338354,15.5981962 C76.7623969,15.72022 76.4971715,15.7812319 76.137655,15.7812319 C75.9026835,15.7812319 75.665695,15.7494654 75.4261854,15.6859323 C75.1866758,15.6223992 74.9668312,15.5402096 74.76766,15.4393635 L74.76766,16.3656354 C75.1997858,16.5511923 75.6954446,16.6439708 76.2541323,16.6439708 C76.9207254,16.644475 77.4335281,16.50682 77.7930446,16.2305015 Z" id="Path"></path>
                    <rect id="Rectangle" x="19.0153681" y="24.0012019" width="12.0238869" height="2.01692308"></rect>
                    <rect id="Rectangle" x="44.7765181" y="24.0012019" width="12.0238869" height="2.01692308"></rect>
                    <rect id="Rectangle" x="70.5376681" y="24.0012019" width="12.0238869" height="2.01692308"></rect>
                    <rect id="Rectangle" x="18.0134615" y="58.3519231" width="65.55" height="2.01692308"></rect>
                    <rect id="Rectangle" x="18.0134615" y="53.3096154" width="65.55" height="2.01692308"></rect>
                    <rect id="Rectangle" x="18.0134615" y="48.2673077" width="65.55" height="2.01692308"></rect>
                    <rect id="Rectangle" x="18.0134615" y="43.225" width="35.2961538" height="2.01692308"></rect>
                    <path d="M50.1531308,12.4104492 C50.34373,12.3176708 50.5398758,12.2712815 50.7420723,12.2712815 C50.9346885,12.2712815 51.0889831,12.3227131 51.2044519,12.4245677 C51.3199208,12.5269265 51.3774031,12.6827338 51.3774031,12.8924938 C51.3774031,13.03267 51.3511831,13.1683081 51.2987431,13.2994081 C51.2463031,13.4305081 51.1605838,13.5727012 51.0415854,13.7259873 C50.9225869,13.8792735 50.6689588,14.1550877 50.2812054,14.5524215 L48.9712138,15.8770358 L48.9712138,16.644475 L52.6198277,16.644475 L52.6198277,15.7161862 L50.3457469,15.7161862 L50.3457469,15.6662673 L51.0168781,15.0344662 C51.4641308,14.6250308 51.7767538,14.3098865 51.9542431,14.0885292 C52.1317323,13.8671719 52.2623281,13.6513612 52.3470388,13.4405927 C52.4317496,13.2298242 52.4736008,13.0044331 52.4736008,12.763915 C52.4736008,12.4881008 52.4045212,12.2425404 52.2663619,12.0287465 C52.1282027,11.8144485 51.9345781,11.6480523 51.6844796,11.5290538 C51.4343812,11.4100554 51.1464654,11.3505562 50.8207323,11.3505562 C50.573155,11.3505562 50.3492765,11.3747592 50.1496012,11.4236696 C49.9494215,11.47258 49.7653773,11.5421638 49.59646,11.6324212 C49.4275427,11.7226785 49.2142531,11.8774773 48.9575996,12.0963135 L49.55713,12.8067746 C49.7638646,12.6353362 49.9625315,12.5032277 50.1531308,12.4104492 Z" id="Path"></path>
                    <path d="M24.2039027,12.8929981 C24.2765119,12.8350115 24.405595,12.7129877 24.5911519,12.5274308 L24.5729996,13.0780508 L24.5619065,13.5812731 L24.5619065,16.6449792 L25.6807946,16.6449792 L25.6807946,11.3505562 L24.7610777,11.3505562 L23.0557692,12.7079454 L23.5952962,13.3815977 L24.2039027,12.8929981 Z" id="Path"></path>
                </g>
            </g>
        </g>
    </g>
</svg>