<?xml version="1.0" encoding="utf-8"?>
<!-- Generator: Adobe Illustrator 21.0.2, SVG Export Plug-In . SVG Version: 6.00 Build 0)  -->
<svg version="1.1" xmlns="http://www.w3.org/2000/svg" xmlns:xlink="http://www.w3.org/1999/xlink" x="0px" y="0px"
	 viewBox="0 0 656 191" style="enable-background:new 0 0 656 191;" xml:space="preserve">
<style type="text/css">
	.st1{opacity:0.5;fill-rule:evenodd;clip-rule:evenodd;fill:none;stroke:#E4EBF5;stroke-width:10;stroke-miterlimit:10;}
	.st2{fill-rule:evenodd;clip-rule:evenodd;fill:none;stroke:#FFFFFF;stroke-width:10;stroke-miterlimit:10;}
	.st3{fill:#FFFFFF;}
</style>
<g id="circles">
	<path id="circle_right_shape_u" class="st1" d="M559.5,7c48.6,0,88,39.4,88,88s-39.4,88-88,88s-88-39.4-88-88S510.9,7,559.5,7z"/>
	<path id="circle_mid_shape_u" class="st1" d="M327.5,7c48.6,0,88,39.4,88,88s-39.4,88-88,88s-88-39.4-88-88S278.9,7,327.5,7z"/>
	<path id="circle_mid_shape_t" class="st2" d="M327.5,7c48.6,0,88,39.4,88,88s-39.4,88-88,88c-24.2,0-46.2-9.8-62.1-25.6
		c-16-15.9-25.9-38-25.9-62.4"/>
	<path id="circle_left_shape_u" class="st1" d="M95.5,7c48.6,0,88,39.4,88,88s-39.4,88-88,88s-88-39.4-88-88S46.9,7,95.5,7z"/>
	<path id="circle_left_shape_t" class="st2" d="M95.5,7c48.6,0,88,39.4,88,88c0,48.6-39.4,88-88,88s-88-39.4-88-88
		c0-19.4,6.2-37.3,16.8-51.8"/>
</g>
<g id="arrow">
	<path id="arrow_shape" class="st3" d="M569.2,128v-25.2h15.3l-11.1-18.7L560.8,62h-2.5l-12.6,22.1l-11.1,18.7h15.3V128H569.2"/>
</g>
<g id="text_labels">
	<g id="text_labels_shape">
		<g>
			<path class="st3" d="M583.3,71.9v1.8l3.1-1.1v10.3h2.1V70.1h-0.3L583.3,71.9z M599.3,76.4c0.6-0.3,1-0.7,1.3-1.2
				c0.3-0.5,0.5-1,0.5-1.7c0-1.1-0.4-2-1.1-2.6c-0.7-0.6-1.7-1-2.9-1c-1.2,0-2.1,0.3-2.8,1c-0.7,0.6-1.1,1.5-1.1,2.6
				c0,0.6,0.2,1.2,0.5,1.7c0.3,0.5,0.8,0.9,1.3,1.2c-0.7,0.3-1.2,0.7-1.5,1.3c-0.4,0.5-0.5,1.2-0.5,1.8c0,1.1,0.4,2,1.1,2.7
				c0.8,0.7,1.8,1,3.1,1c1.3,0,2.3-0.3,3-1c0.8-0.7,1.1-1.6,1.1-2.7c0-0.7-0.2-1.3-0.5-1.8C600.5,77.1,599.9,76.7,599.3,76.4z
				 M595.9,72.2c0.3-0.3,0.7-0.5,1.3-0.5s1,0.2,1.3,0.5c0.3,0.4,0.5,0.8,0.5,1.4c0,0.6-0.2,1.1-0.5,1.4c-0.3,0.3-0.8,0.5-1.3,0.5
				s-1-0.2-1.3-0.5c-0.3-0.3-0.5-0.8-0.5-1.4C595.4,73,595.6,72.5,595.9,72.2z M598.7,80.9c-0.4,0.4-0.9,0.5-1.5,0.5
				c-0.6,0-1.2-0.2-1.5-0.6c-0.4-0.4-0.5-0.9-0.5-1.5c0-0.6,0.2-1.2,0.6-1.5c0.4-0.4,0.9-0.6,1.5-0.6c0.6,0,1.1,0.2,1.5,0.6
				c0.4,0.4,0.6,0.9,0.6,1.5C599.2,80,599,80.5,598.7,80.9z M611.5,71.4l-6.2,10l1.1,0.6l6.2-10L611.5,71.4z M614,77.9
				c-0.5-0.5-1.2-0.7-2-0.7c-0.8,0-1.4,0.2-2,0.7c-0.5,0.5-0.8,1.1-0.8,1.9v0.6c0,0.8,0.3,1.4,0.8,1.9c0.5,0.5,1.2,0.7,2,0.7
				c0.8,0,1.5-0.2,2-0.7c0.5-0.5,0.7-1.1,0.7-1.9v-0.6C614.7,79,614.5,78.4,614,77.9z M613.3,80.5c0,0.4-0.1,0.8-0.3,1
				c-0.2,0.2-0.5,0.4-0.9,0.4c-0.4,0-0.7-0.1-0.9-0.4c-0.2-0.3-0.3-0.6-0.3-1v-0.7c0-0.4,0.1-0.8,0.3-1c0.2-0.2,0.5-0.4,0.9-0.4
				c0.4,0,0.7,0.1,0.9,0.4c0.2,0.2,0.3,0.6,0.3,1V80.5z M607.8,75.2c0.5-0.5,0.7-1.1,0.7-1.9v-0.6c0-0.8-0.2-1.5-0.7-1.9
				c-0.5-0.5-1.2-0.7-2-0.7c-0.8,0-1.5,0.2-2,0.7c-0.5,0.5-0.7,1.1-0.7,1.9v0.6c0,0.8,0.3,1.5,0.8,2c0.5,0.5,1.2,0.7,2,0.7
				C606.7,75.9,607.3,75.7,607.8,75.2z M604.7,73.3v-0.7c0-0.4,0.1-0.8,0.3-1c0.2-0.3,0.5-0.4,0.9-0.4c0.4,0,0.7,0.1,0.9,0.4
				c0.2,0.3,0.3,0.6,0.3,1v0.6c0,0.4-0.1,0.8-0.3,1c-0.2,0.2-0.5,0.4-0.9,0.4c-0.4,0-0.7-0.1-0.9-0.4
				C604.8,74,604.7,73.7,604.7,73.3z M74.9,87l-0.5,0.2l-7.2,8.4L67,96.1v2.6l0.2,0.2h7.4l0.2,0.2v4.3l0.2,0.2H78l0.2-0.2V87.2
				L78,87H74.9z M74.9,95.9l-0.2,0.2h-4.1v-0.2l4.1-4.8h0.2V95.9z M83.5,100.2l-0.2,0.2v3.1l0.2,0.2h0.7l0.2,0.2v0.2l-1.4,2.4v0.5
				h1.4l0.5-0.2l1.9-2.4l0.2-0.7v-3.4l-0.2-0.2H83.5z M93.1,87l-0.5,0.2l-3.4,3.4V93l0.2,0.2h1.2l1.9-1.9h0.2v12.2l0.2,0.2H96
				l0.2-0.2V87.2L96,87H93.1z M100.6,87l-0.2,0.2v2.4l0.2,0.2h7.2v0.2l-5.5,11v2.4l0.2,0.2h1.9l0.2-0.2l6.7-13.7v-2.6l-0.2-0.2
				H100.6z M121,92.5c-0.6,0-1.2,0.1-1.7,0.3c-0.5,0.2-0.8,0.3-0.9,0.4c-0.1,0.1-0.2,0.2-0.3,0.3h-0.2c0-0.4,0-0.8,0.1-1.1
				c0.1-0.4,0.2-0.8,0.3-1.2c0.2-0.4,0.4-0.8,0.8-1.1c0.4-0.3,0.9-0.4,1.4-0.4c0.7,0,1.2,0.1,1.5,0.3c0.3,0.2,0.5,0.5,0.7,0.9
				l0.2,0.2h2.9l0.2-0.2c-0.1-1.2-0.7-2.2-1.6-3c-1-0.7-2.3-1.1-3.9-1.1c-2.1,0-3.7,0.8-4.7,2.3c-1,1.5-1.5,3.6-1.5,6.4
				c0,3,0.5,5.1,1.5,6.5c1,1.4,2.6,2.1,4.8,2.1c1.7,0,3.1-0.6,4.2-1.7c1.1-1.1,1.6-2.6,1.6-4.3c0-1.6-0.5-3-1.5-4
				C123.7,93,122.4,92.5,121,92.5z M122.2,100.3c-0.4,0.5-1,0.8-1.7,0.8c-1.8,0-2.6-1-2.6-2.9s0.9-2.9,2.6-2.9
				c0.8,0,1.4,0.3,1.8,0.8c0.4,0.5,0.6,1.2,0.6,2.1C122.9,99.1,122.7,99.8,122.2,100.3z M306.9,93.2V93l3.1-2.9l0.2-0.5v-2.4L310,87
				h-9.8l-0.2,0.2v2.4l0.2,0.2h5.8v0.2l-3.4,3.4v2.2l0.2,0.2h1.2l0.1-0.1c0.1-0.1,0.3-0.2,0.5-0.2c0.2-0.1,0.5-0.1,0.8-0.1
				c0.7,0,1.3,0.2,1.8,0.7c0.4,0.5,0.6,1.2,0.6,2.1c0,0.9-0.2,1.6-0.7,2.1c-0.5,0.5-1.2,0.8-2.1,0.8c-0.8,0-1.4-0.2-1.8-0.6
				c-0.4-0.4-0.6-0.8-0.6-1.4l-0.2-0.2h-2.9l-0.2,0.2c0,1.3,0.5,2.4,1.5,3.4c1,1,2.4,1.4,4.2,1.4c2,0,3.5-0.6,4.6-1.7
				s1.7-2.5,1.7-4.1c0-1.5-0.4-2.7-1.3-3.6C309,93.7,308,93.2,306.9,93.2z M314.8,100.2l-0.2,0.2v3.1l0.2,0.2h0.7l0.2,0.2v0.2
				l-1.4,2.4v0.5h1.4l0.5-0.2l1.9-2.4l0.2-0.7v-3.4l-0.2-0.2H314.8z M324.4,87l-0.5,0.2l-3.4,3.4V93l0.2,0.2h1.2l1.9-1.9h0.2v12.2
				l0.2,0.2h2.9l0.2-0.2V87.2l-0.2-0.2H324.4z M331.8,87l-0.2,0.2v2.4l0.2,0.2h7.2v0.2l-5.5,11v2.4l0.2,0.2h1.9l0.2-0.2l6.7-13.7
				v-2.6l-0.2-0.2H331.8z M352.2,92.5c-0.6,0-1.2,0.1-1.7,0.3c-0.5,0.2-0.8,0.3-0.9,0.4c-0.1,0.1-0.2,0.2-0.3,0.3h-0.2
				c0-0.4,0-0.8,0.1-1.1c0.1-0.4,0.2-0.8,0.3-1.2c0.2-0.4,0.4-0.8,0.8-1.1c0.4-0.3,0.9-0.4,1.4-0.4c0.7,0,1.2,0.1,1.5,0.3
				c0.3,0.2,0.5,0.5,0.7,0.9l0.2,0.2h2.9l0.2-0.2c-0.1-1.2-0.7-2.2-1.6-3c-1-0.7-2.3-1.1-3.9-1.1c-2.1,0-3.7,0.8-4.7,2.3
				c-1,1.5-1.5,3.6-1.5,6.4c0,3,0.5,5.1,1.5,6.5c1,1.4,2.6,2.1,4.8,2.1c1.7,0,3.1-0.6,4.2-1.7c1.1-1.1,1.6-2.6,1.6-4.3
				c0-1.6-0.5-3-1.5-4C355,93,353.7,92.5,352.2,92.5z M353.5,100.3c-0.4,0.5-1,0.8-1.7,0.8c-1.8,0-2.6-1-2.6-2.9s0.9-2.9,2.6-2.9
				c0.8,0,1.4,0.3,1.8,0.8c0.4,0.5,0.6,1.2,0.6,2.1C354.2,99.1,353.9,99.8,353.5,100.3z"/>
		</g>
	</g>
</g>
</svg>
