<?xml version="1.0" encoding="UTF-8"?>
<svg width="102px" height="11px" viewBox="0 0 102 11" version="1.1" xmlns="http://www.w3.org/2000/svg" xmlns:xlink="http://www.w3.org/1999/xlink">
    <title>Group 2</title>
    <g id="Page-1" stroke="none" stroke-width="1" fill="none" fill-rule="evenodd" opacity="0.5">
        <g id="Group-2" fill-rule="nonzero">
            <g id="©WayfnderLLC2020.-2" fill="#000000" transform="translate(0.378906, 0.397461)">
                <path d="M3.46679688,7.70507812 C4.11132812,7.70507812 4.70296224,7.53499349 5.24169922,7.19482422 C5.7804362,6.85465495 6.19628906,6.4046224 6.48925781,5.84472656 C6.78222656,5.28483073 6.92871094,4.68424479 6.92871094,4.04296875 C6.92871094,3.38541667 6.77652995,2.7750651 6.47216797,2.21191406 C6.16780599,1.64876302 5.74707031,1.20524089 5.20996094,0.881347656 C4.67285156,0.557454427 4.09179688,0.395507812 3.46679688,0.395507812 C2.84179688,0.395507812 2.25992839,0.557454427 1.72119141,0.881347656 C1.18245443,1.20524089 0.760904948,1.64876302 0.456542969,2.21191406 C0.15218099,2.7750651 0,3.38541667 0,4.04296875 C0,4.69075521 0.148111979,5.29459635 0.444335937,5.85449219 C0.740559896,6.41438802 1.15804036,6.86279297 1.69677734,7.19970703 C2.23551432,7.53662109 2.82552083,7.70507812 3.46679688,7.70507812 Z M3.46679688,7.12402344 C2.94596354,7.12402344 2.4617513,6.98893229 2.01416016,6.71875 C1.56656901,6.44856771 1.2125651,6.07503255 0.952148438,5.59814453 C0.691731771,5.12125651 0.561523438,4.60286458 0.561523438,4.04296875 C0.561523438,3.48958333 0.690917969,2.97526042 0.949707031,2.5 C1.20849609,2.02473958 1.5625,1.65283203 2.01171875,1.38427734 C2.4609375,1.11572266 2.94596354,0.981445312 3.46679688,0.981445312 C3.99088542,0.981445312 4.47672526,1.11735026 4.92431641,1.38916016 C5.37190755,1.66097005 5.72428385,2.0328776 5.98144531,2.50488281 C6.23860677,2.97688802 6.3671875,3.48958333 6.3671875,4.04296875 C6.3671875,4.60286458 6.23697917,5.12125651 5.9765625,5.59814453 C5.71614583,6.07503255 5.36295573,6.44856771 4.91699219,6.71875 C4.47102865,6.98893229 3.98763021,7.12402344 3.46679688,7.12402344 Z M3.40332031,6.22070312 C3.91764323,6.22070312 4.31559245,6.08968099 4.59716797,5.82763672 C4.87874349,5.56559245 5.01953125,5.18554688 5.01953125,4.6875 L5.01953125,4.6875 L4.30664062,4.6875 C4.30664062,5.01627604 4.23095703,5.24902344 4.07958984,5.38574219 C3.92822266,5.52246094 3.70279948,5.59082031 3.40332031,5.59082031 C3.09733073,5.59082031 2.85644531,5.47851562 2.68066406,5.25390625 C2.50488281,5.02929688 2.41699219,4.72167969 2.41699219,4.33105469 L2.41699219,4.33105469 L2.41699219,3.77929688 C2.41699219,3.37890625 2.50488281,3.06640625 2.68066406,2.84179688 C2.85644531,2.6171875 3.09733073,2.50488281 3.40332031,2.50488281 C3.69954427,2.50488281 3.92496745,2.57405599 4.07958984,2.71240234 C4.23421224,2.8507487 4.31152344,3.08105469 4.31152344,3.40332031 L4.31152344,3.40332031 L5.02441406,3.40332031 C5.02441406,2.91829427 4.8844401,2.54231771 4.60449219,2.27539062 C4.32454427,2.00846354 3.92415365,1.875 3.40332031,1.875 C2.89876302,1.875 2.49104818,2.04671224 2.18017578,2.39013672 C1.86930339,2.7335612 1.71386719,3.19173177 1.71386719,3.76464844 L1.71386719,3.76464844 L1.71386719,4.30175781 C1.71386719,4.89420573 1.86767578,5.36214193 2.17529297,5.70556641 C2.48291016,6.04899089 2.8922526,6.22070312 3.40332031,6.22070312 Z" id="©WayfnderLLC2020."></path>
            </g>
            <path d="M13.1710937,8 L14.6896484,2.81933594 L14.8019531,2.27734375 L14.9142578,2.81933594 L16.3791016,8 L17.2335937,8 L18.9572266,0.890625 L18.0148437,0.890625 L16.9113281,5.75390625 L16.7599609,6.7109375 L16.5646484,5.8515625 L15.1925781,0.890625 L14.4015625,0.890625 L12.9953125,5.8515625 L12.7951172,6.69628906 L12.6583984,5.75878906 L11.5353516,0.890625 L10.5978516,0.890625 L12.3166016,8 L13.1710937,8 Z M21.4865234,8.09765625 C22.0692057,8.09765625 22.5705078,7.87955729 22.9904297,7.44335938 C23.0229818,7.71028646 23.0652995,7.89583333 23.1173828,8 L23.1173828,8 L24.0646484,8 L24.0646484,7.921875 C23.9409505,7.63541667 23.8791016,7.24967448 23.8791016,6.76464844 L23.8791016,6.76464844 L23.8791016,4.33300781 C23.8660807,3.79915365 23.6870443,3.38004557 23.3419922,3.07568359 C22.9969401,2.77132161 22.5200521,2.61914062 21.9113281,2.61914062 C21.5272135,2.61914062 21.1748372,2.69075521 20.8541992,2.83398438 C20.5335612,2.97721354 20.2796549,3.17171224 20.0924805,3.41748047 C19.905306,3.6632487 19.8117187,3.91796875 19.8117187,4.18164062 L19.8117187,4.18164062 L20.7199219,4.18164062 C20.7199219,3.95052083 20.8289714,3.75358073 21.0470703,3.59082031 C21.2651693,3.4280599 21.5353516,3.34667969 21.8576172,3.34667969 C22.2254557,3.34667969 22.503776,3.44026693 22.6925781,3.62744141 C22.8813802,3.81461589 22.9757812,4.06608073 22.9757812,4.38183594 L22.9757812,4.38183594 L22.9757812,4.796875 L22.096875,4.796875 C21.3384115,4.796875 20.7500326,4.94905599 20.3317383,5.25341797 C19.913444,5.55777995 19.7042969,5.98502604 19.7042969,6.53515625 C19.7042969,6.98763021 19.8711263,7.36116536 20.2047852,7.65576172 C20.538444,7.95035807 20.9656901,8.09765625 21.4865234,8.09765625 Z M21.6183594,7.31152344 C21.3221354,7.31152344 21.0796224,7.23177083 20.8908203,7.07226562 C20.7020182,6.91276042 20.6076172,6.69140625 20.6076172,6.40820312 C20.6076172,5.76041667 21.1610026,5.43652344 22.2677734,5.43652344 L22.2677734,5.43652344 L22.9757812,5.43652344 L22.9757812,6.52050781 C22.861849,6.75488281 22.6779297,6.9453125 22.4240234,7.09179688 C22.1701172,7.23828125 21.9015625,7.31152344 21.6183594,7.31152344 Z M25.5294922,10.1337891 C26.245638,10.1337891 26.768099,9.69433594 27.096875,8.81542969 L27.096875,8.81542969 L29.2208984,2.71679688 L28.2541016,2.71679688 L27.0236328,6.67675781 L25.7052734,2.71679688 L24.7189453,2.71679688 L26.6037109,7.94140625 L26.4035156,8.47851562 C26.2928385,8.80729167 26.1520508,9.03352865 25.9811523,9.15722656 C25.8102539,9.28092448 25.5718099,9.34277344 25.2658203,9.34277344 L25.2658203,9.34277344 L25.0216797,9.32324219 L25.0216797,10.0556641 L25.3585937,10.1191406 L25.5294922,10.1337891 Z M31.2375,8 L31.2375,3.41503906 L32.3166016,3.41503906 L32.3166016,2.71679688 L31.2375,2.71679688 L31.2375,2.2578125 C31.2375,1.90950521 31.3229492,1.64827474 31.4938477,1.47412109 C31.6647461,1.29996745 31.9438802,1.21289062 32.33125,1.21289062 C32.6990885,1.21289062 33.0864583,1.29427083 33.4933594,1.45703125 L33.4933594,1.45703125 L33.6447266,0.6953125 C33.0880859,0.496744792 32.627474,0.397460938 32.2628906,0.397460938 C31.6476562,0.397460938 31.171582,0.561848958 30.834668,0.890625 C30.4977539,1.21940104 30.3292969,1.67838542 30.3292969,2.26757812 L30.3292969,2.26757812 L30.3292969,2.71679688 L29.4943359,2.71679688 L29.4943359,3.41503906 L30.3292969,3.41503906 L30.3292969,8 L31.2375,8 Z M34.0939453,8 L34.0939453,2.71679688 L33.1857422,2.71679688 L33.1857422,8 L34.0939453,8 Z M36.4669922,8 L36.4669922,4.23535156 C36.5906901,3.98144531 36.7632161,3.77636719 36.9845703,3.62011719 C37.2059245,3.46386719 37.4630859,3.38574219 37.7560547,3.38574219 C38.1173828,3.38574219 38.3834961,3.47688802 38.5543945,3.65917969 C38.725293,3.84147135 38.8123698,4.12304688 38.815625,4.50390625 L38.815625,4.50390625 L38.815625,8 L39.7189453,8 L39.7189453,4.50878906 C39.7091797,3.24902344 39.1460286,2.61914062 38.0294922,2.61914062 C37.3784505,2.61914062 36.8511068,2.87304688 36.4474609,3.38085938 L36.4474609,3.38085938 L36.4181641,2.71679688 L35.5636719,2.71679688 L35.5636719,8 L36.4669922,8 Z M42.9367187,8.09765625 C43.58125,8.09765625 44.0841797,7.87630208 44.4455078,7.43359375 L44.4455078,7.43359375 L44.4894531,8 L45.3195312,8 L45.3195312,0.5 L44.4162109,0.5 L44.4162109,3.25390625 C44.0548828,2.83072917 43.564974,2.61914062 42.9464844,2.61914062 C42.3247396,2.61914062 41.8218099,2.86572266 41.4376953,3.35888672 C41.0535807,3.85205078 40.8615234,4.50390625 40.8615234,5.31445312 L40.8615234,5.31445312 L40.8615234,5.3828125 C40.8615234,6.19010417 41.0543945,6.84440104 41.4401367,7.34570312 C41.8258789,7.84700521 42.3247396,8.09765625 42.9367187,8.09765625 Z M43.1613281,7.33105469 C42.7251302,7.33105469 42.3833333,7.16178385 42.1359375,6.82324219 C41.8885417,6.48470052 41.7648437,6.01595052 41.7648437,5.41699219 C41.7648437,4.74641927 41.8885417,4.24023438 42.1359375,3.8984375 C42.3833333,3.55664062 42.7283854,3.38574219 43.1710937,3.38574219 C43.7309896,3.38574219 44.1460286,3.63476562 44.4162109,4.1328125 L44.4162109,4.1328125 L44.4162109,6.55957031 C44.1525391,7.07389323 43.7342448,7.33105469 43.1613281,7.33105469 Z M48.9132812,8.09765625 C49.7986979,8.09765625 50.4627604,7.75748698 50.9054687,7.07714844 L50.9054687,7.07714844 L50.3537109,6.64746094 C50.1876953,6.86230469 49.9940104,7.03483073 49.7726562,7.16503906 C49.5513021,7.2952474 49.2811198,7.36035156 48.9621094,7.36035156 C48.5128906,7.36035156 48.1426107,7.20003255 47.8512695,6.87939453 C47.5599284,6.55875651 47.4077474,6.13802083 47.3947266,5.6171875 L47.3947266,5.6171875 L50.9738281,5.6171875 L50.9738281,5.24121094 C50.9738281,4.39811198 50.7833984,3.75032552 50.4025391,3.29785156 C50.0216797,2.8453776 49.4878255,2.61914062 48.8009766,2.61914062 C48.3810547,2.61914062 47.9912435,2.73551432 47.631543,2.96826172 C47.2718424,3.20100911 46.9918945,3.52327474 46.7916992,3.93505859 C46.5915039,4.34684245 46.4914062,4.81477865 46.4914062,5.33886719 L46.4914062,5.33886719 L46.4914062,5.50488281 C46.4914062,6.29264323 46.7160156,6.92171224 47.1652344,7.39208984 C47.6144531,7.86246745 48.1971354,8.09765625 48.9132812,8.09765625 Z M50.0705078,4.875 L47.4240234,4.875 C47.4826172,4.39648438 47.635612,4.02457682 47.8830078,3.75927734 C48.1304036,3.49397786 48.4363932,3.36132812 48.8009766,3.36132812 C49.1785807,3.36132812 49.4780599,3.48746745 49.6994141,3.73974609 C49.9207682,3.99202474 50.0444661,4.34765625 50.0705078,4.80664062 L50.0705078,4.80664062 L50.0705078,4.875 Z M52.9220703,8 L52.9220703,4.25 C53.1336589,3.74544271 53.5356771,3.49316406 54.128125,3.49316406 C54.2876302,3.49316406 54.4357422,3.50455729 54.5724609,3.52734375 L54.5724609,3.52734375 L54.5724609,2.6875 C54.4813151,2.64192708 54.3478516,2.61914062 54.1720703,2.61914062 C53.6284505,2.61914062 53.2085286,2.85514323 52.9123047,3.32714844 L52.9123047,3.32714844 L52.8976562,2.71679688 L52.01875,2.71679688 L52.01875,8 L52.9220703,8 Z M62.33125,8 L62.33125,7.23339844 L58.9621094,7.23339844 L58.9621094,0.890625 L58.0197266,0.890625 L58.0197266,8 L62.33125,8 Z M67.7121094,8 L67.7121094,7.23339844 L64.3429687,7.23339844 L64.3429687,0.890625 L63.4005859,0.890625 L63.4005859,8 L67.7121094,8 Z M71.315625,8.09765625 C72.0903646,8.09765625 72.7112956,7.89339193 73.178418,7.48486328 C73.6455404,7.07633464 73.9230469,6.49609375 74.0109375,5.74414062 L74.0109375,5.74414062 L73.0685547,5.74414062 C72.9774089,6.33007812 72.7926758,6.74104818 72.5143555,6.97705078 C72.2360352,7.21305339 71.8364583,7.33105469 71.315625,7.33105469 C70.7361979,7.33105469 70.2853516,7.1031901 69.9630859,6.64746094 C69.6408203,6.19173177 69.4796875,5.578125 69.4796875,4.80664062 L69.4796875,4.80664062 L69.4796875,4.11816406 C69.4796875,3.30110677 69.6497721,2.67122396 69.9899414,2.22851562 C70.3301107,1.78580729 70.7996745,1.56445312 71.3986328,1.56445312 C71.8869141,1.56445312 72.2669596,1.69140625 72.5387695,1.9453125 C72.8105794,2.19921875 72.9871745,2.609375 73.0685547,3.17578125 L73.0685547,3.17578125 L74.0109375,3.17578125 C73.9360677,2.43033854 73.6707682,1.84684245 73.2150391,1.42529297 C72.7593099,1.00374349 72.1538411,0.79296875 71.3986328,0.79296875 C70.8289714,0.79296875 70.3276693,0.927246094 69.8947266,1.19580078 C69.4617839,1.46435547 69.1273112,1.84928385 68.8913086,2.35058594 C68.655306,2.85188802 68.5373047,3.43294271 68.5373047,4.09375 L68.5373047,4.09375 L68.5373047,4.77734375 C68.5373047,5.78645833 68.7903971,6.5921224 69.296582,7.19433594 C69.8027669,7.79654948 70.4757812,8.09765625 71.315625,8.09765625 Z M82.1896484,8 L82.1896484,7.26269531 L78.6203125,7.26269531 L80.5246094,5.19726562 C81.4165365,4.23046875 81.8625,3.39713542 81.8625,2.69726562 C81.8625,2.12109375 81.6704427,1.65966797 81.2863281,1.31298828 C80.9022135,0.966308594 80.3797526,0.79296875 79.7189453,0.79296875 C79.0125651,0.79296875 78.4486003,0.994791667 78.0270508,1.3984375 C77.6055013,1.80208333 77.3947266,2.33105469 77.3947266,2.98535156 L77.3947266,2.98535156 L78.2980469,2.98535156 C78.2980469,2.5296224 78.4225586,2.17399089 78.671582,1.91845703 C78.9206055,1.66292318 79.2697266,1.53515625 79.7189453,1.53515625 C80.0932943,1.53515625 80.3927734,1.65397135 80.6173828,1.89160156 C80.8419922,2.12923177 80.9542969,2.43359375 80.9542969,2.8046875 C80.9542969,3.08138021 80.8851237,3.34912109 80.7467773,3.60791016 C80.608431,3.86669922 80.3569661,4.20279948 79.9923828,4.61621094 L79.9923828,4.61621094 L77.5314453,7.35058594 L77.5314453,8 L82.1896484,8 Z M85.3683594,8.09765625 C86.1365885,8.09765625 86.7013672,7.84049479 87.0626953,7.32617188 C87.4240234,6.81184896 87.6046875,6.02571615 87.6046875,4.96777344 L87.6046875,4.96777344 L87.6046875,3.79589844 C87.5949219,2.77376302 87.409375,2.01774089 87.0480469,1.52783203 C86.6867187,1.03792318 86.1235677,0.79296875 85.3585937,0.79296875 C84.5871094,0.79296875 84.0207031,1.046875 83.659375,1.5546875 C83.2980469,2.0625 83.1173828,2.83886719 83.1173828,3.88378906 L83.1173828,3.88378906 L83.1173828,5.08984375 C83.1304036,6.08919271 83.3192057,6.84033203 83.6837891,7.34326172 C84.0483724,7.84619141 84.6098958,8.09765625 85.3683594,8.09765625 Z M85.3683594,7.36035156 C84.9158854,7.36035156 84.5781576,7.17724609 84.3551758,6.81103516 C84.132194,6.44482422 84.0207031,5.87760417 84.0207031,5.109375 L84.0207031,5.109375 L84.0207031,3.6640625 C84.0272135,2.94140625 84.136263,2.40592448 84.3478516,2.05761719 C84.5594401,1.7093099 84.8963542,1.53515625 85.3585937,1.53515625 C85.8240885,1.53515625 86.1642578,1.7101237 86.3791016,2.06005859 C86.5939453,2.40999349 86.7013672,2.96744792 86.7013672,3.73242188 L86.7013672,3.73242188 L86.7013672,5.21191406 C86.6916016,5.95410156 86.5784831,6.49772135 86.3620117,6.84277344 C86.1455404,7.18782552 85.8143229,7.36035156 85.3683594,7.36035156 Z M93.4201172,8 L93.4201172,7.26269531 L89.8507812,7.26269531 L91.7550781,5.19726562 C92.6470052,4.23046875 93.0929687,3.39713542 93.0929687,2.69726562 C93.0929687,2.12109375 92.9009115,1.65966797 92.5167969,1.31298828 C92.1326823,0.966308594 91.6102214,0.79296875 90.9494141,0.79296875 C90.2430339,0.79296875 89.679069,0.994791667 89.2575195,1.3984375 C88.8359701,1.80208333 88.6251953,2.33105469 88.6251953,2.98535156 L88.6251953,2.98535156 L89.5285156,2.98535156 C89.5285156,2.5296224 89.6530273,2.17399089 89.9020508,1.91845703 C90.1510742,1.66292318 90.5001953,1.53515625 90.9494141,1.53515625 C91.323763,1.53515625 91.6232422,1.65397135 91.8478516,1.89160156 C92.0724609,2.12923177 92.1847656,2.43359375 92.1847656,2.8046875 C92.1847656,3.08138021 92.1155924,3.34912109 91.9772461,3.60791016 C91.8388997,3.86669922 91.5874349,4.20279948 91.2228516,4.61621094 L91.2228516,4.61621094 L88.7619141,7.35058594 L88.7619141,8 L93.4201172,8 Z M97.3458984,8 L97.3458984,0.856445312 L97.2042969,0.856445312 L94.6164062,1.828125 L94.6164062,2.6484375 L96.4376953,1.97949219 L96.4376953,8 L97.3458984,8 Z M100.661328,8.05371094 C100.846875,8.05371094 100.987663,8.00325521 101.083691,7.90234375 C101.17972,7.80143229 101.227734,7.67610677 101.227734,7.52636719 C101.227734,7.37011719 101.17972,7.23990885 101.083691,7.13574219 C100.987663,7.03157552 100.846875,6.97949219 100.661328,6.97949219 C100.475781,6.97949219 100.336621,7.03157552 100.243848,7.13574219 C100.151074,7.23990885 100.104687,7.37011719 100.104687,7.52636719 C100.104687,7.67610677 100.151074,7.80143229 100.243848,7.90234375 C100.336621,8.00325521 100.475781,8.05371094 100.661328,8.05371094 Z" id="WayfinderLLC2021." fill="#0E0F0F"></path>
        </g>
    </g>
</svg>