<?xml version="1.0" encoding="UTF-8"?>
<svg width="21px" height="28px" viewBox="0 0 21 28" version="1.1" xmlns="http://www.w3.org/2000/svg" xmlns:xlink="http://www.w3.org/1999/xlink">
    <!-- Generator: Sketch 54.1 (76490) - https://sketchapp.com -->
    <title>Shape</title>
    <desc>Created with Sketch.</desc>
    <g id="Grid-Pages" stroke="none" stroke-width="1" fill="none" fill-rule="evenodd">
        <g id="1440-Home" transform="translate(-741.000000, -2213.000000)" fill="#000000" fill-rule="nonzero">
            <path d="M761.983229,2218.78389 C761.975961,2218.74755 761.963662,2218.71401 761.951363,2218.67935 C761.945214,2218.66202 761.941859,2218.64413 761.93571,2218.62736 C761.919497,2218.58878 761.898813,2218.553 761.87701,2218.51778 C761.870301,2218.5066 761.865829,2218.4943 761.858561,2218.48312 C761.827814,2218.43728 761.793153,2218.39479 761.75402,2218.35566 L756.644899,2213.24654 C756.606325,2213.20741 756.563279,2213.17275 756.517437,2213.142 C756.507374,2213.13529 756.496752,2213.13138 756.486689,2213.12523 C756.450351,2213.10286 756.412895,2213.08162 756.373203,2213.06485 C756.358109,2213.05814 756.341337,2213.05535 756.325684,2213.05031 C756.290464,2213.03802 756.254685,2213.0246 756.21667,2213.01677 C756.162443,2213.00559 756.107656,2213 756.051193,2213 L741.838569,2213 C741.37512,2213 741,2213.37512 741,2213.83857 L741,2239.54797 C741,2240.01086 741.37512,2240.38654 741.838569,2240.38654 L761.161431,2240.38654 C761.624321,2240.38654 762,2240.01086 762,2239.54797 L762,2218.94937 C762,2218.8929 761.99441,2218.83756 761.983229,2218.78389 Z M756.890321,2215.86343 L759.137685,2218.1108 L756.890321,2218.1108 L756.890321,2215.86343 L756.890321,2215.86343 Z M760.322862,2238.70996 L742.677138,2238.70996 L742.677138,2214.6777 L755.213183,2214.6777 L755.213183,2218.94937 C755.213183,2219.41282 755.588862,2219.78794 756.051752,2219.78794 L760.323421,2219.78794 L760.323421,2238.70996 L760.322862,2238.70996 Z M755.413321,2226.69383 L752.338569,2226.69383 L752.338569,2223.61908 C752.338569,2223.15563 751.963449,2222.78051 751.5,2222.78051 C751.036551,2222.78051 750.661431,2223.15563 750.661431,2223.61908 L750.661431,2226.69383 L747.586679,2226.69383 C747.12323,2226.69383 746.74811,2227.06951 746.74811,2227.5324 C746.74811,2227.99529 747.12323,2228.37097 747.586679,2228.37097 L750.661431,2228.37097 L750.661431,2231.44572 C750.661431,2231.90861 751.036551,2232.28429 751.5,2232.28429 C751.963449,2232.28429 752.338569,2231.90861 752.338569,2231.44572 L752.338569,2228.37097 L755.413321,2228.37097 C755.876211,2228.37097 756.25189,2227.99529 756.25189,2227.5324 C756.25189,2227.06951 755.876211,2226.69383 755.413321,2226.69383 Z" id="Shape"></path>
        </g>
    </g>
</svg>