<?xml version="1.0" encoding="UTF-8"?>
<svg width="24px" height="24px" viewBox="0 0 24 24" version="1.1" xmlns="http://www.w3.org/2000/svg" xmlns:xlink="http://www.w3.org/1999/xlink">
    <!-- Generator: Sketch 54.1 (76490) - https://sketchapp.com -->
    <title>Shape</title>
    <desc>Created with Sketch.</desc>
    <g id="Grid-Pages" stroke="none" stroke-width="1" fill="none" fill-rule="evenodd">
        <g id="1440-Home" transform="translate(-741.000000, -2386.000000)" fill="#000000" fill-rule="nonzero">
            <path d="M761.985163,2386 C761.589911,2386 761.269832,2386.32008 761.269832,2386.71533 L761.269832,2390.59862 L741.715331,2390.59862 C741.320079,2390.59862 741,2390.91949 741,2391.31434 L741,2409.2815 C741,2409.67636 741.320475,2409.99723 741.715331,2409.99723 L761.985163,2409.99723 C763.647676,2409.99723 765,2408.64491 765,2406.98318 L765,2389.01444 C765,2387.35232 763.647676,2386 761.985163,2386 Z M761.985163,2408.56578 L742.430663,2408.56578 L742.430663,2392.02967 L761.270227,2392.02967 L761.270227,2404.6821 C761.270227,2405.07695 761.590307,2405.39782 761.985559,2405.39782 C762.859149,2405.39782 763.569337,2406.1088 763.569337,2406.98318 C763.568942,2407.85559 762.858754,2408.56578 761.985163,2408.56578 Z M763.568942,2404.41939 C763.303858,2404.2548 763.011869,2404.12898 762.700495,2404.05223 L762.700495,2387.60158 C763.216024,2387.86311 763.568942,2388.39881 763.568942,2389.01444 L763.568942,2404.41939 Z M758.83541,2393.27676 L744.864688,2393.27676 C744.469436,2393.27676 744.149357,2393.59763 744.149357,2393.99248 L744.149357,2406.60297 C744.149357,2406.99782 744.469832,2407.31869 744.864688,2407.31869 L758.83541,2407.31869 C759.230663,2407.31869 759.550742,2406.99782 759.550742,2406.60297 L759.550742,2400.43838 C759.550742,2400.04313 759.230663,2399.72305 758.83541,2399.72305 C758.440158,2399.72305 758.120079,2400.04313 758.120079,2400.43838 L758.120079,2402.05539 L757.345401,2402.05539 C756.950148,2402.05539 756.630069,2402.37626 756.630069,2402.77112 C756.630069,2403.16597 756.950148,2403.48684 757.345401,2403.48684 L758.120079,2403.48684 L758.120079,2405.88764 L745.580415,2405.88764 L745.580415,2401.01325 L751.134916,2401.01325 L751.134916,2404.18081 C751.134916,2404.57567 751.455391,2404.89654 751.850247,2404.89654 C752.245104,2404.89654 752.565579,2404.57567 752.565579,2404.18081 L752.565579,2403.48684 L754.829476,2403.48684 C755.224728,2403.48684 755.544807,2403.16597 755.544807,2402.77112 C755.544807,2402.37626 755.224728,2402.05539 754.829476,2402.05539 L752.565579,2402.05539 L752.565579,2399.40772 C752.565579,2399.01246 752.245104,2398.69238 751.850247,2398.69238 C751.455391,2398.69238 751.134916,2399.01246 751.134916,2399.40772 L751.134916,2399.58259 L745.580415,2399.58259 L745.580415,2394.70821 L751.134916,2394.70821 L751.134916,2396.91039 C751.134916,2397.30524 751.455391,2397.62611 751.850247,2397.62611 C752.245104,2397.62611 752.565579,2397.30524 752.565579,2396.91039 L752.565579,2394.70821 L758.120475,2394.70821 L758.120475,2396.7458 L756.603956,2398.26231 C756.324629,2398.54164 756.324629,2398.99466 756.603956,2399.27399 C756.74362,2399.41405 756.926409,2399.48368 757.109594,2399.48368 C757.292779,2399.48368 757.475964,2399.41365 757.615232,2399.27399 L759.340257,2397.54896 C759.373887,2397.51573 759.403561,2397.47854 759.430465,2397.43897 C759.441543,2397.42196 759.449456,2397.40376 759.459347,2397.38595 C759.472008,2397.36261 759.48546,2397.34045 759.496142,2397.31592 C759.506034,2397.29139 759.511968,2397.26686 759.51909,2397.24154 C759.52542,2397.22176 759.532938,2397.20277 759.536894,2397.18259 C759.545994,2397.1363 759.550742,2397.08922 759.550742,2397.04214 L759.550742,2393.99288 C759.550742,2393.59763 759.230663,2393.27676 758.83541,2393.27676 Z" id="Shape"></path>
        </g>
    </g>
</svg>