<?xml version="1.0" encoding="UTF-8"?>
<svg width="21px" height="21px" viewBox="0 0 21 21" version="1.1" xmlns="http://www.w3.org/2000/svg" xmlns:xlink="http://www.w3.org/1999/xlink">
    <!-- Generator: Sketch 54.1 (76490) - https://sketchapp.com -->
    <title>Shape</title>
    <desc>Created with Sketch.</desc>
    <g id="Grid-Pages" stroke="none" stroke-width="1" fill="none" fill-rule="evenodd">
        <g id="1440-Home" transform="translate(-396.000000, -2215.000000)" fill="#000000" fill-rule="nonzero">
            <g id="Services" transform="translate(40.000000, 1796.000000)">
                <g id="Group-4">
                    <path d="M376.780693,427.660284 C376.640286,427.519876 376.450248,427.440977 376.251727,427.440977 L375.604412,427.440977 C375.0992,425.055751 373.684947,423.006908 371.734941,421.677494 L374.146467,421.677494 C374.365774,421.947703 374.696219,422.124167 375.070355,422.124167 C375.729124,422.124167 376.264877,421.588414 376.264877,420.929645 C376.264877,420.270876 375.7287,419.735123 375.070355,419.735123 C374.696219,419.735123 374.365774,419.911586 374.146467,420.181796 L368.430069,420.181796 L368.430069,419.748273 C368.430069,419.549752 368.35117,419.35929 368.210762,419.219307 C368.070355,419.0789 367.880318,419 367.681796,419 L365.318628,419.000424 C364.905466,419.000424 364.570779,419.335535 364.570779,419.748273 L364.570779,420.181796 L358.720761,420.181796 C358.501454,419.911586 358.17101,419.735123 357.796873,419.735123 C357.138104,419.735123 356.602351,420.270876 356.602351,420.929645 C356.602351,421.588414 357.138104,422.124167 357.796873,422.124167 C358.17101,422.124167 358.501454,421.947703 358.720761,421.677494 L361.257848,421.677494 C359.310811,423.008605 357.896558,425.057023 357.391771,427.440977 L356.747849,427.440977 C356.334687,427.440977 356,427.775664 356,428.188826 L356,430.55157 C356,430.750091 356.0789,430.940128 356.219307,431.080536 C356.359714,431.220943 356.549752,431.299842 356.748273,431.299842 L357.392619,431.299842 C358.152769,434.888923 360.981699,437.71149 364.571203,438.47164 L364.571203,439.121925 C364.571203,439.535087 364.90589,439.870198 365.319052,439.870198 L367.680948,439.870198 C368.09411,439.870198 368.428797,439.535511 368.429221,439.122349 L368.429645,438.477154 C372.018725,437.717004 374.844685,434.888923 375.604836,431.298994 L376.251303,431.298994 C376.664465,431.298994 376.999576,430.963883 376.999576,430.550721 L377,428.188401 C377,427.990728 376.9211,427.800267 376.780693,427.660284 Z M375.503878,428.937099 L375.503878,429.803721 L374.637256,429.803721 L374.637256,428.937099 L375.503878,428.937099 Z M366.066901,420.496122 L366.933523,420.496122 L366.933099,421.362744 L366.066901,421.362744 L366.066901,420.496122 Z M357.496122,428.937099 L358.363168,428.937099 L358.363168,429.803721 L357.496122,429.803721 L357.496122,428.937099 Z M366.933099,438.374076 L366.066901,438.374076 L366.066901,437.507454 L366.933523,437.507454 L366.933099,438.374076 Z M368.210762,436.230639 C368.070355,436.090231 367.880318,436.011332 367.681796,436.011332 L365.318628,436.011756 C364.905466,436.011756 364.570779,436.346867 364.570779,436.760029 L364.570779,436.944128 C363.829293,436.755363 363.130227,436.462247 362.490122,436.07793 L362.490547,430.144346 C363.871288,429.482184 364.777785,428.13156 364.983517,426.438189 L365.752151,426.438189 L365.752151,430.121016 C364.840141,430.432796 364.181372,431.296449 364.180524,432.313235 C364.181372,433.590898 365.222337,434.63059 366.499576,434.63059 C367.778512,434.63059 368.818628,433.590474 368.818628,432.312386 C368.818628,431.296025 368.159859,430.432796 367.248273,430.120591 L367.248273,426.438189 L368.016059,426.438189 C368.221367,428.131136 369.128287,429.48176 370.509029,430.143922 L370.509029,436.080899 C369.869773,436.463944 369.169858,436.753666 368.430069,436.942007 L368.430069,436.760029 C368.430069,436.561508 368.35117,436.371046 368.210762,436.230639 Z M366.500848,431.490728 C366.953884,431.490728 367.322931,431.858926 367.322931,432.312386 C367.322931,432.765847 366.95346,433.134044 366.5,433.134044 C366.04654,433.134044 365.677494,432.764998 365.676645,432.312811 C365.677494,431.85935 366.046964,431.490728 366.500848,431.490728 Z M372.005575,434.917768 L372.005575,429.639559 C372.005575,429.316749 371.79857,429.030421 371.492304,428.929463 C370.224821,428.510362 369.468064,427.299297 369.468064,425.689916 C369.468064,425.276754 369.132954,424.942068 368.719792,424.942068 L364.280633,424.942068 C363.867471,424.942068 363.532784,425.276754 363.532784,425.689916 C363.53236,427.299721 362.775179,428.511211 361.50812,428.930736 C361.201854,429.032117 360.995273,429.318446 360.995273,429.640831 L360.994849,434.914374 C360.007757,433.933644 359.283238,432.690765 358.929039,431.299842 L359.111865,431.299842 C359.525027,431.299842 359.859714,430.964732 359.859714,430.55157 L359.859714,428.18925 C359.859714,427.776088 359.525027,427.441401 359.111865,427.441401 L358.928615,427.441401 C359.632772,424.677797 361.809296,422.502969 364.571628,421.797964 L364.571628,422.111017 C364.571628,422.524179 364.906314,422.858866 365.319476,422.858866 L367.681372,422.858866 C368.094534,422.858866 368.429221,422.524179 368.429645,422.111017 L368.429645,421.795843 C371.193673,422.5 373.368925,424.677372 374.073506,427.441401 L373.889407,427.441401 C373.476245,427.441401 373.141134,427.776088 373.141134,428.18925 L373.141134,430.551994 C373.141134,430.750515 373.220458,430.940553 373.360441,431.08096 C373.500848,431.221367 373.690886,431.300267 373.889407,431.300267 L374.074355,431.300267 C373.719307,432.691613 372.995213,433.93619 372.005575,434.917768 Z" id="Shape"></path>
                </g>
            </g>
        </g>
    </g>
</svg>