<?xml version="1.0" encoding="UTF-8"?>
<svg width="20px" height="21px" viewBox="0 0 20 21" version="1.1" xmlns="http://www.w3.org/2000/svg" xmlns:xlink="http://www.w3.org/1999/xlink">
    <!-- Generator: Sketch 54.1 (76490) - https://sketchapp.com -->
    <title>Shape</title>
    <desc>Created with Sketch.</desc>
    <g id="Grid-Pages" stroke="none" stroke-width="1" fill="none" fill-rule="evenodd">
        <g id="1440-Home" transform="translate(-395.000000, -2388.000000)" fill="#000000" fill-rule="nonzero">
            <path d="M414.832,2392.9455 L411.832,2388.4455 C411.6465,2388.167 411.3345,2388 411,2388 L399,2388 C398.6655,2388 398.3535,2388.167 398.168,2388.4455 L395.168,2392.9455 C395.0585,2393.1095 395,2393.3025 395,2393.5 L395,2407.5 C395,2408.052 395.448,2408.5 396,2408.5 L414,2408.5 C414.552,2408.5 415,2408.052 415,2407.5 L415,2393.5 C415,2393.3025 414.9415,2393.1095 414.832,2392.9455 Z M406,2390 L410.465,2390 L412.1315,2392.5 L406,2392.5 L406,2390 Z M399.5355,2390 L404.0005,2390 L404.0005,2392.5 L397.8685,2392.5 L399.5355,2390 Z M413,2406.5 L397,2406.5 L397,2394.5 L413,2394.5 L413,2406.5 Z M407,2399 L399,2399 L399,2401 L407,2401 L407,2399 Z M404,2402.5 L399,2402.5 L399,2404.5 L404,2404.5 L404,2402.5 Z" id="Shape"></path>
        </g>
    </g>
</svg>