<svg xmlns="http://www.w3.org/2000/svg" width="14.75" height="14.844" viewBox="0 0 14.75 14.844">
  <metadata><?xpacket begin="﻿" id="W5M0MpCehiHzreSzNTczkc9d"?>
<x:xmpmeta xmlns:x="adobe:ns:meta/" x:xmptk="Adobe XMP Core 5.6-c138 79.159824, 2016/09/14-01:09:01        ">
   <rdf:RDF xmlns:rdf="http://www.w3.org/1999/02/22-rdf-syntax-ns#">
      <rdf:Description rdf:about=""/>
   </rdf:RDF>
</x:xmpmeta>
                                                                                                    
                                                                                                    
                                                                                                    
                                                                                                    
                                                                                                    
                                                                                                    
                                                                                                    
                                                                                                    
                                                                                                    
                                                                                                    
                                                                                                    
                                                                                                    
                                                                                                    
                                                                                                    
                                                                                                    
                                                                                                    
                                                                                                    
                                                                                                    
                                                                                                    
                                                                                                    
                           
<?xpacket end="w"?></metadata>
<defs>
    <style>
      .cls-1 {
        fill: #fff;
        fill-rule: evenodd;
      }
    </style>
  </defs>
  <path class="cls-1" d="M3217.13,119.07a1.473,1.473,0,0,0-2.09,0l-4.85,4.9-4.85-4.9a1.473,1.473,0,0,0-2.09,0,1.507,1.507,0,0,0,0,2.1l4.86,4.9-4.86,4.9a1.507,1.507,0,0,0,0,2.1,1.473,1.473,0,0,0,2.09,0l4.85-4.9,4.85,4.9a1.473,1.473,0,0,0,2.09,0,1.507,1.507,0,0,0,0-2.1l-4.85-4.9,4.85-4.9A1.507,1.507,0,0,0,3217.13,119.07Z" transform="translate(-3202.84 -118.656)"/>
</svg>
