<?xml version="1.0" encoding="UTF-8"?>
<svg width="50px" height="36px" viewBox="0 0 50 36" version="1.1" xmlns="http://www.w3.org/2000/svg" xmlns:xlink="http://www.w3.org/1999/xlink">
    <!-- Generator: Sketch 54.1 (76490) - https://sketchapp.com -->
    <title>Group 7</title>
    <desc>Created with Sketch.</desc>
    <defs>
        <polygon id="path-1" points="9.23705556e-14 1.8096284e-05 49.9359363 1.8096284e-05 49.9359363 35.9790064 9.23705556e-14 35.9790064"></polygon>
    </defs>
    <g id="Grid-detail" stroke="none" stroke-width="1" fill="none" fill-rule="evenodd">
        <g id="Walgreens---1440" transform="translate(-695.000000, -21580.000000)">
            <g id="Group-6" transform="translate(695.000000, 21580.000000)">
                <g id="Group-7" transform="translate(0.000019, 0.020994)">
                    <mask id="mask-2" fill="white">
                        <use xlink:href="#path-1"></use>
                    </mask>
                    <g id="Clip-4"></g>
                    <path d="M36.9844114,29.4484674 C37.0736211,29.7690425 37.3667792,29.9790064 37.6858918,29.9790064 C37.7504235,29.9790064 37.8153807,29.9704221 37.8803378,29.9525498 C38.2685206,29.8461606 38.4961543,29.4480453 38.3883651,29.0635804 L35.0766852,17.1803516 L39.4675331,1.42489176 L45.2714117,1.42489176 C45.6737773,1.42489176 45.9999813,1.10108004 45.9999813,0.702120352 C45.9999813,0.302879213 45.6737773,-0.0209325108 45.2714117,-0.0209325108 L38.9131281,-0.0209325108 C38.5852221,-0.0209325108 38.2984463,0.196067784 38.2109385,0.509465745 L34.3210265,14.468833 L30.430689,0.509465745 C30.3234672,0.124156532 29.9206761,-0.101287354 29.5347626,0.00552407505 C29.1465798,0.111913325 28.9189461,0.510028651 29.0267353,0.894493506 L36.9844114,29.4484674 Z" id="Fill-1" fill="#EF5054" mask="url(#mask-2)"></path>
                    <path d="M49.4063998,0.02639475 C49.022692,-0.0799243162 48.62522,0.144480353 48.5191807,0.528153505 L39.0891245,34.5398889 L36.7766245,34.5398889 L27.3467088,0.528153505 C27.260192,0.21606012 26.9760627,0.000200197449 26.6513436,0.000200197449 L23.2844897,0.000200197449 C23.0590684,0.000200197449 22.8467088,0.105118485 22.7104729,0.283997863 C22.5738155,0.463017318 22.5291526,0.694846112 22.589265,0.911266345 L31.91272,34.5398889 L30.0427762,34.5398889 L20.61272,0.528153505 C20.6113155,0.52269047 20.6083661,0.518067902 20.6068212,0.512744945 C20.5985347,0.485429769 20.5872987,0.459375295 20.5759223,0.43332082 C20.5680571,0.415250781 20.5611751,0.396760509 20.551765,0.379530937 C20.5399672,0.357538719 20.5255009,0.33750759 20.511456,0.316776073 C20.498956,0.298565956 20.4875796,0.279935606 20.4736751,0.26298619 C20.4585066,0.244776073 20.4409504,0.228667124 20.423956,0.211857785 C20.4080852,0.196028991 20.3929167,0.179639886 20.3756414,0.165351948 C20.3579448,0.150783855 20.3382818,0.138737162 20.3188998,0.125709925 C20.2990964,0.112402532 20.2798549,0.0986749056 20.2587875,0.0873286021 C20.2409504,0.0778033103 20.2217088,0.0705192636 20.2027481,0.06239475 C20.1773268,0.0513286021 20.1519054,0.0404025321 20.1253605,0.0324180963 C20.1197425,0.0307371624 20.1152481,0.027935606 20.1096302,0.02639475 C20.0958661,0.022472571 20.0821021,0.0221924153 20.0681976,0.0192507811 C20.0410908,0.0133675126 20.0144054,0.0079044776 19.986456,0.00524299901 C19.9632818,0.00300175387 19.940529,0.00314183169 19.9174953,0.00314183169 C19.8944616,0.00314183169 19.8715684,0.00300175387 19.8483942,0.00524299901 C19.8201639,0.0079044776 19.7929167,0.0135075904 19.7656695,0.0195309367 C19.7521863,0.0223324932 19.7388436,0.0226126488 19.7255009,0.02639475 C19.7201639,0.0277955282 19.7156695,0.0305970846 19.7104729,0.0321379406 C19.6826639,0.0405426099 19.6561189,0.0518889134 19.6294335,0.0635153725 C19.6118773,0.0712196527 19.5937594,0.0779433881 19.5771863,0.0867682908 C19.554574,0.0989550613 19.5337875,0.113663232 19.5125796,0.128091248 C19.494883,0.140137941 19.4764841,0.151344166 19.4600515,0.164791637 C19.4416526,0.179920042 19.4255009,0.197429769 19.4085066,0.214379186 C19.3926358,0.23020798 19.3760627,0.245336384 19.3618773,0.262565956 C19.3474111,0.280075684 19.3354729,0.299546501 19.3225515,0.318316929 C19.3090684,0.338488135 19.294883,0.357958952 19.2833661,0.379250781 C19.2740964,0.396760509 19.2669335,0.415530937 19.2589279,0.434021209 C19.247692,0.459935606 19.2365964,0.485569847 19.2283099,0.512744945 C19.226765,0.518067902 19.223956,0.52269047 19.2224111,0.528153505 L15.369883,14.4227527 L11.5176358,0.528153505 C11.411456,0.144480353 11.01272,-0.0799243162 10.6302762,0.02639475 C10.246147,0.132293583 10.0205852,0.528573738 10.1273268,0.911266345 L18.0072425,29.3336165 C18.0955852,29.6528539 18.3857538,29.8617099 18.7019054,29.8617099 C18.7658099,29.8617099 18.8301358,29.8531652 18.8944616,29.8353753 C19.2787313,29.7294765 19.5042931,29.3331963 19.3975515,28.9505037 L16.1181976,17.1217722 L19.9176358,3.41865934 L24.2197425,18.9360601 L19.8931976,34.5398889 L17.5806976,34.5398889 L8.15064139,0.528153505 C8.06426499,0.21606012 7.78013577,0.000200197449 7.45555712,0.000200197449 L4.08856274,0.000200197449 C3.86300094,0.000200197449 3.65078184,0.105118485 3.51454589,0.283997863 C3.37788858,0.463017318 3.33322566,0.694846112 3.39333802,0.911266345 L12.7167931,34.5398889 L10.8468493,34.5398889 L1.41679308,0.528153505 C1.3106133,0.144480353 0.911877347,-0.0799243162 0.529573976,0.02639475 C0.145304313,0.132293583 -0.0802574848,0.528573738 0.0264840882,0.911266345 L9.60260768,35.4510951 C9.68898409,35.7630484 9.9731133,35.9790484 10.297692,35.9790484 L13.6646863,35.9790484 C13.8902481,35.9790484 14.1024672,35.8741302 14.2387032,35.6951107 C14.3753605,35.5162313 14.4200234,35.2842625 14.3599111,35.0678422 L5.036456,1.43921965 L6.90639982,1.43921965 L16.336456,35.4510951 C16.4228324,35.7630484 16.7071021,35.9790484 17.0316807,35.9790484 L20.4422144,35.9790484 C20.7667931,35.9790484 21.0509223,35.7630484 21.1374391,35.4510951 L24.9680571,21.6349395 L28.7983942,35.4510951 C28.8850515,35.7630484 29.1691807,35.9790484 29.4937594,35.9790484 L32.8606133,35.9790484 C33.0861751,35.9790484 33.2985347,35.8741302 33.4346302,35.6951107 C33.5712875,35.5162313 33.6159504,35.2842625 33.555838,35.0678422 L24.232383,1.43921965 L26.1023268,1.43921965 L35.532383,35.4510951 C35.6187594,35.7630484 35.9028886,35.9790484 36.2276077,35.9790484 L39.6381414,35.9790484 C39.9628605,35.9790484 40.2469897,35.7630484 40.3333661,35.4510951 L49.9094897,0.911266345 C50.0162313,0.528573738 49.7906695,0.132293583 49.4063998,0.02639475" id="Fill-3" fill="#EF5054" mask="url(#mask-2)"></path>
                </g>
            </g>
        </g>
    </g>
</svg>