<?xml version="1.0" encoding="utf-8"?>
<!-- Generator: Adobe Illustrator 21.0.0, SVG Export Plug-In . SVG Version: 6.00 Build 0)  -->
<svg version="1.1" id="Layer_1" xmlns="http://www.w3.org/2000/svg" xmlns:xlink="http://www.w3.org/1999/xlink" x="0px" y="0px"
	 viewBox="0 0 14.8 14.8" style="enable-background:new 0 0 14.8 14.8;" xml:space="preserve">
<style type="text/css">
	.st0{fill:#FFFFFF;}
</style>
<path class="st0" d="M14.3,0.4c-0.6-0.6-1.5-0.6-2.1,0c0,0,0,0,0,0L7.3,5.3L2.5,0.4C1.9-0.2,1-0.2,0.4,0.4c0,0,0,0,0,0
	c-0.6,0.6-0.6,1.5,0,2.1l4.9,4.9l-4.9,4.9c-0.6,0.6-0.6,1.5,0,2.1C1,15,1.9,15,2.5,14.4c0,0,0,0,0,0l4.9-4.9l4.9,4.9
	c0.6,0.6,1.5,0.6,2.1,0c0,0,0,0,0,0c0.6-0.6,0.6-1.5,0-2.1L9.4,7.4l4.9-4.9C14.9,1.9,14.9,1,14.3,0.4z"/>
</svg>
