<svg xmlns="http://www.w3.org/2000/svg" viewBox="0 0 64 64"><rect x="3" y="2" fill="#6E788B" width="58" height="41"/><path fill-rule="evenodd" clip-rule="evenodd" fill="#3D4553" d="M59 0H5C1.69 0 0 1.69 0 5v42c0 3.31 1.69 5 5 5h17v8h-2c-1.1 0-2 0.9-2 2s0.9 2 2 2h24c1.1 0 2-0.9 2-2s-0.9-2-2-2h-2v-8h17c3.31 0 5-1.69 5-5V5C64 1.69 62.31 0 59 0zM38 60H26v-8h12V60zM61 49H3c0 0 0-1.79 0-4h58C61 47.21 61 49 61 49zM61 42H3V3h58V42z"/><path fill-rule="evenodd" clip-rule="evenodd" fill="#FFFFFF" d="M11.54 23.84l-3.62-3.67c-0.28-0.28-0.73-0.28-1.01 0 -0.28 0.28-0.28 0.74 0 1.03l3.25 3.29 -3.25 3.29c-0.28 0.28-0.28 0.74 0 1.02 0.28 0.28 0.73 0.28 1.01 0l3.62-3.67c0.06-0.03 0.11-0.06 0.16-0.11 0.15-0.15 0.21-0.34 0.21-0.54 0.01-0.19-0.06-0.39-0.2-0.54C11.65 23.9 11.59 23.87 11.54 23.84zM14 21v2h2v-2H14zM14 28h2v-2h-2V28z"/><g opacity="0.4"><rect x="19" y="20" fill="#CACACA" width="8" height="9"/></g></svg>