<svg xmlns="http://www.w3.org/2000/svg" viewBox="0 0 60 56.12"><path fill-rule="evenodd" clip-rule="evenodd" fill="#3C4452" d="M58 0h-6H8 2C0.9 0 0 0.89 0 1.99c0 1.1 0.9 1.02 2 1.02h2v38c0 2.2 0.79 3 3 3h17l-5 8c-0.61 0.9-0.95 2.95 0.11 3.48 1.06 0.52 1.27 0.43 1.89-0.48l7-11h4.54c0.1 0.36 0.26 0.71 0.46 1l5 9c0.61 0.91 0.94 2.52 2 2 1.06-0.52 1.61-2.1 1-3l-4.5-9H53c2.21 0 3-0.8 3-3v-38h2c1.1 0 2 0.08 2-1.02C60 0.89 59.1 0 58 0zM53 41.01H7v-38h46V41.01z"/><path fill-rule="evenodd" clip-rule="evenodd" fill="#B8EDDB" d="M40.04 15.72c-0.44-0.44-1.16-0.44-1.61 0l-5.87 8.76 -6.53-5.53c-0.24-0.24-0.56-0.33-0.87-0.32 -0.31-0.02-0.63 0.08-0.87 0.32l-5.34 8.52c-0.44 0.44-0.44 1.15 0 1.59s1.16 0.44 1.61 0l4.83-7.7 6.56 5.55c0.23 0.23 0.53 0.33 0.83 0.32 0.3 0.01 0.6-0.1 0.83-0.32l6.43-9.59C40.49 16.87 40.49 16.16 40.04 15.72z"/></svg>