<svg xmlns="http://www.w3.org/2000/svg" viewBox="0 0 74 69.136"><path fill="#B8EDDB" d="M34 11.135c3.035 0 7.082-1.547 11-4l-2-3c-11.721 8.24-18.722-1.588-19-2l-2 3C22.065 5.232 25.509 11.135 34 11.135zM62 6.135c1.557 0.884 3.752 3.149 4 6h4c-0.207-3.607-3.627-8.084-7-10 -4.903-2.786-11.343-2.906-17 0l2 3C52.596 2.774 58.135 3.94 62 6.135z"/><polygon fill="#3C4452" points="62,16.135 62,49.135 42,35.135 42,49.135 21,35.135 21,48.135 0,35.135 0,69.136 74,69.136   74,16.135 "/><path fill-rule="evenodd" clip-rule="evenodd" fill="#B8EDDB" d="M7 63.135h10v-5H7V63.135zM28 63.135h10v-5H28V63.135zM49 58.135v5h10v-5H49z"/></svg>