<svg xmlns="http://www.w3.org/2000/svg" viewBox="0 0 53 77.03"><path fill-rule="evenodd" clip-rule="evenodd" fill="#3C4452" d="M52 39.02c0.51-0.56 0.97-2.15 1-3 0-1.94-1-2.49-2-3 -1.7-0.87-4.95-1.24-7-1 -4.09 0.47-9.65 3.44-13 4v-9h1c7.52-0.15 15.2 1.15 16-7 0.57-5.82-1-10-1-10C46.4 7.56 43.73 0 37.12 0H15.87C9.26 0 6.92 7.56 6 10.02c0 0-1.59 3.98-1 10 0.8 8.15 8.38 6.85 16 7h1v9c-3.35-0.56-8.91-3.53-13-4 -2.05-0.23-5.29 0.13-7 1 -1 0.51-2 1.06-2 3 0.03 0.85 0.49 2.45 1 3 1.91 2.04 5.63 2.42 9 3l2.61 0.2C10.73 44.5 8.21 48.57 7 55.02c-1.9 10.14-2.99 19.92-3 20 -0.16 0.94 0.73 1.83 1.7 1.99 0.1 0.02 0.19 0.02 0.29 0.02 0.85 0 0.87-1.16 1.02-2.01 0.01-0.08 1.11-9.89 3-20 1.39-7.43 4.98-11.24 6.4-12.51L23 43.02c1.77 0.12 5.27 0.09 7 0l6.51-0.5c1.36 1.24 5.03 4.72 6.49 12.5 1.89 10.11 2.99 19.92 3 20 0.14 0.85 0.15 2.01 1 2.01 0.1 0 0.19-0.01 0.29-0.02 0.97-0.15 1.87-1.04 1.71-1.99 -0.01-0.08-1.1-9.86-3-20 -1.21-6.45-3.74-10.52-5.62-12.8L43 42.02C46.37 41.44 50.1 41.06 52 39.02zM21 24.02c-11.02 0-13-0.04-13-5 -0.22-2.23 0.36-5.38 1-8 0 0 1.45-8 7-8h21c3.19 0 6.12 4.4 7 8 0 0 1.48 3.06 1 8 0 4.65-0.99 5-13 5H21z"/><path fill="#B8EDDB" d="M39.94 10.75c-0.04-0.36-0.13-0.68-0.23-0.95 -0.2-0.53-0.44-0.84-0.44-0.84 -0.37-0.72-2.04-2.94-6.15-2.95H19.88c-4.11 0.01-5.57 2.22-6.14 2.95 0 0-0.25 0.29-0.45 0.81 -0.1 0.26-0.19 0.58-0.23 0.94 -0.04 0.36-0.03 0.77 0.06 1.2 0.25 1.2 1.61 1.1 3.48 0.53 0.93-0.27 1.98-0.6 3.08-0.88 0.28-0.07 0.56-0.14 0.84-0.2 0.28-0.06 0.57-0.12 0.85-0.18 0.57-0.11 1.15-0.2 1.73-0.27 2.22-0.28 4.43-0.27 6.66 0.02 0.57 0.07 1.15 0.17 1.73 0.28 0.29 0.06 0.57 0.11 0.86 0.18 0.28 0.06 0.57 0.13 0.85 0.2 1.12 0.28 2.19 0.61 3.14 0.87 1.91 0.56 3.32 0.65 3.57-0.54C39.98 11.52 39.98 11.11 39.94 10.75z"/></svg>