<svg xmlns="http://www.w3.org/2000/svg" viewBox="0 0 78.3 58.75"><path fill="#3C4452" d="M75.11 49.95V37.23v-2.19 -0.69H40.35V18.55c4.39-0.77 7.73-4.6 7.73-9.2 0-5.16-4.19-9.35-9.35-9.35 -5.16 0-9.35 4.19-9.35 9.35 0 4.73 3.53 8.64 8.09 9.26v15.75H3.07v2.88h0v12.75C1.29 50.59 0 52.26 0 54.24c0 2.49 2.02 4.51 4.51 4.51 2.49 0 4.51-2.02 4.51-4.51 0-1.98-1.29-3.65-3.07-4.25V37.23h31.52v12.75c-1.78 0.6-3.07 2.27-3.07 4.25 0 2.49 2.02 4.51 4.51 4.51s4.51-2.02 4.51-4.51c0-1.98-1.29-3.65-3.07-4.25V37.23h31.89v12.79c-1.72 0.64-2.95 2.28-2.95 4.22 0 2.49 2.02 4.51 4.51 4.51s4.51-2.02 4.51-4.51C78.3 52.21 76.95 50.52 75.11 49.95z"/><path fill="#B8EDDB" d="M38.73 2.61c-3.72 0-6.74 3.02-6.74 6.74s3.02 6.74 6.74 6.74c3.72 0 6.74-3.02 6.74-6.74S42.45 2.61 38.73 2.61z"/></svg>