<svg xmlns="http://www.w3.org/2000/svg" viewBox="0 0 40 72"><path fill-rule="evenodd" clip-rule="evenodd" fill="#3C4452" d="M23 8h-6c-0.64 0-1 0.4-1 1s0.36 1 1 1h6c0.64 0 1-0.39 1-1C24 8.39 23.64 8 23 8zM32 0H7C2.23 0 0 2.96 0 8v57c0 4 1.91 7 7 7h26c4 0 7-2.02 7-7V7C40 2.1 36.82 0 32 0zM37 65c0 2.36-1.63 4-4 4H7c-2.33 0-4-1.6-4-4V8c0-2.35 1.63-5 4-5h25c2.41 0 5 1.69 5 4V65zM20 60c-1.66 0-3 1.34-3 3s1.34 3 3 3c1.66 0 3-1.34 3-3S21.66 60 20 60z"/><path fill-rule="evenodd" clip-rule="evenodd" fill="#B8EDDB" d="M13.05 32.17c-0.28-0.28-0.73-0.28-1.01 0l-3.62 3.67c-0.06 0.03-0.11 0.06-0.16 0.11 -0.15 0.15-0.21 0.35-0.2 0.54 -0.01 0.19 0.06 0.39 0.2 0.54 0.05 0.05 0.11 0.08 0.16 0.11l3.62 3.67c0.28 0.28 0.73 0.28 1.01 0s0.28-0.74 0-1.03L9.8 36.49l3.25-3.29C13.33 32.92 13.33 32.45 13.05 32.17zM31.7 35.95c-0.05-0.05-0.1-0.08-0.16-0.11l-3.62-3.67c-0.28-0.28-0.73-0.28-1.01 0 -0.28 0.28-0.28 0.74 0 1.03l3.25 3.29 -3.25 3.29c-0.28 0.28-0.28 0.74 0 1.03 0.28 0.28 0.73 0.28 1.01 0l3.63-3.67c0.06-0.03 0.11-0.06 0.16-0.11 0.15-0.15 0.21-0.35 0.2-0.54C31.91 36.3 31.85 36.1 31.7 35.95zM23.71 29.52c-0.24-0.14-0.55-0.06-0.68 0.19l-6.95 13.1c-0.14 0.24-0.06 0.55 0.18 0.69 0.24 0.14 0.54 0.06 0.68-0.18l6.96-13.09C24.03 29.96 23.95 29.65 23.71 29.52z"/></svg>