<svg xmlns="http://www.w3.org/2000/svg" viewBox="0 0 76 49"><polygon fill="#C4C7CB" points="16,27 14,31 26,31 30,27   "/><rect x="3" y="21" fill="#B8EDDB" width="47" height="3"/><rect x="56" y="12" fill="#B8EDDB" width="16" height="3"/><path fill="#3C4452" d="M28 8H14v2h14V8zM25 15v-2h-8v2H25zM28 18H14v2h14V18zM72 10H56c-1.57-5.684-7.805-9.959-14-10H2C1.251 0 0 1.255 0 2v23c0 0.745 1.251 2 2 2h12L2 46v3h15l15-22h10c0.016 0 1.984 0.001 2 0 6.195-0.041 10.43-3.316 12-9h16l4-3v-2L72 10zM23 35h-3l-2 3h3l-6 8H6l12-19h10L23 35zM41 13h-2v2h2v9H3V3h38V13zM44 24v-4h2c0.748 0 1-0.256 1-1 0-0.745-0.254-1-1-1h-2v-3h2c0.748 0 1-0.255 1-1s-0.254-1-1-1h-2v-3h2c0.748 0 1-0.255 1-1s-0.254-1-1-1h-2V3c5.321 0.688 9.006 5.509 9.006 10.987S49.321 23.313 44 24zM72 15H56c0.026-0.409 0.026-1.609 0-2h16V15z"/></svg>