<svg xmlns="http://www.w3.org/2000/svg" viewBox="0 0 55 56"><rect x="2" y="14" fill="#B8EDDB" width="50" height="2"/><path fill-rule="evenodd" clip-rule="evenodd" fill="#3C4452" d="M54 0H2C0.97 0 0 0.97 0 2v52c0 1.032 0.97 2 2 2h51c1.031 0 2-0.968 2-2V2C55 0.97 55.031 0 54 0zM52 51v2H3v-2V19h49V51zM52 16H3V3h49V16zM11 11V7L6.966 6.967 7 11H11zM18 7h-4v4h4V7zM25 7h-4v4h4V7z"/><path fill-rule="evenodd" clip-rule="evenodd" fill="#B8EDDB" d="M31.471 35.871c0-0.139-0.024-0.284-0.06-0.43C31.458 34.813 31.363 34.214 31 34c-0.276-0.163-0.623-0.132-0.967 0.005C30.021 34.005 30.012 34 30 34h-4.632l4.43-7.851c0.408-0.722 0.166-1.646-0.541-2.062 -0.705-0.417-1.608-0.17-2.014 0.554l-5.902 10.456c-0.085 0.15-0.129 0.303-0.151 0.453 -0.001 0.005-0.001 0.01-0.003 0.015 -0.004 0.031-0.012 0.061-0.013 0.091 -0.014 0.072-0.031 0.145-0.031 0.214 0 0.309 0.145 0.543 0.369 0.717C21.645 36.746 21.808 36.887 22 37c0.545 0.321 1.134 0.339 1.563 0h4.146L25 42c0 0-2.705 5.583-2 6 0.259 0.096 8-11 8-11 0.056-0.098 0.108-0.22 0.157-0.354C31.351 36.468 31.471 36.218 31.471 35.871z"/></svg>