<svg xmlns="http://www.w3.org/2000/svg" viewBox="0 0 106.395 97.205"><path fill="#C5E2DB" d="M87.617 54.009c-0.09-0.365-9.035-35.166-43.675-47.756l4.657 7.461 -3.054 1.906L35.794 0l4.502 1.289c40.54 11.608 50.719 51.463 50.816 51.864L87.617 54.009z"/><path fill="#3C4452" d="M9.465 97.205C4.246 97.205 0 92.959 0 87.74c0-5.22 4.246-9.466 9.465-9.466s9.465 4.246 9.465 9.466C18.931 92.959 14.685 97.205 9.465 97.205zM9.465 81.154c-3.631 0-6.585 2.954-6.585 6.586 0 3.631 2.954 6.584 6.585 6.584s6.585-2.953 6.585-6.584C16.051 84.108 13.097 81.154 9.465 81.154zM48.365 97.205c-5.219 0-9.465-4.246-9.465-9.465 0-5.22 4.246-9.466 9.465-9.466s9.466 4.246 9.466 9.466C57.831 92.959 53.584 97.205 48.365 97.205zM48.365 81.154c-3.631 0-6.585 2.954-6.585 6.586 0 3.631 2.954 6.584 6.585 6.584s6.585-2.953 6.585-6.584C54.95 84.108 51.996 81.154 48.365 81.154zM92.225 77.592c-5.219 0-9.466-4.246-9.466-9.464 0-5.22 4.247-9.466 9.466-9.466s9.466 4.246 9.466 9.466C101.691 73.347 97.444 77.592 92.225 77.592zM92.225 61.542c-3.631 0-6.585 2.955-6.585 6.586 0 3.631 2.954 6.584 6.585 6.584s6.585-2.954 6.585-6.584C98.81 64.497 95.856 61.542 92.225 61.542z"/><polygon fill="#3C4452" points="17.267,38.826 15.182,38.826 10.147,43.861 5.083,38.797 3.095,38.797 3.095,40.882 8.111,45.897   3.066,50.942 3.066,52.969 5.111,52.969 10.147,47.934 15.211,52.998 17.238,52.998 17.238,50.953 12.183,45.897 17.267,40.814 "/><polygon fill="#3C4452" points="54.442,38.826 52.358,38.826 47.323,43.861 42.258,38.797 40.271,38.797 40.271,40.882   45.287,45.897 40.242,50.942 40.242,52.969 42.287,52.969 47.323,47.934 52.387,52.998 54.414,52.998 54.414,50.953 49.359,45.897   54.442,40.814 "/><polygon fill="#3C4452" points="106.394,12.369 104.31,12.369 99.275,17.404 94.21,12.34 92.223,12.34 92.223,14.424 97.24,19.44   92.195,24.485 92.195,26.512 94.24,26.512 99.275,21.476 104.339,26.541 106.367,26.541 106.367,24.495 101.312,19.44   106.394,14.356 "/></svg>