<svg xmlns="http://www.w3.org/2000/svg" viewBox="0 0 83 70"><path fill="#F2F2F2" d="M73.38 12h-15c-4.42 0-8 3.58-8 8v41c0 4.42 3.58 8 8 8h15c4.42 0 8-3.58 8-8V20C81.38 15.58 77.79 12 73.38 12z"/><g opacity="0.3"><rect x="26" y="52" fill="#3C4452" width="12" height="3"/></g><path fill="#B8EDDB" d="M51 20c0-0.69 0.1-1.36 0.26-2H37v3h14V20zM55.13 13H37v3h15.08C52.81 14.75 53.86 13.7 55.13 13z"/><rect x="37" y="8" fill="#B8EDDB" width="20" height="3"/><rect x="7" y="23" fill="#B8EDDB" width="44" height="9"/><rect x="30" y="34" fill="#B8EDDB" width="20" height="3"/><rect x="7" y="34" fill="#B8EDDB" width="20" height="3"/><rect x="7" y="8" fill="#B8EDDB" width="27" height="13"/><path fill="#3C4452" d="M64 21h3c0.64 0 1-0.39 1-1 0-0.61-0.36-1-1-1h-3c-0.64 0-1 0.4-1 1S63.36 21 64 21zM75 11H64V5c0-3.31-1.69-5-5-5H5C1.69 0 0 1.69 0 5v42c0 3.31 1.69 5 5 5h17v8h-2c-1.1 0-2 0.9-2 2s0.9 2 2 2h24c1.1 0 2-0.9 2-2s-0.9-2-2-2h-2v-8h7v11c0 4 1.91 7 7 7h20c4 0 7-2.02 7-7V18C83 13.1 79.82 11 75 11zM38 60H26v-8h12V60zM49 49H3c0 0 0-1.79 0-4h46V49zM49 19v23H3V3h58v8h-5C51.23 11 49 13.96 49 19zM80 63c0 2.36-1.63 4-4 4H56c-2.33 0-4-1.6-4-4V19c0-2.35 1.63-5 4-5h19c2.41 0 5 1.69 5 4V63z"/><circle fill="#3C4452" cx="66" cy="61" r="3"/><path fill="#B8EDDB" d="M54 24v6h24v-6H54zM54 56h24v-9H54V56zM66 32H54v13h12V32zM68 35h10v-3H68V35zM68 40h10v-3H68V40zM68 45h10v-3H68V45z"/></svg>