<svg xmlns="http://www.w3.org/2000/svg" viewBox="0 0 48 41.938"><polygon fill="#B8EDDB" points="39.117,27.985 38.005,29.943 44.883,35.016 45.995,33.057  "/><path fill-rule="evenodd" clip-rule="evenodd" fill="#3C4452" d="M46.5 15.059L39 19.726v-4.667c0-1.647-1.342-2.986-3-2.986h-3.948L20.288 0.323c-0.202-0.113-0.419-0.172-0.637-0.189C19.429 0.049 19.204 0 19 0H5C4.174 0 3 0.793 3 1.619 3 2.444 4.174 3 5 3h14l12 12h0.071c0.277 0.075 0.564 0.074 0.833 0H36v24H3V15h17v-2.928H3c-1.655 0-3 1.339-3 2.986v23.894c0 1.651 1.345 2.986 3 2.986h33c1.658 0 3-1.335 3-2.986v-4.667l7.5 4.667c0.829 0 1.5-0.668 1.5-1.493V16.552C48 15.727 47.329 15.059 46.5 15.059zM45 34.473L39 31v-8l6-3.458V34.473z"/><path fill="#B8EDDB" d="M28.5 29.992h-18c-0.826 0-1.5 0.668-1.5 1.493 0 0.826 0.674 1.493 1.5 1.493h18c0.829 0 1.5-0.667 1.5-1.493C30 30.66 29.329 29.992 28.5 29.992z"/></svg>