<svg xmlns="http://www.w3.org/2000/svg" width="10" height="16" viewBox="0 0 10 16">
  <metadata><?xpacket begin="﻿" id="W5M0MpCehiHzreSzNTczkc9d"?>
<x:xmpmeta xmlns:x="adobe:ns:meta/" x:xmptk="Adobe XMP Core 5.6-c138 79.159824, 2016/09/14-01:09:01        ">
   <rdf:RDF xmlns:rdf="http://www.w3.org/1999/02/22-rdf-syntax-ns#">
      <rdf:Description rdf:about=""/>
   </rdf:RDF>
</x:xmpmeta>
                                                                                                    
                                                                                                    
                                                                                                    
                                                                                                    
                                                                                                    
                                                                                                    
                                                                                                    
                                                                                                    
                                                                                                    
                                                                                                    
                                                                                                    
                                                                                                    
                                                                                                    
                                                                                                    
                                                                                                    
                                                                                                    
                                                                                                    
                                                                                                    
                                                                                                    
                                                                                                    
                           
<?xpacket end="w"?></metadata>
<defs>
    <style>
      .cls-1 {
        fill: #4ba9f4;
        fill-rule: evenodd;
      }
    </style>
  </defs>
  <path class="cls-1" d="M898.651,6428.22l0.358,0.27,0.359-.27c0.189-.14,4.644-3.51,4.644-7.88a5.013,5.013,0,1,0-10,0C894.007,6424.71,898.461,6428.08,898.651,6428.22Zm0.358-11.88a3.89,3.89,0,0,1,3.752,4c0,3.02-2.75,5.64-3.752,6.49-1-.85-3.751-3.47-3.751-6.49A3.89,3.89,0,0,1,899.009,6416.34Zm3.057,10.79a1.142,1.142,0,0,1,.382.77c0,0.84-1.412,1.77-3.439,1.77s-3.439-.93-3.439-1.77a1.143,1.143,0,0,1,.383-0.77l-0.854-.97a2.431,2.431,0,0,0-.779,1.74c0,1.74,2.06,3.11,4.689,3.11s4.69-1.37,4.69-3.11a2.431,2.431,0,0,0-.779-1.74Zm-1.181-6.79a1.879,1.879,0,1,0-1.876,2A1.945,1.945,0,0,0,900.885,6420.34Zm-2.5,0a0.627,0.627,0,1,1,.625.67A0.649,0.649,0,0,1,898.384,6420.34Z" transform="translate(-894 -6415)"/>
</svg>
