<svg xmlns="http://www.w3.org/2000/svg" width="9.031" height="16" viewBox="0 0 9.031 16">
  <metadata><?xpacket begin="﻿" id="W5M0MpCehiHzreSzNTczkc9d"?>
<x:xmpmeta xmlns:x="adobe:ns:meta/" x:xmptk="Adobe XMP Core 5.6-c138 79.159824, 2016/09/14-01:09:01        ">
   <rdf:RDF xmlns:rdf="http://www.w3.org/1999/02/22-rdf-syntax-ns#">
      <rdf:Description rdf:about=""/>
   </rdf:RDF>
</x:xmpmeta>
                                                                                                    
                                                                                                    
                                                                                                    
                                                                                                    
                                                                                                    
                                                                                                    
                                                                                                    
                                                                                                    
                                                                                                    
                                                                                                    
                                                                                                    
                                                                                                    
                                                                                                    
                                                                                                    
                                                                                                    
                                                                                                    
                                                                                                    
                                                                                                    
                                                                                                    
                                                                                                    
                           
<?xpacket end="w"?></metadata>
<defs>
    <style>
      .cls-1 {
        fill: #4ba9f4;
        fill-rule: evenodd;
      }
    </style>
  </defs>
  <path class="cls-1" d="M895.615,6452.99a1.713,1.713,0,0,0-1.61,1.78v12.44a1.707,1.707,0,0,0,1.61,1.78h5.8a1.707,1.707,0,0,0,1.61-1.78v-12.44a1.713,1.713,0,0,0-1.61-1.78h-5.8Zm0,1.07h5.8a0.669,0.669,0,0,1,.644.71h-7.085A0.669,0.669,0,0,1,895.615,6454.06Zm-0.644,1.78h7.085v9.95h-7.085v-9.95Zm0,11.02h7.085v0.35a0.663,0.663,0,0,1-.644.71h-5.8a0.663,0.663,0,0,1-.644-0.71v-0.35Z" transform="translate(-894 -6453)"/>
</svg>
