<svg xmlns="http://www.w3.org/2000/svg" viewBox="0 0 64 64"><path fill="#BEC7D6" d="M59 0H5C1.687 0 0 1.687 0 5v42c0 3.314 1.687 5 5 5h17v8h-2c-1.104 0-2 0.896-2 2s0.896 2 2 2h24c1.104 0 2-0.896 2-2s-0.896-2-2-2h-2v-8h17c3.314 0 5-1.686 5-5V5C64 1.687 62.314 0 59 0zM38 60H26v-8h12V60zM61 49H3c0 0 0-1.791 0-4h58C61 47.209 61 49 61 49zM61 42H3V3h58V42z"/><path fill="#FFFFFF" d="M11.537 23.842l-3.623-3.669c-0.279-0.284-0.732-0.284-1.013 0 -0.279 0.282-0.279 0.743 0 1.026l3.251 3.292 -3.251 3.293c-0.279 0.283-0.279 0.742 0 1.025 0.28 0.283 0.733 0.283 1.013 0l3.624-3.67c0.056-0.032 0.113-0.06 0.16-0.108 0.147-0.148 0.212-0.345 0.205-0.54 0.007-0.195-0.058-0.392-0.205-0.54C11.65 23.902 11.593 23.874 11.537 23.842zM14 21v2h2v-2H14zM14 28h2v-2h-2V28z"/><g opacity="0.4"><rect x="19" y="20" fill="#7D8695" width="8" height="9"/></g></svg>