<svg xmlns="http://www.w3.org/2000/svg" viewBox="0 0 64.02 68.43"><path fill="#B8EDDB" d="M36.484 56.3c0-0.139-0.023-0.284-0.06-0.43 0.047-0.628-0.048-1.228-0.411-1.441 -0.275-0.163-0.622-0.132-0.967 0.005 -0.012 0-0.021-0.005-0.033-0.005h-4.632l4.431-7.851c0.407-0.723 0.165-1.646-0.541-2.063 -0.705-0.417-1.606-0.17-2.014 0.554l-5.902 10.456c-0.085 0.15-0.129 0.303-0.15 0.453 -0.001 0.005-0.001 0.012-0.003 0.017 -0.005 0.029-0.013 0.061-0.014 0.09 -0.014 0.072-0.03 0.145-0.03 0.214 0 0.309 0.145 0.544 0.368 0.718 0.133 0.157 0.296 0.298 0.488 0.411 0.545 0.321 1.134 0.339 1.563 0h4.145l-2.708 5c0 0-2.705 5.583-2 6 0.259 0.096 8-11 8-11 0.056-0.098 0.108-0.22 0.157-0.353C36.364 56.897 36.484 56.648 36.484 56.3z"/><path fill="#FFFFFF" d="M20.108 49.75c-0.138-0.118-0.334-0.134-0.539-0.09 -0.006-0.001-0.009-0.007-0.015-0.008l-2.563-0.448 3.213-3.915c0.296-0.359 0.251-0.896-0.1-1.192 -0.35-0.3-0.874-0.25-1.168 0.11l-4.279 5.215c-0.084 0.103-0.127 0.214-0.147 0.327 -0.009 0.026-0.033 0.054-0.038 0.081 -0.03 0.174 0.029 0.318 0.14 0.438 0.059 0.099 0.133 0.189 0.226 0.271 0.27 0.229 0.592 0.295 0.861 0.149l2.298 0.403 -1.984 2.504c0 0-2.038 2.828-1.688 3.127 0.134 0.078 5.493-5.312 5.493-5.312 0.044-0.055 0.09-0.126 0.135-0.205 0.113-0.081 0.205-0.193 0.235-0.375 0.013-0.066 0.001-0.141-0.001-0.211C20.282 50.265 20.295 49.908 20.108 49.75z"/><path fill="#FFFFFF" d="M46.323 53.268l-1.953-2.541 2.263-0.409c0.266 0.146 0.582 0.08 0.848-0.152 0.093-0.081 0.164-0.174 0.223-0.273 0.107-0.121 0.168-0.269 0.138-0.444 -0.005-0.028-0.029-0.056-0.038-0.083 -0.02-0.115-0.061-0.229-0.145-0.333l-4.215-5.29c-0.291-0.366-0.807-0.416-1.149-0.112 -0.346 0.303-0.39 0.845-0.099 1.21l3.164 3.972 -2.524 0.457c-0.005 0.001-0.008 0.006-0.014 0.007 -0.201-0.044-0.396-0.028-0.531 0.092 -0.184 0.16-0.17 0.522-0.076 0.883 -0.002 0.073-0.013 0.146-0.001 0.215 0.031 0.185 0.121 0.299 0.232 0.381 0.043 0.079 0.088 0.151 0.132 0.206 0 0 5.276 5.469 5.409 5.39C48.33 56.136 46.323 53.268 46.323 53.268z"/><path fill="#BEC7D7" d="M63.531 34.642l-4.787-5.322c0.516-0.552 0.889-1.271 1.088-2.139 0.374-1.63-0.263-3.274-1.513-4.415 1.175-1.119 1.749-2.604 1.624-4.343 -0.192-2.649-2.536-4.716-5.81-5.509 1.109-4.906-4.692-10.272-13.218-12.224 -3.906-0.894-7.786-0.923-10.93-0.082 -2.488 0.665-4.325 1.832-5.392 3.359 -1.063-0.982-2.488-1.648-4.187-1.921 -2.421-0.389-5.14 0.065-7.655 1.28 -4.831 2.331-7.537 6.686-6.761 10.46 -1.392 0.416-2.664 1.257-3.699 2.488C0.838 18.012 0.023 20.311 0 22.75c-0.023 2.439 0.748 4.753 2.171 6.516 1.461 1.809 3.432 2.826 5.561 2.892 0.357 1.061 1.014 2.063 1.962 2.941 1.545 1.43 3.688 2.371 6.033 2.652 0.5 0.06 0.991 0.089 1.475 0.089 2.646 0 4.985-0.877 6.544-2.33 0.538 1.049 1.321 1.872 2.365 2.442 1.248 0.683 2.842 1.013 4.935 1.013 0.554 0 1.141-0.023 1.766-0.068 2.609-0.188 6.078-1.245 7.996-3.182 0.208-0.175 1.215-1 2.703-1.897 0.224 0.024 0.455 0.005 0.682-0.076 2.555-0.913 9.787 2.863 14.175 5.872 0.357 0.309 0.803 0.461 1.296 0.461 0.839 0 1.82-0.439 2.768-1.287 0.456-0.41 1.523-1.494 1.588-2.721C64.046 35.527 63.873 35.02 63.531 34.642zM60.361 36.486c-0.196 0.179-0.382 0.306-0.522 0.388 -1.706-1.151-6.165-4.003-10.384-5.456 0.548-0.105 1.103-0.184 1.665-0.21 0.854-0.042 1.512-0.769 1.469-1.62 -0.041-0.854-0.773-1.496-1.62-1.468 -6.466 0.315-12.005 5.098-12.236 5.301l-0.095 0.09c-1.104 1.144-3.705 2.134-6.051 2.303 -2.342 0.168-3.974-0.018-4.989-0.571 -0.661-0.361-1.438-1.04-1.587-3.091 -0.024-0.336-0.157-0.637-0.357-0.877 -0.012-0.049-0.025-0.097-0.042-0.145 -0.142-3.066-3.309-5.833-7.696-6.521 -0.841-0.138-1.637 0.443-1.769 1.287 -0.132 0.845 0.445 1.636 1.289 1.768 3.275 0.514 5.307 2.478 5.08 3.92 -0.019 0.119-0.02 0.235-0.012 0.351 -0.616 1.876-3.381 3.111-6.406 2.749 -1.678-0.2-3.245-0.875-4.299-1.851 -0.935-0.864-1.384-1.871-1.269-2.834 0.044-0.359-0.046-0.701-0.222-0.987 0.163-0.305 0.23-0.663 0.157-1.028 -0.159-0.788 0.07-1.621 0.646-2.346 0.638-0.801 1.604-1.367 2.722-1.591 0.837-0.168 1.38-0.983 1.212-1.821 -0.169-0.836-0.983-1.376-1.822-1.211 -1.832 0.369-3.442 1.327-4.533 2.7 -1.152 1.449-1.6 3.184-1.257 4.88 0.034 0.168 0.101 0.32 0.181 0.46 -1.134-0.101-2.201-0.701-3.031-1.73 -0.975-1.204-1.501-2.817-1.484-4.544 0.016-1.723 0.574-3.325 1.57-4.513 0.915-1.09 2.095-1.688 3.325-1.688 0.017 0 0.031-0.001 0.052 0 0.847 0 1.539-0.683 1.546-1.53 0.003-0.276-0.073-0.532-0.198-0.758 -0.024-0.128-0.06-0.256-0.12-0.379 -1.162-2.403 1.05-5.975 4.829-7.797 1.952-0.942 4.021-1.301 5.82-1.014 0.434 0.069 0.832 0.178 1.198 0.316 -0.374 0.123-0.738 0.27-1.084 0.452 -1.642 0.859-2.751 2.266-3.125 3.956 -0.186 0.834 0.343 1.658 1.177 1.843 0.112 0.024 0.225 0.037 0.335 0.037 0.71 0 1.35-0.491 1.509-1.213 0.173-0.785 0.721-1.454 1.541-1.885 0.908-0.477 2.021-0.602 3.132-0.355 0.753 0.17 1.497-0.249 1.771-0.946 0.157-0.183 0.277-0.399 0.335-0.65 0.304-1.331 1.792-2.445 4.081-3.059 2.664-0.712 6.017-0.674 9.438 0.109 7.192 1.645 11.513 5.817 10.893 8.534 -0.024 0.106-0.036 0.214-0.038 0.318 -0.323 0.001-0.649 0.014-0.98 0.037 -0.852 0.063-1.492 0.803-1.431 1.653 0.062 0.854 0.81 1.494 1.654 1.431 3.709-0.273 6.417 1.349 6.534 2.967 0.053 0.729-0.057 1.785-1.608 2.521 -0.207 0.098-0.379 0.236-0.518 0.4 -0.395 0.202-0.702 0.564-0.81 1.029 -0.191 0.832 0.329 1.661 1.162 1.853 1.133 0.26 1.927 1.194 1.73 2.042 -0.048 0.21-0.108 0.367-0.176 0.491l-0.25-0.277c-0.57-0.635-1.547-0.688-2.184-0.116 -0.637 0.571-0.688 1.548-0.116 2.184l6.616 7.357C60.617 36.236 60.503 36.359 60.361 36.486zM36.599 16.644c-2.943 0.592-5.146 2.698-5.737 5.165 -1.436-0.295-3.024-0.294-4.613 0.026 -0.837 0.169-1.38 0.982-1.212 1.821 0.169 0.836 0.978 1.375 1.821 1.211 1.568-0.316 3.16-0.224 4.367 0.251 0.576 0.228 1.57 0.744 1.754 1.665 0.148 0.732 0.795 1.24 1.517 1.24 0.102 0 0.203-0.01 0.307-0.029 0.837-0.168 1.38-0.983 1.212-1.82 -0.254-1.259-1.039-2.36-2.214-3.168 0.065-1.517 1.466-2.939 3.41-3.33 0.838-0.168 1.38-0.983 1.211-1.821C38.252 17.018 37.431 16.483 36.599 16.644zM40.797 6.844c-1.774-0.697-3.943-0.842-6.111-0.406 -0.838 0.169-1.38 0.983-1.212 1.821 0.169 0.837 0.992 1.377 1.821 1.21 1.57-0.316 3.16-0.223 4.368 0.252 0.575 0.228 1.569 0.744 1.755 1.664 0.146 0.734 0.793 1.241 1.514 1.241 0.104 0 0.204-0.01 0.309-0.03 0.837-0.168 1.38-0.983 1.212-1.82C44.104 9.055 42.773 7.623 40.797 6.844z"/></svg>