<svg xmlns="http://www.w3.org/2000/svg" viewBox="0 0 78 73"><path fill="#575F6E" d="M67.33 31c0-4.45-1.21-8.64-3.32-12.37 -0.83-0.6-1.7-1.16-2.61-1.67C63.07 20.35 64 24.08 64 28c0 15.47-14.33 28-32 28 -1.13 0-2.24-0.06-3.34-0.16 1.86 1.26 3.91 2.32 6.11 3.15 0.19 0 0.37 0.02 0.56 0.02C53.01 59 67.33 46.47 67.33 31z"/><path fill="#BEC7D7" d="M57.22 10.77C51.36 4.22 42.25 0 32 0 14.33 0 0 12.54 0 28c0 8.84 4.69 16.72 12 21.85V64l12.51-6.25C30.19 62.25 37.73 65 46 65c1.23 0 2.44-0.07 3.63-0.18L66 73V58.85C73.31 53.72 78 45.84 78 37 78 24.99 69.36 14.75 57.22 10.77zM16 58l-0.01-10.32C8.74 43.35 4 36.15 4 28 4 14.75 16.54 4 32 4s28 10.75 28 24S47.46 52 32 52c-1.21 0-2.41-0.07-3.58-0.2L16 58zM62 56.69V67l-12.43-6.2C48.4 60.93 47.21 61 46 61c-6.55 0-12.57-1.93-17.34-5.16C29.76 55.94 30.87 56 32 56c17.67 0 32-12.53 32-28 0-3.92-0.92-7.65-2.58-11.03C69 21.26 74 28.63 74 37 74 45.15 69.25 52.35 62 56.69z"/><path fill-rule="evenodd" clip-rule="evenodd" fill="#BCE2D6" d="M46 22H18c-1.1 0-2 0.9-2 2 0 1.1 0.9 2 2 2h28c1.1 0 2-0.9 2-2C48 22.9 47.1 22 46 22zM42 34H22c-1.1 0-2 0.9-2 2 0 1.1 0.9 2 2 2h20c1.1 0 2-0.9 2-2C44 34.9 43.1 34 42 34z"/></svg>