<svg xmlns="http://www.w3.org/2000/svg" viewBox="0 0 118.008 43.002"><polygon fill="#636D79" points="28.008,31 10.008,31 10.008,3 2.008,3 2.008,41 10.008,41 10.008,37 28.008,37   "/><path fill="#BEC7D6" d="M114.008 36v-2h-9v-4h-43v-4h-8v-5h-12v5h-2V6h-3V0h-10v29h-14V0h-11v6h-2L0 38.524v0.007L0.008 43l9.876 0.002L12.008 43v-3h14v3h36v-2h43v-4h13v-1H114.008zM9.008 37v3h-6l-0.015-1.469L3.008 9h2V3h5v29h3v3h3v-3h2v3h3v-3h2v3h3v-3h1v5H9.008zM102.008 38h-43v2h-29V3h4v6h3v20h9v-3h-1v-2h6v2h-1v3h9v4h43V38z"/></svg>