<svg xmlns="http://www.w3.org/2000/svg" viewBox="0 0 106.4 97.21"><path fill="#C5E2DB" d="M87.62 54.01c-0.09-0.36-9.03-35.17-43.68-47.76l4.66 7.46 -3.05 1.91L35.79 0l4.5 1.29c40.54 11.61 50.72 51.46 50.82 51.86L87.62 54.01z"/><path fill="#FFFFFF" d="M9.47 97.21C4.25 97.21 0 92.96 0 87.74c0-5.22 4.25-9.47 9.47-9.47s9.47 4.25 9.47 9.47C18.93 92.96 14.69 97.21 9.47 97.21zM9.47 81.15c-3.63 0-6.58 2.96-6.58 6.59 0 3.63 2.95 6.58 6.59 6.58s6.59-2.95 6.59-6.58C16.05 84.11 13.1 81.15 9.47 81.15zM48.37 97.21c-5.22 0-9.47-4.25-9.47-9.46 0-5.22 4.25-9.47 9.47-9.47 5.22 0 9.47 4.25 9.47 9.47C57.83 92.96 53.58 97.21 48.37 97.21zM48.37 81.15c-3.63 0-6.59 2.96-6.59 6.59 0 3.63 2.95 6.58 6.59 6.58 3.63 0 6.59-2.95 6.59-6.58C54.95 84.11 52 81.15 48.37 81.15zM92.23 77.59c-5.22 0-9.47-4.24-9.47-9.46 0-5.22 4.25-9.47 9.47-9.47s9.47 4.25 9.47 9.47C101.69 73.35 97.44 77.59 92.23 77.59zM92.23 61.54c-3.63 0-6.58 2.96-6.58 6.59s2.95 6.58 6.59 6.58 6.59-2.95 6.59-6.58C98.81 64.5 95.86 61.54 92.23 61.54z"/><polygon fill="#FFFFFF" points="17.27"/><polygon fill="#FFFFFF" points="54.44"/><polygon fill="#FFFFFF" points="106.39"/></svg>