<svg xmlns="http://www.w3.org/2000/svg" viewBox="0 0 83 70"><path fill="#B8EDDB" d="M51 20c0-0.7 0.1-1.4 0.3-2H37v3h14V20zM55.1 13H37v3h15.1C52.8 14.7 53.9 13.7 55.1 13z"/><rect x="37" y="8" fill="#B8EDDB" width="20" height="3"/><rect x="7" y="23" fill="#B8EDDB" width="44" height="9"/><rect x="30" y="34" fill="#B8EDDB" width="20" height="3"/><rect x="7" y="34" fill="#B8EDDB" width="20" height="3"/><rect x="7" y="8" fill="#B8EDDB" width="27" height="13"/><path fill="#BEC7D8" d="M64 21h3c0.6 0 1-0.4 1-1 0-0.6-0.4-1-1-1h-3c-0.6 0-1 0.4-1 1S63.4 21 64 21zM75 11H64V5c0-3.3-1.7-5-5-5H5C1.7 0 0 1.7 0 5v42c0 3.3 1.7 5 5 5h17v8h-2c-1.1 0-2 0.9-2 2s0.9 2 2 2h24c1.1 0 2-0.9 2-2s-0.9-2-2-2h-2v-8h7v11c0 4 1.9 7 7 7h20c4 0 7-2 7-7V18C83 13.1 79.8 11 75 11zM38 60H26v-8h12V60zM49 49H3c0 0 0-1.8 0-4h46V49zM49 19v23H3V3h58v8h-5C51.2 11 49 14 49 19zM80 63c0 2.4-1.6 4-4 4H56c-2.3 0-4-1.6-4-4V19c0-2.3 1.6-5 4-5h19c2.4 0 5 1.7 5 4V63z"/><circle fill="#BEC7D8" cx="66" cy="61" r="3"/><path fill="#B8EDDB" d="M54 24v6h24v-6H54zM54 56h24v-9H54V56zM66 32H54v13h12V32zM68 35h10v-3H68V35zM68 40h10v-3H68V40zM68 45h10v-3H68V45z"/></svg>