<svg xmlns="http://www.w3.org/2000/svg" viewBox="0 0 82 56"><polygon fill="#B8EDDB" points="35.999,9.999 42,9.999 42,6 32,6 32,42 35.999,42 "/><rect x="6" y="6" fill="#B8EDDB" width="22" height="8"/><rect x="6" y="17" fill="#B8EDDB" width="22" height="8"/><rect x="6" y="28" fill="#B8EDDB" width="22" height="14"/><path fill="#BEC7D8" d="M76 8H48V6.002C48 2.687 45.314 0 42 0H6C2.687 0 0 2.687 0 6.002V42c0 3.313 2.687 6 6 6h28v2c0 3.313 2.687 6 6 6h36c3.314 0 6-2.688 6-6V14.001C82 10.687 79.314 8 76 8zM34 14.001V45H3v-3V6.002 3h42v3.002V8h-5C36.687 8 34 10.687 34 14.001zM79 14.001V50v3H37v-3V14.001 11h42V14.001z"/><rect x="40" y="35" fill="#B8EDDB" width="36" height="6"/><rect x="40" y="44" fill="#B8EDDB" width="36" height="6"/><rect x="40" y="14" fill="#B8EDDB" width="36" height="18"/></svg>