<svg xmlns="http://www.w3.org/2000/svg" viewBox="0 0 64 64"><path fill="#B8EDDB" d="M26.05 20.17c-0.28-0.28-0.73-0.28-1.01 0l-3.62 3.67c-0.06 0.03-0.11 0.06-0.16 0.11 -0.15 0.15-0.21 0.35-0.2 0.54 -0.01 0.19 0.06 0.39 0.2 0.54 0.05 0.05 0.11 0.08 0.16 0.11l3.62 3.67c0.28 0.28 0.73 0.28 1.01 0 0.28-0.28 0.28-0.74 0-1.03L22.8 24.49l3.25-3.29C26.33 20.92 26.33 20.45 26.05 20.17zM44.7 23.95c-0.05-0.05-0.1-0.08-0.16-0.11l-3.62-3.67c-0.28-0.28-0.73-0.28-1.01 0 -0.28 0.28-0.28 0.74 0 1.03l3.25 3.29 -3.25 3.29c-0.28 0.28-0.28 0.74 0 1.03 0.28 0.28 0.73 0.28 1.01 0l3.63-3.67c0.06-0.03 0.11-0.06 0.16-0.11 0.15-0.15 0.21-0.35 0.2-0.54C44.91 24.3 44.85 24.1 44.7 23.95zM36.71 17.52c-0.24-0.14-0.55-0.06-0.68 0.19l-6.96 13.1c-0.14 0.24-0.06 0.55 0.18 0.69 0.24 0.14 0.54 0.06 0.68-0.18l6.96-13.09C37.03 17.96 36.95 17.65 36.71 17.52z"/><path fill="#BEC7D6" d="M59 0H5C1.69 0 0 1.69 0 5v42c0 3.31 1.69 5 5 5h17v8h-2c-1.1 0-2 0.9-2 2s0.9 2 2 2h24c1.11 0 2-0.9 2-2s-0.89-2-2-2h-2v-8h17c3.31 0 5-1.69 5-5V5C64 1.69 62.31 0 59 0zM38 60H26v-8h12V60zM61 49H3c0 0 0-1.79 0-4h58C61 47.21 61 49 61 49zM61 42H3V3h58V42z"/></svg>