<svg version="1.1" preserveAspectRatio="xMinYMin meet" viewBox="0 0 12 12">
  <path class="path-color" d="M6 0a6 6 0 1 0 6 6 6 6 0 0 0-6-6zm3.97 2.77a5.1 5.1 0 0 1 1.15 3.19 11.86 11.86 0 0 0-3.56-.17 2.03 2.03 0 0 1-.11-.26c-.11-.25-.22-.5-.35-.74a6.987 6.987 0 0 0 2.87-2.02zM6 .88a5.138 5.138 0 0 1 3.4 1.29 5.78 5.78 0 0 1-2.69 1.86A27.65 27.65 0 0 0 4.8 1.02 5.322 5.322 0 0 1 6 .88zm-2.18.49a32.094 32.094 0 0 1 1.9 2.96 19.264 19.264 0 0 1-4.74.63 5.187 5.187 0 0 1 2.84-3.59zM.88 6.01v-.16a18.472 18.472 0 0 0 5.26-.73q.225.435.42.87c-.07.02-.14.04-.2.06a8.208 8.208 0 0 0-4.17 3.38A5.07 5.07 0 0 1 .88 6.01zM6 11.13a5.058 5.058 0 0 1-3.14-1.08 6.98 6.98 0 0 1 4.02-3.2c.01 0 .02-.01.03-.01A20.625 20.625 0 0 1 8 10.73a5.1 5.1 0 0 1-2 .4zm2.86-.87a21.6 21.6 0 0 0-.99-3.66 7.547 7.547 0 0 1 3.19.22 5.15 5.15 0 0 1-2.2 3.44z"/>
</svg>
