<?xml version="1.0" encoding="UTF-8"?>
<svg width="160px" height="160px" viewBox="0 0 160 160" version="1.1" xmlns="http://www.w3.org/2000/svg" xmlns:xlink="http://www.w3.org/1999/xlink">
    <!-- Generator: Sketch 54.1 (76490) - https://sketchapp.com -->
    <title>Group</title>
    <desc>Created with Sketch.</desc>
    <g id="Grid-detail" stroke="none" stroke-width="1" fill="none" fill-rule="evenodd">
        <g id="Mobile-Copy-2" transform="translate(-80.000000, -80.000000)">
            <g id="Group" transform="translate(80.000000, 80.000000)">
                <circle id="Oval" fill="#4BA8F5" cx="80" cy="80" r="80"></circle>
                <g id="noun_Returning-Visitor_995658-(1)" transform="translate(28.000000, 34.000000)" fill="#FFFFFF" fill-rule="nonzero" stroke="#FFFFFF" stroke-width="0.1">
                    <path d="M52.1049897,38.8681783 C58.4364673,38.8681783 63.6599362,33.6447093 63.6599362,27.3132318 C63.6599362,20.9817543 58.4364673,15.7582853 52.1049897,15.7582853 C45.7735122,15.7582853 40.5500432,20.9817543 40.5500432,27.3132318 C40.7083301,33.8029963 45.7735122,38.8681783 52.1049897,38.8681783 Z M52.1049897,18.2908763 C57.1701717,18.2908763 61.2856322,22.4063367 61.2856322,27.4715187 C61.2856322,32.5367008 57.1701717,36.6521612 52.1049897,36.6521612 C47.0398077,36.6521612 42.9243473,32.5367008 42.9243473,27.4715187 C43.0826342,22.4063367 47.0398077,18.2908763 52.1049897,18.2908763 Z" id="Shape"></path>
                    <path d="M30.2613922,46.9408122 C29.1533836,48.8402554 28.5202359,50.8979856 28.5202359,52.639142 C28.5202359,52.639142 27.7288012,60.236915 27.4122273,67.5181142 L27.4122273,68.7844097 L76.9560391,68.7844097 L76.9560391,67.5181142 C76.6394652,60.236915 75.8480305,52.7974289 75.8480305,52.7974289 C75.8480305,50.8979856 75.2148827,48.9985424 74.1068742,46.9408122 C72.9988656,44.883082 71.0994223,43.4584995 68.8834052,42.6670648 L60.8107713,39.8178999 L53.3712852,53.2722897 L50.8386942,53.2722897 L43.557495,39.659613 L35.4848612,42.5087779 C33.268844,43.4584995 31.3694008,44.883082 30.2613922,46.9408122 Z M42.4494865,42.5087779 L49.4141118,55.4883069 L54.7958677,55.4883069 L61.760493,42.5087779 L67.9336836,44.724795 C69.6748399,45.3579428 71.0994223,46.4659514 71.890857,48.0488207 C72.5240048,49.1568293 73.3154395,50.8979856 73.3154395,52.7974289 C73.3154395,52.7974289 74.1068742,59.4454803 74.423448,66.2518187 L68.0919705,66.2518187 L67.6171097,58.0208979 L65.2428056,58.1791848 L65.7176664,66.2518187 L38.492313,66.2518187 L38.9671738,58.1791848 L36.5928697,58.0208979 L36.1180089,66.2518187 L29.7865314,66.2518187 C30.1031053,59.4454803 30.89454,52.9557158 30.89454,52.639142 C30.89454,50.7396987 31.6859746,49.1568293 32.3191224,48.0488207 C33.1105571,46.6242383 34.5351395,45.3579428 36.2762959,44.724795 L42.4494865,42.5087779 Z" id="Shape"></path>
                    <path d="M49.2558248,2.93704326 C60.8107713,2.14560857 71.890857,5.78620815 80.5966387,13.3839812 C88.6692725,20.3486065 93.8927415,30.0041097 95.159037,40.6093346 L88.3526986,36.0190134 L87.0864031,37.9184567 L96.9001933,44.5665081 L103.548245,34.7527179 L101.648801,33.4864224 L97.3750541,39.659613 C95.7921848,28.7378142 90.4104288,18.9240241 82.0212211,11.6428249 C72.8405787,3.72847795 60.9690583,-0.22869551 48.780964,0.562739183 C26.7790796,2.14560857 8.57608162,20.1903196 6.67663836,42.5087779 L9.05094244,42.6670648 C10.7920988,21.4566151 28.0453751,4.51991265 49.2558248,2.93704326 Z" id="Path"></path>
                    <path d="M55.4290154,89.3617117 C32.4774093,90.9445811 12.3749681,74.3244525 9.36751631,51.8477073 L15.6989939,56.5963154 L17.1235763,54.6968722 L7.62635999,47.5739599 L0.503447754,57.0711762 L2.40289102,58.4957587 L6.99321223,52.480855 C8.57608162,63.4026538 13.7995506,73.3747309 22.3470453,80.6559301 C30.736253,87.9371293 41.183191,91.8943027 52.2632767,91.8943027 C53.3712852,91.8943027 54.4792938,91.8943027 55.5873024,91.7360158 C78.2223346,90.1531464 96.4253325,71.7918615 98.0082019,49.1568293 L95.6338978,48.9985424 C94.0510284,70.525566 76.7977521,87.7788423 55.4290154,89.3617117 Z" id="Path"></path>
                </g>
            </g>
        </g>
    </g>
</svg>