<?xml version="1.0" encoding="UTF-8"?>
<svg width="102px" height="11px" viewBox="0 0 102 11" version="1.1" xmlns="http://www.w3.org/2000/svg" xmlns:xlink="http://www.w3.org/1999/xlink">
    <!-- Generator: Sketch 62 (91390) - https://sketch.com -->
    <title>©WayfnderLLC2020. 2</title>
    <desc>Created with Sketch.</desc>
    <g id="Home-and-About-Exploration" stroke="none" stroke-width="1" fill="none" fill-rule="evenodd" opacity="0.5">
        <g id="Process---1" transform="translate(-1277.000000, -991.000000)" fill="#000000" fill-rule="nonzero">
            <g id="grid-dark" transform="translate(63.000000, 33.000000)">
                <g id="footer">
                    <g transform="translate(0.000000, 955.000000)">
                        <g id="©WayfnderLLC2020.-2" transform="translate(1214.378906, 3.397461)">
                            <path d="M3.46679688,7.70507812 C4.11132812,7.70507812 4.70296224,7.53499349 5.24169922,7.19482422 C5.7804362,6.85465495 6.19628906,6.4046224 6.48925781,5.84472656 C6.78222656,5.28483073 6.92871094,4.68424479 6.92871094,4.04296875 C6.92871094,3.38541667 6.77652995,2.7750651 6.47216797,2.21191406 C6.16780599,1.64876302 5.74707031,1.20524089 5.20996094,0.881347656 C4.67285156,0.557454427 4.09179688,0.395507812 3.46679688,0.395507812 C2.84179688,0.395507812 2.25992839,0.557454427 1.72119141,0.881347656 C1.18245443,1.20524089 0.760904948,1.64876302 0.456542969,2.21191406 C0.15218099,2.7750651 0,3.38541667 0,4.04296875 C0,4.69075521 0.148111979,5.29459635 0.444335937,5.85449219 C0.740559896,6.41438802 1.15804036,6.86279297 1.69677734,7.19970703 C2.23551432,7.53662109 2.82552083,7.70507812 3.46679688,7.70507812 Z M3.46679688,7.12402344 C2.94596354,7.12402344 2.4617513,6.98893229 2.01416016,6.71875 C1.56656901,6.44856771 1.2125651,6.07503255 0.952148438,5.59814453 C0.691731771,5.12125651 0.561523438,4.60286458 0.561523438,4.04296875 C0.561523438,3.48958333 0.690917969,2.97526042 0.949707031,2.5 C1.20849609,2.02473958 1.5625,1.65283203 2.01171875,1.38427734 C2.4609375,1.11572266 2.94596354,0.981445312 3.46679688,0.981445312 C3.99088542,0.981445312 4.47672526,1.11735026 4.92431641,1.38916016 C5.37190755,1.66097005 5.72428385,2.0328776 5.98144531,2.50488281 C6.23860677,2.97688802 6.3671875,3.48958333 6.3671875,4.04296875 C6.3671875,4.60286458 6.23697917,5.12125651 5.9765625,5.59814453 C5.71614583,6.07503255 5.36295573,6.44856771 4.91699219,6.71875 C4.47102865,6.98893229 3.98763021,7.12402344 3.46679688,7.12402344 Z M3.40332031,6.22070312 C3.91764323,6.22070312 4.31559245,6.08968099 4.59716797,5.82763672 C4.87874349,5.56559245 5.01953125,5.18554688 5.01953125,4.6875 L5.01953125,4.6875 L4.30664062,4.6875 C4.30664062,5.01627604 4.23095703,5.24902344 4.07958984,5.38574219 C3.92822266,5.52246094 3.70279948,5.59082031 3.40332031,5.59082031 C3.09733073,5.59082031 2.85644531,5.47851562 2.68066406,5.25390625 C2.50488281,5.02929688 2.41699219,4.72167969 2.41699219,4.33105469 L2.41699219,4.33105469 L2.41699219,3.77929688 C2.41699219,3.37890625 2.50488281,3.06640625 2.68066406,2.84179688 C2.85644531,2.6171875 3.09733073,2.50488281 3.40332031,2.50488281 C3.69954427,2.50488281 3.92496745,2.57405599 4.07958984,2.71240234 C4.23421224,2.8507487 4.31152344,3.08105469 4.31152344,3.40332031 L4.31152344,3.40332031 L5.02441406,3.40332031 C5.02441406,2.91829427 4.8844401,2.54231771 4.60449219,2.27539062 C4.32454427,2.00846354 3.92415365,1.875 3.40332031,1.875 C2.89876302,1.875 2.49104818,2.04671224 2.18017578,2.39013672 C1.86930339,2.7335612 1.71386719,3.19173177 1.71386719,3.76464844 L1.71386719,3.76464844 L1.71386719,4.30175781 C1.71386719,4.89420573 1.86767578,5.36214193 2.17529297,5.70556641 C2.48291016,6.04899089 2.8922526,6.22070312 3.40332031,6.22070312 Z M12.7587891,7.60253906 L14.2773438,2.421875 L14.3896484,1.87988281 L14.5019531,2.421875 L15.9667969,7.60253906 L16.8212891,7.60253906 L18.5449219,0.493164062 L17.6025391,0.493164062 L16.4990234,5.35644531 L16.3476562,6.31347656 L16.1523438,5.45410156 L14.7802734,0.493164062 L13.9892578,0.493164062 L12.5830078,5.45410156 L12.3828125,6.29882812 L12.2460938,5.36132812 L11.1230469,0.493164062 L10.1855469,0.493164062 L11.9042969,7.60253906 L12.7587891,7.60253906 Z M21.0742188,7.70019531 C21.656901,7.70019531 22.1582031,7.48209635 22.578125,7.04589844 C22.6106771,7.31282552 22.6529948,7.4983724 22.7050781,7.60253906 L22.7050781,7.60253906 L23.6523438,7.60253906 L23.6523438,7.52441406 C23.5286458,7.23795573 23.4667969,6.85221354 23.4667969,6.3671875 L23.4667969,6.3671875 L23.4667969,3.93554688 C23.453776,3.40169271 23.2747396,2.98258464 22.9296875,2.67822266 C22.5846354,2.37386068 22.1077474,2.22167969 21.4990234,2.22167969 C21.1149089,2.22167969 20.7625326,2.29329427 20.4418945,2.43652344 C20.1212565,2.5797526 19.8673503,2.7742513 19.6801758,3.02001953 C19.4930013,3.26578776 19.3994141,3.52050781 19.3994141,3.78417969 L19.3994141,3.78417969 L20.3076172,3.78417969 C20.3076172,3.5530599 20.4166667,3.35611979 20.6347656,3.19335938 C20.8528646,3.03059896 21.1230469,2.94921875 21.4453125,2.94921875 C21.813151,2.94921875 22.0914714,3.04280599 22.2802734,3.22998047 C22.4690755,3.41715495 22.5634766,3.66861979 22.5634766,3.984375 L22.5634766,3.984375 L22.5634766,4.39941406 L21.6845703,4.39941406 C20.9261068,4.39941406 20.3377279,4.55159505 19.9194336,4.85595703 C19.5011393,5.16031901 19.2919922,5.5875651 19.2919922,6.13769531 C19.2919922,6.59016927 19.4588216,6.96370443 19.7924805,7.25830078 C20.1261393,7.55289714 20.5533854,7.70019531 21.0742188,7.70019531 Z M21.2060547,6.9140625 C20.9098307,6.9140625 20.6673177,6.8343099 20.4785156,6.67480469 C20.2897135,6.51529948 20.1953125,6.29394531 20.1953125,6.01074219 C20.1953125,5.36295573 20.7486979,5.0390625 21.8554688,5.0390625 L21.8554688,5.0390625 L22.5634766,5.0390625 L22.5634766,6.12304688 C22.4495443,6.35742188 22.265625,6.54785156 22.0117188,6.69433594 C21.7578125,6.84082031 21.4892578,6.9140625 21.2060547,6.9140625 Z M25.1171875,9.73632812 C25.8333333,9.73632812 26.3557943,9.296875 26.6845703,8.41796875 L26.6845703,8.41796875 L28.8085938,2.31933594 L27.8417969,2.31933594 L26.6113281,6.27929688 L25.2929688,2.31933594 L24.3066406,2.31933594 L26.1914062,7.54394531 L25.9912109,8.08105469 C25.8805339,8.40983073 25.7397461,8.63606771 25.5688477,8.75976562 C25.3979492,8.88346354 25.1595052,8.9453125 24.8535156,8.9453125 L24.8535156,8.9453125 L24.609375,8.92578125 L24.609375,9.65820312 L24.9462891,9.72167969 L25.1171875,9.73632812 Z M30.8251953,7.60253906 L30.8251953,3.01757812 L31.9042969,3.01757812 L31.9042969,2.31933594 L30.8251953,2.31933594 L30.8251953,1.86035156 C30.8251953,1.51204427 30.9106445,1.2508138 31.081543,1.07666016 C31.2524414,0.90250651 31.5315755,0.815429688 31.9189453,0.815429688 C32.2867839,0.815429688 32.6741536,0.896809896 33.0810547,1.05957031 L33.0810547,1.05957031 L33.2324219,0.297851562 C32.6757812,0.0992838542 32.2151693,0 31.8505859,0 C31.2353516,0 30.7592773,0.164388021 30.4223633,0.493164062 C30.0854492,0.821940104 29.9169922,1.28092448 29.9169922,1.87011719 L29.9169922,1.87011719 L29.9169922,2.31933594 L29.0820312,2.31933594 L29.0820312,3.01757812 L29.9169922,3.01757812 L29.9169922,7.60253906 L30.8251953,7.60253906 Z M33.6816406,7.60253906 L33.6816406,2.31933594 L32.7734375,2.31933594 L32.7734375,7.60253906 L33.6816406,7.60253906 Z M36.0546875,7.60253906 L36.0546875,3.83789062 C36.1783854,3.58398438 36.3509115,3.37890625 36.5722656,3.22265625 C36.7936198,3.06640625 37.0507812,2.98828125 37.34375,2.98828125 C37.7050781,2.98828125 37.9711914,3.07942708 38.1420898,3.26171875 C38.3129883,3.44401042 38.4000651,3.72558594 38.4033203,4.10644531 L38.4033203,4.10644531 L38.4033203,7.60253906 L39.3066406,7.60253906 L39.3066406,4.11132812 C39.296875,2.8515625 38.733724,2.22167969 37.6171875,2.22167969 C36.9661458,2.22167969 36.4388021,2.47558594 36.0351562,2.98339844 L36.0351562,2.98339844 L36.0058594,2.31933594 L35.1513672,2.31933594 L35.1513672,7.60253906 L36.0546875,7.60253906 Z M42.5244141,7.70019531 C43.1689453,7.70019531 43.671875,7.47884115 44.0332031,7.03613281 L44.0332031,7.03613281 L44.0771484,7.60253906 L44.9072266,7.60253906 L44.9072266,0.102539062 L44.0039062,0.102539062 L44.0039062,2.85644531 C43.6425781,2.43326823 43.1526693,2.22167969 42.5341797,2.22167969 C41.9124349,2.22167969 41.4095052,2.46826172 41.0253906,2.96142578 C40.641276,3.45458984 40.4492188,4.10644531 40.4492188,4.91699219 L40.4492188,4.91699219 L40.4492188,4.98535156 C40.4492188,5.79264323 40.6420898,6.4469401 41.027832,6.94824219 C41.4135742,7.44954427 41.9124349,7.70019531 42.5244141,7.70019531 Z M42.7490234,6.93359375 C42.3128255,6.93359375 41.9710286,6.76432292 41.7236328,6.42578125 C41.476237,6.08723958 41.3525391,5.61848958 41.3525391,5.01953125 C41.3525391,4.34895833 41.476237,3.84277344 41.7236328,3.50097656 C41.9710286,3.15917969 42.3160807,2.98828125 42.7587891,2.98828125 C43.3186849,2.98828125 43.733724,3.23730469 44.0039062,3.73535156 L44.0039062,3.73535156 L44.0039062,6.16210938 C43.7402344,6.67643229 43.3219401,6.93359375 42.7490234,6.93359375 Z M48.5009766,7.70019531 C49.3863932,7.70019531 50.0504557,7.36002604 50.4931641,6.6796875 L50.4931641,6.6796875 L49.9414062,6.25 C49.7753906,6.46484375 49.5817057,6.63736979 49.3603516,6.76757812 C49.1389974,6.89778646 48.8688151,6.96289062 48.5498047,6.96289062 C48.1005859,6.96289062 47.730306,6.80257161 47.4389648,6.48193359 C47.1476237,6.16129557 46.9954427,5.7405599 46.9824219,5.21972656 L46.9824219,5.21972656 L50.5615234,5.21972656 L50.5615234,4.84375 C50.5615234,4.00065104 50.3710938,3.35286458 49.9902344,2.90039062 C49.609375,2.44791667 49.0755208,2.22167969 48.3886719,2.22167969 C47.96875,2.22167969 47.5789388,2.33805339 47.2192383,2.57080078 C46.8595378,2.80354818 46.5795898,3.1258138 46.3793945,3.53759766 C46.1791992,3.94938151 46.0791016,4.41731771 46.0791016,4.94140625 L46.0791016,4.94140625 L46.0791016,5.10742188 C46.0791016,5.89518229 46.3037109,6.5242513 46.7529297,6.99462891 C47.2021484,7.46500651 47.7848307,7.70019531 48.5009766,7.70019531 Z M49.6582031,4.47753906 L47.0117188,4.47753906 C47.0703125,3.99902344 47.2233073,3.62711589 47.4707031,3.36181641 C47.718099,3.09651693 48.0240885,2.96386719 48.3886719,2.96386719 C48.766276,2.96386719 49.0657552,3.09000651 49.2871094,3.34228516 C49.5084635,3.5945638 49.6321615,3.95019531 49.6582031,4.40917969 L49.6582031,4.40917969 L49.6582031,4.47753906 Z M52.5097656,7.60253906 L52.5097656,3.85253906 C52.7213542,3.34798177 53.1233724,3.09570312 53.7158203,3.09570312 C53.8753255,3.09570312 54.0234375,3.10709635 54.1601562,3.12988281 L54.1601562,3.12988281 L54.1601562,2.29003906 C54.0690104,2.24446615 53.9355469,2.22167969 53.7597656,2.22167969 C53.2161458,2.22167969 52.796224,2.45768229 52.5,2.9296875 L52.5,2.9296875 L52.4853516,2.31933594 L51.6064453,2.31933594 L51.6064453,7.60253906 L52.5097656,7.60253906 Z M61.9189453,7.60253906 L61.9189453,6.8359375 L58.5498047,6.8359375 L58.5498047,0.493164062 L57.6074219,0.493164062 L57.6074219,7.60253906 L61.9189453,7.60253906 Z M67.2998047,7.60253906 L67.2998047,6.8359375 L63.9306641,6.8359375 L63.9306641,0.493164062 L62.9882812,0.493164062 L62.9882812,7.60253906 L67.2998047,7.60253906 Z M70.9033203,7.70019531 C71.6780599,7.70019531 72.2989909,7.49593099 72.7661133,7.08740234 C73.2332357,6.6788737 73.5107422,6.09863281 73.5986328,5.34667969 L73.5986328,5.34667969 L72.65625,5.34667969 C72.5651042,5.93261719 72.3803711,6.34358724 72.1020508,6.57958984 C71.8237305,6.81559245 71.4241536,6.93359375 70.9033203,6.93359375 C70.3238932,6.93359375 69.8730469,6.70572917 69.5507812,6.25 C69.2285156,5.79427083 69.0673828,5.18066406 69.0673828,4.40917969 L69.0673828,4.40917969 L69.0673828,3.72070312 C69.0673828,2.90364583 69.2374674,2.27376302 69.5776367,1.83105469 C69.917806,1.38834635 70.3873698,1.16699219 70.9863281,1.16699219 C71.4746094,1.16699219 71.8546549,1.29394531 72.1264648,1.54785156 C72.3982747,1.80175781 72.5748698,2.21191406 72.65625,2.77832031 L72.65625,2.77832031 L73.5986328,2.77832031 C73.523763,2.0328776 73.2584635,1.44938151 72.8027344,1.02783203 C72.3470052,0.606282552 71.7415365,0.395507812 70.9863281,0.395507812 C70.4166667,0.395507812 69.9153646,0.529785156 69.4824219,0.798339844 C69.0494792,1.06689453 68.7150065,1.45182292 68.4790039,1.953125 C68.2430013,2.45442708 68.125,3.03548177 68.125,3.69628906 L68.125,3.69628906 L68.125,4.37988281 C68.125,5.3889974 68.3780924,6.19466146 68.8842773,6.796875 C69.3904622,7.39908854 70.0634766,7.70019531 70.9033203,7.70019531 Z M81.7773438,7.60253906 L81.7773438,6.86523438 L78.2080078,6.86523438 L80.1123047,4.79980469 C81.0042318,3.83300781 81.4501953,2.99967448 81.4501953,2.29980469 C81.4501953,1.72363281 81.258138,1.26220703 80.8740234,0.915527344 C80.4899089,0.568847656 79.9674479,0.395507812 79.3066406,0.395507812 C78.6002604,0.395507812 78.0362956,0.597330729 77.6147461,1.00097656 C77.1931966,1.4046224 76.9824219,1.93359375 76.9824219,2.58789062 L76.9824219,2.58789062 L77.8857422,2.58789062 C77.8857422,2.13216146 78.0102539,1.77652995 78.2592773,1.52099609 C78.5083008,1.26546224 78.8574219,1.13769531 79.3066406,1.13769531 C79.6809896,1.13769531 79.9804688,1.25651042 80.2050781,1.49414062 C80.4296875,1.73177083 80.5419922,2.03613281 80.5419922,2.40722656 C80.5419922,2.68391927 80.472819,2.95166016 80.3344727,3.21044922 C80.1961263,3.46923828 79.9446615,3.80533854 79.5800781,4.21875 L79.5800781,4.21875 L77.1191406,6.953125 L77.1191406,7.60253906 L81.7773438,7.60253906 Z M84.9560547,7.70019531 C85.7242839,7.70019531 86.2890625,7.44303385 86.6503906,6.92871094 C87.0117188,6.41438802 87.1923828,5.62825521 87.1923828,4.5703125 L87.1923828,4.5703125 L87.1923828,3.3984375 C87.1826172,2.37630208 86.9970703,1.62027995 86.6357422,1.13037109 C86.2744141,0.64046224 85.711263,0.395507812 84.9462891,0.395507812 C84.1748047,0.395507812 83.6083984,0.649414062 83.2470703,1.15722656 C82.8857422,1.66503906 82.7050781,2.44140625 82.7050781,3.48632812 L82.7050781,3.48632812 L82.7050781,4.69238281 C82.718099,5.69173177 82.906901,6.44287109 83.2714844,6.94580078 C83.6360677,7.44873047 84.1975911,7.70019531 84.9560547,7.70019531 Z M84.9560547,6.96289062 C84.5035807,6.96289062 84.1658529,6.77978516 83.9428711,6.41357422 C83.7198893,6.04736328 83.6083984,5.48014323 83.6083984,4.71191406 L83.6083984,4.71191406 L83.6083984,3.26660156 C83.6149089,2.54394531 83.7239583,2.00846354 83.9355469,1.66015625 C84.1471354,1.31184896 84.4840495,1.13769531 84.9462891,1.13769531 C85.4117839,1.13769531 85.7519531,1.31266276 85.9667969,1.66259766 C86.1816406,2.01253255 86.2890625,2.56998698 86.2890625,3.33496094 L86.2890625,3.33496094 L86.2890625,4.81445312 C86.2792969,5.55664062 86.1661784,6.10026042 85.949707,6.4453125 C85.7332357,6.79036458 85.4020182,6.96289062 84.9560547,6.96289062 Z M93.0078125,7.60253906 L93.0078125,6.86523438 L89.4384766,6.86523438 L91.3427734,4.79980469 C92.2347005,3.83300781 92.6806641,2.99967448 92.6806641,2.29980469 C92.6806641,1.72363281 92.4886068,1.26220703 92.1044922,0.915527344 C91.7203776,0.568847656 91.1979167,0.395507812 90.5371094,0.395507812 C89.8307292,0.395507812 89.2667643,0.597330729 88.8452148,1.00097656 C88.4236654,1.4046224 88.2128906,1.93359375 88.2128906,2.58789062 L88.2128906,2.58789062 L89.1162109,2.58789062 C89.1162109,2.13216146 89.2407227,1.77652995 89.4897461,1.52099609 C89.7387695,1.26546224 90.0878906,1.13769531 90.5371094,1.13769531 C90.9114583,1.13769531 91.2109375,1.25651042 91.4355469,1.49414062 C91.6601562,1.73177083 91.7724609,2.03613281 91.7724609,2.40722656 C91.7724609,2.68391927 91.7032878,2.95166016 91.5649414,3.21044922 C91.4265951,3.46923828 91.1751302,3.80533854 90.8105469,4.21875 L90.8105469,4.21875 L88.3496094,6.953125 L88.3496094,7.60253906 L93.0078125,7.60253906 Z M96.1865234,7.70019531 C96.9547526,7.70019531 97.5195312,7.44303385 97.8808594,6.92871094 C98.2421875,6.41438802 98.4228516,5.62825521 98.4228516,4.5703125 L98.4228516,4.5703125 L98.4228516,3.3984375 C98.4130859,2.37630208 98.2275391,1.62027995 97.8662109,1.13037109 C97.5048828,0.64046224 96.9417318,0.395507812 96.1767578,0.395507812 C95.4052734,0.395507812 94.8388672,0.649414062 94.4775391,1.15722656 C94.1162109,1.66503906 93.9355469,2.44140625 93.9355469,3.48632812 L93.9355469,3.48632812 L93.9355469,4.69238281 C93.9485677,5.69173177 94.1373698,6.44287109 94.5019531,6.94580078 C94.8665365,7.44873047 95.4280599,7.70019531 96.1865234,7.70019531 Z M96.1865234,6.96289062 C95.7340495,6.96289062 95.3963216,6.77978516 95.1733398,6.41357422 C94.9503581,6.04736328 94.8388672,5.48014323 94.8388672,4.71191406 L94.8388672,4.71191406 L94.8388672,3.26660156 C94.8453776,2.54394531 94.9544271,2.00846354 95.1660156,1.66015625 C95.3776042,1.31184896 95.7145182,1.13769531 96.1767578,1.13769531 C96.6422526,1.13769531 96.9824219,1.31266276 97.1972656,1.66259766 C97.4121094,2.01253255 97.5195312,2.56998698 97.5195312,3.33496094 L97.5195312,3.33496094 L97.5195312,4.81445312 C97.5097656,5.55664062 97.3966471,6.10026042 97.1801758,6.4453125 C96.9637044,6.79036458 96.632487,6.96289062 96.1865234,6.96289062 Z M100.249023,7.65625 C100.43457,7.65625 100.575358,7.60579427 100.671387,7.50488281 C100.767415,7.40397135 100.81543,7.27864583 100.81543,7.12890625 C100.81543,6.97265625 100.767415,6.84244792 100.671387,6.73828125 C100.575358,6.63411458 100.43457,6.58203125 100.249023,6.58203125 C100.063477,6.58203125 99.9243164,6.63411458 99.831543,6.73828125 C99.7387695,6.84244792 99.6923828,6.97265625 99.6923828,7.12890625 C99.6923828,7.27864583 99.7387695,7.40397135 99.831543,7.50488281 C99.9243164,7.60579427 100.063477,7.65625 100.249023,7.65625 Z" id="©WayfnderLLC2020."></path>
                        </g>
                    </g>
                </g>
            </g>
        </g>
    </g>
</svg>