<?xml version="1.0" encoding="UTF-8"?>
<svg width="142px" height="14px" viewBox="0 0 142 14" version="1.1" xmlns="http://www.w3.org/2000/svg" xmlns:xlink="http://www.w3.org/1999/xlink">
    <!-- Generator: Sketch 62 (91390) - https://sketch.com -->
    <title>©WayfnderLLC2020. 2</title>
    <desc>Created with Sketch.</desc>
    <g id="Home-and-About-Exploration" stroke="none" stroke-width="1" fill="none" fill-rule="evenodd">
        <g id="Team-opt-1" transform="translate(-1236.000000, -964.000000)" fill="#FFFFFF" fill-rule="nonzero">
            <g id="©WayfnderLLC2020.-2" transform="translate(1236.730469, 964.356445)">
                <path d="M4.85351562,10.7871094 C5.75585938,10.7871094 6.58414714,10.5489909 7.33837891,10.0727539 C8.09261068,9.59651693 8.67480469,8.96647135 9.08496094,8.18261719 C9.49511719,7.39876302 9.70019531,6.55794271 9.70019531,5.66015625 C9.70019531,4.73958333 9.48714193,3.88509115 9.06103516,3.09667969 C8.63492839,2.30826823 8.04589844,1.68733724 7.29394531,1.23388672 C6.54199219,0.780436198 5.72851562,0.553710938 4.85351562,0.553710938 C3.97851562,0.553710938 3.16389974,0.780436198 2.40966797,1.23388672 C1.6554362,1.68733724 1.06526693,2.30826823 0.639160156,3.09667969 C0.213053385,3.88509115 0,4.73958333 0,5.66015625 C0,6.56705729 0.207356771,7.4124349 0.622070312,8.19628906 C1.03678385,8.98014323 1.62125651,9.60791016 2.37548828,10.0795898 C3.12972005,10.5512695 3.95572917,10.7871094 4.85351562,10.7871094 Z M4.85351562,9.97363281 C4.12434896,9.97363281 3.44645182,9.78450521 2.81982422,9.40625 C2.19319661,9.02799479 1.69759115,8.50504557 1.33300781,7.83740234 C0.968424479,7.16975911 0.786132812,6.44401042 0.786132812,5.66015625 C0.786132812,4.88541667 0.967285156,4.16536458 1.32958984,3.5 C1.69189453,2.83463542 2.1875,2.31396484 2.81640625,1.93798828 C3.4453125,1.56201172 4.12434896,1.37402344 4.85351562,1.37402344 C5.58723958,1.37402344 6.26741536,1.56429036 6.89404297,1.94482422 C7.52067057,2.32535807 8.0139974,2.84602865 8.37402344,3.50683594 C8.73404948,4.16764323 8.9140625,4.88541667 8.9140625,5.66015625 C8.9140625,6.44401042 8.73177083,7.16975911 8.3671875,7.83740234 C8.00260417,8.50504557 7.50813802,9.02799479 6.88378906,9.40625 C6.2594401,9.78450521 5.58268229,9.97363281 4.85351562,9.97363281 Z M4.76464844,8.70898438 C5.48470052,8.70898438 6.04182943,8.52555339 6.43603516,8.15869141 C6.83024089,7.79182943 7.02734375,7.25976562 7.02734375,6.5625 L7.02734375,6.5625 L6.02929688,6.5625 C6.02929688,7.02278646 5.92333984,7.34863281 5.71142578,7.54003906 C5.49951172,7.73144531 5.18391927,7.82714844 4.76464844,7.82714844 C4.33626302,7.82714844 3.99902344,7.66992188 3.75292969,7.35546875 C3.50683594,7.04101562 3.38378906,6.61035156 3.38378906,6.06347656 L3.38378906,6.06347656 L3.38378906,5.29101562 C3.38378906,4.73046875 3.50683594,4.29296875 3.75292969,3.97851562 C3.99902344,3.6640625 4.33626302,3.50683594 4.76464844,3.50683594 C5.17936198,3.50683594 5.49495443,3.60367839 5.71142578,3.79736328 C5.92789714,3.99104818 6.03613281,4.31347656 6.03613281,4.76464844 L6.03613281,4.76464844 L7.03417969,4.76464844 C7.03417969,4.08561198 6.83821615,3.55924479 6.44628906,3.18554688 C6.05436198,2.81184896 5.4938151,2.625 4.76464844,2.625 C4.05826823,2.625 3.48746745,2.86539714 3.05224609,3.34619141 C2.61702474,3.82698568 2.39941406,4.46842448 2.39941406,5.27050781 L2.39941406,5.27050781 L2.39941406,6.02246094 C2.39941406,6.85188802 2.61474609,7.5069987 3.04541016,7.98779297 C3.47607422,8.46858724 4.04915365,8.70898438 4.76464844,8.70898438 Z M17.8623047,10.6435547 L19.9882812,3.390625 L20.1455078,2.63183594 L20.3027344,3.390625 L22.3535156,10.6435547 L23.5498047,10.6435547 L25.9628906,0.690429688 L24.6435547,0.690429688 L23.0986328,7.49902344 L22.8867188,8.83886719 L22.6132812,7.63574219 L20.6923828,0.690429688 L19.5849609,0.690429688 L17.6162109,7.63574219 L17.3359375,8.81835938 L17.1445312,7.50585938 L15.5722656,0.690429688 L14.2597656,0.690429688 L16.6660156,10.6435547 L17.8623047,10.6435547 Z M29.5039062,10.7802734 C30.3196615,10.7802734 31.0214844,10.4749349 31.609375,9.86425781 C31.6549479,10.2379557 31.7141927,10.4977214 31.7871094,10.6435547 L31.7871094,10.6435547 L33.1132812,10.6435547 L33.1132812,10.5341797 C32.9401042,10.133138 32.8535156,9.59309896 32.8535156,8.9140625 L32.8535156,8.9140625 L32.8535156,5.50976562 C32.8352865,4.76236979 32.5846354,4.17561849 32.1015625,3.74951172 C31.6184896,3.32340495 30.9508464,3.11035156 30.0986328,3.11035156 C29.5608724,3.11035156 29.0675456,3.21061198 28.6186523,3.41113281 C28.1697591,3.61165365 27.8142904,3.88395182 27.5522461,4.22802734 C27.2902018,4.57210286 27.1591797,4.92871094 27.1591797,5.29785156 L27.1591797,5.29785156 L28.4306641,5.29785156 C28.4306641,4.97428385 28.5833333,4.69856771 28.8886719,4.47070312 C29.1940104,4.24283854 29.5722656,4.12890625 30.0234375,4.12890625 C30.5384115,4.12890625 30.9280599,4.25992839 31.1923828,4.52197266 C31.4567057,4.78401693 31.5888672,5.13606771 31.5888672,5.578125 L31.5888672,5.578125 L31.5888672,6.15917969 L30.3583984,6.15917969 C29.2965495,6.15917969 28.472819,6.37223307 27.887207,6.79833984 C27.3015951,7.22444661 27.0087891,7.82259115 27.0087891,8.59277344 C27.0087891,9.22623698 27.2423503,9.7491862 27.7094727,10.1616211 C28.1765951,10.574056 28.7747396,10.7802734 29.5039062,10.7802734 Z M29.6884766,9.6796875 C29.273763,9.6796875 28.9342448,9.56803385 28.6699219,9.34472656 C28.405599,9.12141927 28.2734375,8.81152344 28.2734375,8.41503906 C28.2734375,7.50813802 29.0481771,7.0546875 30.5976562,7.0546875 L30.5976562,7.0546875 L31.5888672,7.0546875 L31.5888672,8.57226562 C31.429362,8.90039062 31.171875,9.16699219 30.8164062,9.37207031 C30.4609375,9.57714844 30.0849609,9.6796875 29.6884766,9.6796875 Z M35.1640625,13.6308594 C36.1666667,13.6308594 36.898112,13.015625 37.3583984,11.7851562 L37.3583984,11.7851562 L40.3320312,3.24707031 L38.9785156,3.24707031 L37.2558594,8.79101562 L35.4101562,3.24707031 L34.0292969,3.24707031 L36.6679688,10.5615234 L36.3876953,11.3134766 C36.2327474,11.773763 36.0356445,12.0904948 35.7963867,12.2636719 C35.5571289,12.436849 35.2233073,12.5234375 34.7949219,12.5234375 L34.7949219,12.5234375 L34.453125,12.4960938 L34.453125,13.5214844 L34.9248047,13.6103516 L35.1640625,13.6308594 Z M43.1552734,10.6435547 L43.1552734,4.22460938 L44.6660156,4.22460938 L44.6660156,3.24707031 L43.1552734,3.24707031 L43.1552734,2.60449219 C43.1552734,2.11686198 43.2749023,1.75113932 43.5141602,1.50732422 C43.753418,1.26350911 44.1442057,1.14160156 44.6865234,1.14160156 C45.2014974,1.14160156 45.7438151,1.25553385 46.3134766,1.48339844 L46.3134766,1.48339844 L46.5253906,0.416992188 C45.7460938,0.138997396 45.101237,0 44.5908203,0 C43.7294922,0 43.0629883,0.230143229 42.5913086,0.690429688 C42.1196289,1.15071615 41.8837891,1.79329427 41.8837891,2.61816406 L41.8837891,2.61816406 L41.8837891,3.24707031 L40.7148438,3.24707031 L40.7148438,4.22460938 L41.8837891,4.22460938 L41.8837891,10.6435547 L43.1552734,10.6435547 Z M47.1542969,10.6435547 L47.1542969,3.24707031 L45.8828125,3.24707031 L45.8828125,10.6435547 L47.1542969,10.6435547 Z M50.4765625,10.6435547 L50.4765625,5.37304688 C50.6497396,5.01757812 50.891276,4.73046875 51.2011719,4.51171875 C51.5110677,4.29296875 51.8710938,4.18359375 52.28125,4.18359375 C52.7871094,4.18359375 53.159668,4.31119792 53.3989258,4.56640625 C53.6381836,4.82161458 53.7600911,5.21582031 53.7646484,5.74902344 L53.7646484,5.74902344 L53.7646484,10.6435547 L55.0292969,10.6435547 L55.0292969,5.75585938 C55.015625,3.9921875 54.2272135,3.11035156 52.6640625,3.11035156 C51.7526042,3.11035156 51.0143229,3.46582031 50.4492188,4.17675781 L50.4492188,4.17675781 L50.4082031,3.24707031 L49.2119141,3.24707031 L49.2119141,10.6435547 L50.4765625,10.6435547 Z M59.5341797,10.7802734 C60.4365234,10.7802734 61.140625,10.4703776 61.6464844,9.85058594 L61.6464844,9.85058594 L61.7080078,10.6435547 L62.8701172,10.6435547 L62.8701172,0.143554688 L61.6054688,0.143554688 L61.6054688,3.99902344 C61.0996094,3.40657552 60.413737,3.11035156 59.5478516,3.11035156 C58.6774089,3.11035156 57.9733073,3.45556641 57.4355469,4.14599609 C56.8977865,4.83642578 56.6289062,5.74902344 56.6289062,6.88378906 L56.6289062,6.88378906 L56.6289062,6.97949219 C56.6289062,8.10970052 56.8989258,9.02571615 57.4389648,9.72753906 C57.9790039,10.429362 58.6774089,10.7802734 59.5341797,10.7802734 Z M59.8486328,9.70703125 C59.2379557,9.70703125 58.7594401,9.47005208 58.4130859,8.99609375 C58.0667318,8.52213542 57.8935547,7.86588542 57.8935547,7.02734375 C57.8935547,6.08854167 58.0667318,5.37988281 58.4130859,4.90136719 C58.7594401,4.42285156 59.242513,4.18359375 59.8623047,4.18359375 C60.6461589,4.18359375 61.2272135,4.53222656 61.6054688,5.22949219 L61.6054688,5.22949219 L61.6054688,8.62695312 C61.2363281,9.34700521 60.6507161,9.70703125 59.8486328,9.70703125 Z M67.9013672,10.7802734 C69.1409505,10.7802734 70.070638,10.3040365 70.6904297,9.3515625 L70.6904297,9.3515625 L69.9179688,8.75 C69.6855469,9.05078125 69.414388,9.29231771 69.1044922,9.47460938 C68.7945964,9.65690104 68.4163411,9.74804688 67.9697266,9.74804688 C67.3408203,9.74804688 66.8224284,9.52360026 66.4145508,9.07470703 C66.0066732,8.6258138 65.7936198,8.03678385 65.7753906,7.30761719 L65.7753906,7.30761719 L70.7861328,7.30761719 L70.7861328,6.78125 C70.7861328,5.60091146 70.5195312,4.69401042 69.9863281,4.06054688 C69.453125,3.42708333 68.7057292,3.11035156 67.7441406,3.11035156 C67.15625,3.11035156 66.6105143,3.27327474 66.1069336,3.59912109 C65.6033529,3.92496745 65.2114258,4.37613932 64.9311523,4.95263672 C64.6508789,5.52913411 64.5107422,6.18424479 64.5107422,6.91796875 L64.5107422,6.91796875 L64.5107422,7.15039062 C64.5107422,8.25325521 64.8251953,9.13395182 65.4541016,9.79248047 C66.0830078,10.4510091 66.898763,10.7802734 67.9013672,10.7802734 Z M69.5214844,6.26855469 L65.8164062,6.26855469 C65.8984375,5.59863281 66.1126302,5.07796224 66.4589844,4.70654297 C66.8053385,4.3351237 67.233724,4.14941406 67.7441406,4.14941406 C68.2727865,4.14941406 68.6920573,4.32600911 69.0019531,4.67919922 C69.311849,5.03238932 69.485026,5.53027344 69.5214844,6.17285156 L69.5214844,6.17285156 L69.5214844,6.26855469 Z M73.5136719,10.6435547 L73.5136719,5.39355469 C73.8098958,4.68717448 74.3727214,4.33398438 75.2021484,4.33398438 C75.4254557,4.33398438 75.6328125,4.3499349 75.8242188,4.38183594 L75.8242188,4.38183594 L75.8242188,3.20605469 C75.6966146,3.1422526 75.5097656,3.11035156 75.2636719,3.11035156 C74.5026042,3.11035156 73.9147135,3.44075521 73.5,4.1015625 L73.5,4.1015625 L73.4794922,3.24707031 L72.2490234,3.24707031 L72.2490234,10.6435547 L73.5136719,10.6435547 Z M86.6865234,10.6435547 L86.6865234,9.5703125 L81.9697266,9.5703125 L81.9697266,0.690429688 L80.6503906,0.690429688 L80.6503906,10.6435547 L86.6865234,10.6435547 Z M94.2197266,10.6435547 L94.2197266,9.5703125 L89.5029297,9.5703125 L89.5029297,0.690429688 L88.1835938,0.690429688 L88.1835938,10.6435547 L94.2197266,10.6435547 Z M99.2646484,10.7802734 C100.349284,10.7802734 101.218587,10.4943034 101.872559,9.92236328 C102.52653,9.35042318 102.915039,8.53808594 103.038086,7.48535156 L103.038086,7.48535156 L101.71875,7.48535156 C101.591146,8.30566406 101.33252,8.88102214 100.942871,9.21142578 C100.553223,9.54182943 99.9938151,9.70703125 99.2646484,9.70703125 C98.4534505,9.70703125 97.8222656,9.38802083 97.3710938,8.75 C96.9199219,8.11197917 96.6943359,7.25292969 96.6943359,6.17285156 L96.6943359,6.17285156 L96.6943359,5.20898438 C96.6943359,4.06510417 96.9324544,3.18326823 97.4086914,2.56347656 C97.8849284,1.9436849 98.5423177,1.63378906 99.3808594,1.63378906 C100.064453,1.63378906 100.596517,1.81152344 100.977051,2.16699219 C101.357585,2.52246094 101.604818,3.09667969 101.71875,3.88964844 L101.71875,3.88964844 L103.038086,3.88964844 C102.933268,2.84602865 102.561849,2.02913411 101.923828,1.43896484 C101.285807,0.848795573 100.438151,0.553710938 99.3808594,0.553710938 C98.5833333,0.553710938 97.8815104,0.741699219 97.2753906,1.11767578 C96.6692708,1.49365234 96.2010091,2.03255208 95.8706055,2.734375 C95.5402018,3.43619792 95.375,4.24967448 95.375,5.17480469 L95.375,5.17480469 L95.375,6.13183594 C95.375,7.54459635 95.7293294,8.67252604 96.4379883,9.515625 C97.1466471,10.358724 98.0888672,10.7802734 99.2646484,10.7802734 Z M114.488281,10.6435547 L114.488281,9.61132812 L109.491211,9.61132812 L112.157227,6.71972656 C113.405924,5.36621094 114.030273,4.19954427 114.030273,3.21972656 C114.030273,2.41308594 113.761393,1.76708984 113.223633,1.28173828 C112.685872,0.796386719 111.954427,0.553710938 111.029297,0.553710938 C110.040365,0.553710938 109.250814,0.836263021 108.660645,1.40136719 C108.070475,1.96647135 107.775391,2.70703125 107.775391,3.62304688 L107.775391,3.62304688 L109.040039,3.62304688 C109.040039,2.98502604 109.214355,2.48714193 109.562988,2.12939453 C109.911621,1.77164714 110.400391,1.59277344 111.029297,1.59277344 C111.553385,1.59277344 111.972656,1.75911458 112.287109,2.09179688 C112.601562,2.42447917 112.758789,2.85058594 112.758789,3.37011719 C112.758789,3.75748698 112.661947,4.13232422 112.468262,4.49462891 C112.274577,4.85693359 111.922526,5.32747396 111.412109,5.90625 L111.412109,5.90625 L107.966797,9.734375 L107.966797,10.6435547 L114.488281,10.6435547 Z M118.938477,10.7802734 C120.013997,10.7802734 120.804688,10.4202474 121.310547,9.70019531 C121.816406,8.98014323 122.069336,7.87955729 122.069336,6.3984375 L122.069336,6.3984375 L122.069336,4.7578125 C122.055664,3.32682292 121.795898,2.26839193 121.290039,1.58251953 C120.78418,0.896647135 119.995768,0.553710938 118.924805,0.553710938 C117.844727,0.553710938 117.051758,0.909179688 116.545898,1.62011719 C116.040039,2.33105469 115.787109,3.41796875 115.787109,4.88085938 L115.787109,4.88085938 L115.787109,6.56933594 C115.805339,7.96842448 116.069661,9.02001953 116.580078,9.72412109 C117.090495,10.4282227 117.876628,10.7802734 118.938477,10.7802734 Z M118.938477,9.74804688 C118.305013,9.74804688 117.832194,9.49169922 117.52002,8.97900391 C117.207845,8.46630859 117.051758,7.67220052 117.051758,6.59667969 L117.051758,6.59667969 L117.051758,4.57324219 C117.060872,3.56152344 117.213542,2.81184896 117.509766,2.32421875 C117.80599,1.83658854 118.277669,1.59277344 118.924805,1.59277344 C119.576497,1.59277344 120.052734,1.83772786 120.353516,2.32763672 C120.654297,2.81754557 120.804688,3.59798177 120.804688,4.66894531 L120.804688,4.66894531 L120.804688,6.74023438 C120.791016,7.77929688 120.63265,8.54036458 120.32959,9.0234375 C120.02653,9.50651042 119.562826,9.74804688 118.938477,9.74804688 Z M130.210938,10.6435547 L130.210938,9.61132812 L125.213867,9.61132812 L127.879883,6.71972656 C129.128581,5.36621094 129.75293,4.19954427 129.75293,3.21972656 C129.75293,2.41308594 129.484049,1.76708984 128.946289,1.28173828 C128.408529,0.796386719 127.677083,0.553710938 126.751953,0.553710938 C125.763021,0.553710938 124.97347,0.836263021 124.383301,1.40136719 C123.793132,1.96647135 123.498047,2.70703125 123.498047,3.62304688 L123.498047,3.62304688 L124.762695,3.62304688 C124.762695,2.98502604 124.937012,2.48714193 125.285645,2.12939453 C125.634277,1.77164714 126.123047,1.59277344 126.751953,1.59277344 C127.276042,1.59277344 127.695312,1.75911458 128.009766,2.09179688 C128.324219,2.42447917 128.481445,2.85058594 128.481445,3.37011719 C128.481445,3.75748698 128.384603,4.13232422 128.190918,4.49462891 C127.997233,4.85693359 127.645182,5.32747396 127.134766,5.90625 L127.134766,5.90625 L123.689453,9.734375 L123.689453,10.6435547 L130.210938,10.6435547 Z M134.661133,10.7802734 C135.736654,10.7802734 136.527344,10.4202474 137.033203,9.70019531 C137.539062,8.98014323 137.791992,7.87955729 137.791992,6.3984375 L137.791992,6.3984375 L137.791992,4.7578125 C137.77832,3.32682292 137.518555,2.26839193 137.012695,1.58251953 C136.506836,0.896647135 135.718424,0.553710938 134.647461,0.553710938 C133.567383,0.553710938 132.774414,0.909179688 132.268555,1.62011719 C131.762695,2.33105469 131.509766,3.41796875 131.509766,4.88085938 L131.509766,4.88085938 L131.509766,6.56933594 C131.527995,7.96842448 131.792318,9.02001953 132.302734,9.72412109 C132.813151,10.4282227 133.599284,10.7802734 134.661133,10.7802734 Z M134.661133,9.74804688 C134.027669,9.74804688 133.55485,9.49169922 133.242676,8.97900391 C132.930501,8.46630859 132.774414,7.67220052 132.774414,6.59667969 L132.774414,6.59667969 L132.774414,4.57324219 C132.783529,3.56152344 132.936198,2.81184896 133.232422,2.32421875 C133.528646,1.83658854 134.000326,1.59277344 134.647461,1.59277344 C135.299154,1.59277344 135.775391,1.83772786 136.076172,2.32763672 C136.376953,2.81754557 136.527344,3.59798177 136.527344,4.66894531 L136.527344,4.66894531 L136.527344,6.74023438 C136.513672,7.77929688 136.355306,8.54036458 136.052246,9.0234375 C135.749186,9.50651042 135.285482,9.74804688 134.661133,9.74804688 Z M140.348633,10.71875 C140.608398,10.71875 140.805501,10.648112 140.939941,10.5068359 C141.074382,10.3655599 141.141602,10.1901042 141.141602,9.98046875 C141.141602,9.76171875 141.074382,9.57942708 140.939941,9.43359375 C140.805501,9.28776042 140.608398,9.21484375 140.348633,9.21484375 C140.088867,9.21484375 139.894043,9.28776042 139.76416,9.43359375 C139.634277,9.57942708 139.569336,9.76171875 139.569336,9.98046875 C139.569336,10.1901042 139.634277,10.3655599 139.76416,10.5068359 C139.894043,10.648112 140.088867,10.71875 140.348633,10.71875 Z" id="©WayfnderLLC2020."></path>
            </g>
        </g>
    </g>
</svg>