<?xml version="1.0" encoding="UTF-8"?>
<svg width="14px" height="15px" viewBox="0 0 14 15" version="1.1" xmlns="http://www.w3.org/2000/svg" xmlns:xlink="http://www.w3.org/1999/xlink">
    <!-- Generator: Sketch 62 (91390) - https://sketch.com -->
    <title>dribbble 2</title>
    <desc>Created with Sketch.</desc>
    <g id="Home-and-About-Exploration" stroke="none" stroke-width="1" fill="none" fill-rule="evenodd">
        <g id="Team-opt-1" transform="translate(-7.000000, -914.000000)" fill="#FFFFFF" fill-rule="nonzero">
            <g id="dribbble-2" transform="translate(7.000000, 914.000000)">
                <path d="M6.99998331,14.5312463 C8.2213347,14.5312463 9.3515402,14.2259084 10.3906002,13.6152329 C11.4296602,13.0045574 12.2545282,12.1796895 12.8652037,11.1406294 C13.4758792,10.1015694 13.7812171,8.97136391 13.7812171,7.75001252 C13.7812171,6.52866112 13.4758792,5.39845562 12.8652037,4.3593956 C12.2545282,3.32033558 11.4296602,2.49546761 10.3906002,1.88479213 C9.3515402,1.27411664 8.2213347,0.968778685 6.99998331,0.968778685 C5.77863192,0.968778685 4.64842642,1.27411664 3.60936639,1.88479213 C2.57030637,2.49546761 1.74543841,3.32033558 1.13476292,4.3593956 C0.524087431,5.39845562 0.218749478,6.52866112 0.218749478,7.75001252 C0.218749478,8.97136391 0.524087431,10.1015694 1.13476292,11.1406294 C1.74543841,12.1796895 2.57030637,13.0045574 3.60936639,13.6152329 C4.64842642,14.2259084 5.77863192,14.5312463 6.99998331,14.5312463 Z M7.79295017,5.50783036 C7.13670173,4.28647897 6.41665151,3.15627347 5.63279907,2.11721345 C6.56248435,1.89846397 7.48305521,1.90302139 8.39451124,2.13088529 C9.30596726,2.35874919 10.1171634,2.79169114 10.8280992,3.42971032 C10.6640371,3.6849179 10.4088295,3.95835475 10.062476,4.25002086 C9.42445684,4.7786653 8.66794808,5.19793541 7.79295017,5.50783036 Z M1.33984056,6.57423407 C1.52213193,5.68100689 1.89582867,4.87892561 2.46093163,4.16798981 C3.02603459,3.457054 3.71874113,2.91018031 4.53905168,2.52736872 C5.30467485,3.56642874 6.01561066,4.6784054 6.67185909,5.86329827 C5.54165359,6.17319322 4.34764588,6.38282828 3.08983638,6.49220302 C2.41535869,6.54689039 1.83202688,6.57423407 1.33984056,6.57423407 Z M12.7968445,7.69532515 C12.3958036,7.62240852 11.9400758,7.55860672 11.4296602,7.50391935 C10.4635169,7.41277388 9.57028968,7.4218883 8.74997914,7.53126304 C8.58591703,7.13022219 8.42185492,6.7474106 8.25779281,6.38282828 C9.15101999,6.01824595 9.94398685,5.54428847 10.6366934,4.96095667 C11.0012757,4.65106171 11.2838274,4.3593956 11.4843476,4.08595875 C11.9036173,4.59637434 12.2226271,5.15691988 12.4413766,5.76759537 C12.6601261,6.37827086 12.7786152,7.02084745 12.7968445,7.69532515 Z M2.7070248,11.6328158 C2.23306773,11.1041713 1.86392799,10.5071673 1.59960556,9.8418044 C1.33528314,9.17644155 1.20312213,8.47917758 1.20312213,7.75001252 L1.20312213,7.75001252 L1.20312213,7.58595041 C1.76822509,7.58595041 2.43358795,7.55860672 3.19921112,7.50391935 C4.62108273,7.37631535 5.94269403,7.13022219 7.16404542,6.76563986 C7.34633679,7.09376408 7.50128406,7.4218883 7.62888806,7.75001252 C6.62628615,8.02344937 5.66014276,8.54297938 4.73045747,9.30860255 C3.87368882,10.0013091 3.19921112,10.7760471 2.7070248,11.6328158 Z M10.2265381,12.562501 C10.0077886,11.2682334 9.63409147,9.89193435 9.10544704,8.43360464 C9.87107022,8.30600064 10.6731515,8.30600064 11.5116913,8.43360464 C11.9856484,8.48829201 12.3866892,8.57032306 12.7148134,8.6796978 C12.5872094,9.48177908 12.3046582,10.2200586 11.8671592,10.8945363 C11.4296602,11.569014 10.8827866,12.1250021 10.2265381,12.562501 Z M9.26950915,13.0820311 C8.3215946,13.4830719 7.32355011,13.6243473 6.27537566,13.5058582 C5.22720122,13.387369 4.28384409,12.9908856 3.44530429,12.3164079 C3.7734285,11.6419302 4.3203022,10.9856817 5.08592537,10.3476626 C5.94269403,9.61849751 6.92706668,9.07162381 8.03904333,8.70704149 C8.62237514,10.2200586 9.03253041,11.6783887 9.26950915,13.0820311 Z" id="d"></path>
            </g>
        </g>
    </g>
</svg>