<?xml version="1.0" encoding="UTF-8"?>
<svg width="14px" height="15px" viewBox="0 0 14 15" version="1.1" xmlns="http://www.w3.org/2000/svg" xmlns:xlink="http://www.w3.org/1999/xlink">
    <!-- Generator: Sketch 62 (91390) - https://sketch.com -->
    <title>dribbble 2</title>
    <desc>Created with Sketch.</desc>
    <g id="Home-and-About-Exploration" stroke="none" stroke-width="1" fill="none" fill-rule="evenodd">
        <g id="Process---1" transform="translate(-7.000000, -914.000000)" fill="#444444" fill-rule="nonzero">
            <g id="dribbble-2" transform="translate(7.000000, 915.000000)">
                <path d="M6.99998331,13.5312463 C8.2213347,13.5312463 9.3515402,13.2259084 10.3906002,12.6152329 C11.4296602,12.0045574 12.2545282,11.1796895 12.8652037,10.1406294 C13.4758792,9.10156941 13.7812171,7.97136391 13.7812171,6.75001252 C13.7812171,5.52866112 13.4758792,4.39845562 12.8652037,3.3593956 C12.2545282,2.32033558 11.4296602,1.49546761 10.3906002,0.884792126 C9.3515402,0.274116637 8.2213347,-0.0312213153 6.99998331,-0.0312213153 C5.77863192,-0.0312213153 4.64842642,0.274116637 3.60936639,0.884792126 C2.57030637,1.49546761 1.74543841,2.32033558 1.13476292,3.3593956 C0.524087431,4.39845562 0.218749478,5.52866112 0.218749478,6.75001252 C0.218749478,7.97136391 0.524087431,9.10156941 1.13476292,10.1406294 C1.74543841,11.1796895 2.57030637,12.0045574 3.60936639,12.6152329 C4.64842642,13.2259084 5.77863192,13.5312463 6.99998331,13.5312463 Z M7.79295017,4.50783036 C7.13670173,3.28647897 6.41665151,2.15627347 5.63279907,1.11721345 C6.56248435,0.898463968 7.48305521,0.903021388 8.39451124,1.13088529 C9.30596726,1.35874919 10.1171634,1.79169114 10.8280992,2.42971032 C10.6640371,2.6849179 10.4088295,2.95835475 10.062476,3.25002086 C9.42445684,3.7786653 8.66794808,4.19793541 7.79295017,4.50783036 Z M1.33984056,5.57423407 C1.52213193,4.68100689 1.89582867,3.87892561 2.46093163,3.16798981 C3.02603459,2.457054 3.71874113,1.91018031 4.53905168,1.52736872 C5.30467485,2.56642874 6.01561066,3.6784054 6.67185909,4.86329827 C5.54165359,5.17319322 4.34764588,5.38282828 3.08983638,5.49220302 C2.41535869,5.54689039 1.83202688,5.57423407 1.33984056,5.57423407 Z M12.7968445,6.69532515 C12.3958036,6.62240852 11.9400758,6.55860672 11.4296602,6.50391935 C10.4635169,6.41277388 9.57028968,6.4218883 8.74997914,6.53126304 C8.58591703,6.13022219 8.42185492,5.7474106 8.25779281,5.38282828 C9.15101999,5.01824595 9.94398685,4.54428847 10.6366934,3.96095667 C11.0012757,3.65106171 11.2838274,3.3593956 11.4843476,3.08595875 C11.9036173,3.59637434 12.2226271,4.15691988 12.4413766,4.76759537 C12.6601261,5.37827086 12.7786152,6.02084745 12.7968445,6.69532515 Z M2.7070248,10.6328158 C2.23306773,10.1041713 1.86392799,9.50716726 1.59960556,8.8418044 C1.33528314,8.17644155 1.20312213,7.47917758 1.20312213,6.75001252 L1.20312213,6.75001252 L1.20312213,6.58595041 C1.76822509,6.58595041 2.43358795,6.55860672 3.19921112,6.50391935 C4.62108273,6.37631535 5.94269403,6.13022219 7.16404542,5.76563986 C7.34633679,6.09376408 7.50128406,6.4218883 7.62888806,6.75001252 C6.62628615,7.02344937 5.66014276,7.54297938 4.73045747,8.30860255 C3.87368882,9.00130909 3.19921112,9.77604711 2.7070248,10.6328158 Z M10.2265381,11.562501 C10.0077886,10.2682334 9.63409147,8.89193435 9.10544704,7.43360464 C9.87107022,7.30600064 10.6731515,7.30600064 11.5116913,7.43360464 C11.9856484,7.48829201 12.3866892,7.57032306 12.7148134,7.6796978 C12.5872094,8.48177908 12.3046582,9.22005857 11.8671592,9.89453627 C11.4296602,10.569014 10.8827866,11.1250021 10.2265381,11.562501 Z M9.26950915,12.0820311 C8.3215946,12.4830719 7.32355011,12.6243473 6.27537566,12.5058582 C5.22720122,12.387369 4.28384409,11.9908856 3.44530429,11.3164079 C3.7734285,10.6419302 4.3203022,9.98568175 5.08592537,9.34766257 C5.94269403,8.61849751 6.92706668,8.07162381 8.03904333,7.70704149 C8.62237514,9.22005857 9.03253041,10.6783887 9.26950915,12.0820311 Z" id="d"></path>
            </g>
        </g>
    </g>
</svg>