<?xml version="1.0" encoding="UTF-8"?>
<svg width="13px" height="13px" viewBox="0 0 13 13" version="1.1" xmlns="http://www.w3.org/2000/svg" xmlns:xlink="http://www.w3.org/1999/xlink">
    <!-- Generator: Sketch 62 (91390) - https://sketch.com -->
    <title>instagram 2</title>
    <desc>Created with Sketch.</desc>
    <g id="Home-and-About-Exploration" stroke="none" stroke-width="1" fill="none" fill-rule="evenodd">
        <g id="Process---1" transform="translate(-7.000000, -960.000000)" fill="#444444" fill-rule="nonzero">
            <g id="instagram-2" transform="translate(7.000000, 960.000000)">
                <path d="M6.41427776,12.8747131 C7.44960325,12.8726243 8.20538408,12.8590474 8.68161993,12.8339824 C9.20114994,12.8066387 9.65232074,12.7291651 10.0351323,12.6015611 C10.4908605,12.437499 10.887344,12.1868484 11.2245826,11.8496097 C11.5618213,11.5123711 11.8124718,11.1158877 11.9765339,10.6601594 C12.1041379,10.2773479 12.1816116,9.82617706 12.2089553,9.30664705 C12.236299,8.78711704 12.2499708,7.93490539 12.2499708,6.75001252 L12.2492113,6.1856693 C12.2466795,5.29193598 12.2378182,4.63239615 12.2226271,4.20704983 C12.186169,3.6784054 12.1041379,3.22267718 11.9765339,2.83986559 C11.8124718,2.38413737 11.5618213,1.98765394 11.2245826,1.6504153 C10.887344,1.31317666 10.4908605,1.06252608 10.0351323,0.898463968 C9.65232074,0.770859967 9.20114994,0.693386332 8.68161993,0.666042647 C8.16208992,0.638698963 7.30987827,0.62502712 6.1249854,0.62502712 L5.83569304,0.62531195 C4.80036754,0.627400704 4.04458671,0.640977603 3.56835087,0.666042647 C3.04882086,0.693386332 2.59765006,0.770859967 2.21483847,0.898463968 C1.75911025,1.06252608 1.36262682,1.31317666 1.02538818,1.6504153 C0.68814954,1.98765394 0.437498957,2.38413737 0.273436848,2.83986559 C0.145832847,3.22267718 0.068359212,3.67384798 0.0410155272,4.19337799 C0.0136718424,4.712908 0,5.56511965 0,6.75001252 L0.00028483005,7.03930488 C0.00237358375,8.07463037 0.0159504828,8.8304112 0.0410155272,9.30664705 C0.068359212,9.82617706 0.145832847,10.2773479 0.273436848,10.6601594 C0.437498957,11.1158877 0.68814954,11.5123711 1.02538818,11.8496097 C1.36262682,12.1868484 1.75911025,12.4283845 2.21483847,12.5742174 C2.59765006,12.7200502 3.04882086,12.8066387 3.56835087,12.8339824 C4.08788088,12.8613261 4.94009253,12.8749979 6.1249854,12.8749979 L6.41427776,12.8747131 Z M6.56248435,11.7812505 L5.68748644,11.7812505 C4.95832137,11.7812505 4.39321883,11.7721361 3.99217798,11.7539068 C3.31770028,11.7174487 2.82551396,11.6445321 2.515619,11.5351574 C1.96874531,11.3164079 1.5768193,10.9244819 1.33984056,10.3593789 C1.23046582,10.049484 1.15754918,9.55729763 1.12109108,8.88281993 C1.10286181,8.48177908 1.09374739,7.91667654 1.09374739,7.18751147 L1.09374739,7.18751147 L1.09374739,6.31251356 C1.09374739,5.58334849 1.10286181,5.01824595 1.12109108,4.6172051 C1.15754918,3.92449856 1.23046582,3.43231223 1.33984056,3.14064612 C1.55859003,2.57554316 1.95051604,2.18361715 2.515619,1.96486768 C2.82551396,1.85549294 3.31770028,1.7825763 3.99217798,1.7461182 C4.39321883,1.72788893 4.95832137,1.71877451 5.68748644,1.71877451 L5.68748644,1.71877451 L6.56248435,1.71877451 C7.29164942,1.71877451 7.85675196,1.72788893 8.25779281,1.7461182 C8.95049935,1.7825763 9.44268568,1.85549294 9.73435179,1.96486768 C10.2994547,2.18361715 10.6913808,2.57554316 10.9101302,3.14064612 C11.019505,3.43231223 11.0924216,3.92449856 11.1288797,4.6172051 C11.147109,5.00001669 11.1562234,5.56511965 11.1562234,6.31251356 L11.1562234,6.31251356 L11.1562234,7.18751147 C11.1562234,7.91667654 11.147109,8.48177908 11.1288797,8.88281993 C11.0924216,9.55729763 11.019505,10.049484 10.9101302,10.3593789 C10.6913808,10.9062526 10.2994547,11.2981786 9.73435179,11.5351574 C9.44268568,11.6445321 8.95049935,11.7174487 8.25779281,11.7539068 C7.87498122,11.7721361 7.30987827,11.7812505 6.56248435,11.7812505 L6.56248435,11.7812505 Z M9.40622757,4.20704983 C9.60674779,4.20704983 9.77536732,4.1341332 9.91208574,3.98830035 C10.0488042,3.8424675 10.1262778,3.66929056 10.1445071,3.46877034 C10.1445071,3.26825012 10.0715904,3.09507318 9.92575759,2.94924033 C9.77992474,2.80340748 9.60674779,2.73049085 9.40622757,2.73049085 C9.20570736,2.73049085 9.03253041,2.80340748 8.88669756,2.94924033 C8.74086472,3.09507318 8.66794808,3.26825012 8.66794808,3.46877034 C8.66794808,3.66929056 8.74086472,3.8424675 8.88669756,3.98830035 C9.03253041,4.1341332 9.20570736,4.20704983 9.40622757,4.20704983 Z M6.1249854,9.89453627 C6.69008836,9.89453627 7.21417537,9.75326043 7.69724727,9.47070916 C8.18031918,9.18815788 8.56313076,8.8053463 8.84568204,8.32227439 C9.12823331,7.83920249 9.26950915,7.31511548 9.26950915,6.75001252 C9.26950915,6.18490956 9.12823331,5.66082254 8.84568204,5.17775064 C8.56313076,4.69467874 8.18031918,4.31186715 7.69724727,4.02931588 C7.21417537,3.74676461 6.69008836,3.60548876 6.1249854,3.60548876 C5.55988244,3.60548876 5.03579542,3.74676461 4.55272352,4.02931588 C4.06965162,4.31186715 3.68684003,4.69467874 3.40428876,5.17775064 C3.12173749,5.66082254 2.98046164,6.18490956 2.98046164,6.75001252 C2.98046164,7.31511548 3.12173749,7.83920249 3.40428876,8.32227439 C3.68684003,8.8053463 4.06965162,9.18815788 4.55272352,9.47070916 C5.03579542,9.75326043 5.55988244,9.89453627 6.1249854,9.89453627 Z M6.1249854,8.80078888 C5.55988244,8.80078888 5.07681095,8.60026866 4.6757701,8.19923616 C4.27472925,7.79818696 4.07420904,7.31511548 4.07420904,6.75001252 C4.07420904,6.18490956 4.27472925,5.70183807 4.6757701,5.30079722 C5.07681095,4.89975637 5.55988244,4.69923616 6.1249854,4.69923616 C6.69008836,4.69923616 7.17315984,4.89975637 7.57420904,5.30079722 C7.97524154,5.70183807 8.17576176,6.18490956 8.17576176,6.75001252 C8.17576176,7.31511548 7.97524154,7.79818696 7.57420904,8.19923616 C7.17315984,8.60026866 6.69008836,8.80078888 6.1249854,8.80078888 Z" id="i"></path>
            </g>
        </g>
    </g>
</svg>