<svg xmlns="http://www.w3.org/2000/svg" viewBox="0 0 202.077 275.288">
<path opacity="0.1" d="M17.001,24.75v102.955c0,0-0.501,96.833-14.001,138.083c38-6,82.085-16.38,106.299-22.386
	C125.835,250.206,202,275.288,202,275.288V24.75H17.001z"/>
<rect x="17.001" fill="#FA3438" width="184.999" height="10.003"/>
<linearGradient id="SVGID_1_" gradientUnits="userSpaceOnUse" x1="102.1743" y1="253.2881" x2="102.1743" y2="10.0034">
	<stop  offset="0" style="stop-color:#FF4F53"/>
	<stop  offset="1" style="stop-color:#FF4549"/>
</linearGradient>
<path fill="url(#SVGID_1_)" d="M17.001,102.955v7c0,0-1.792,89.111-14.653,133.78C41.972,238.57,85.256,226.928,109,221.038
	c16.536,6.804,93,32.25,93,32.25V10.003H17.001V102.955z"/>
<path fill="#C20005" d="M2.348,243.734c-0.745,2.59-1.525,5.039-2.348,7.304c39.002-7.334,85.085-19.38,109.299-25.386
	C125.835,232.456,202,257.538,202,257.538v-4.25c0,0-76.464-25.446-93-32.25C85.256,226.928,41.972,238.57,2.348,243.734z"/>
<linearGradient id="SVGID_2_" gradientUnits="userSpaceOnUse" x1="2.4248" y1="234.3438" x2="202.0771" y2="234.3438">
	<stop  offset="0" style="stop-color:#FFFFFF;stop-opacity:0"/>
	<stop  offset="0.4552" style="stop-color:#FFFFFF;stop-opacity:0.1821"/>
	<stop  offset="0.5" style="stop-color:#FFFFFF;stop-opacity:0.2"/>
	<stop  offset="0.5448" style="stop-color:#FFFFFF;stop-opacity:0.1821"/>
	<stop  offset="1" style="stop-color:#FFFFFF;stop-opacity:0"/>
</linearGradient>
<path fill="url(#SVGID_2_)" d="M3.983,237.885c-0.501,2.02-1.02,3.977-1.559,5.85c39.624-5.164,82.908-16.807,106.652-22.696
	c16.536,6.804,93,32.25,93,32.25v-5.64c0,0-76.464-25.446-93-32.25C85.644,221.211,43.18,232.623,3.983,237.885z"/>
</svg>
