<svg xmlns="http://www.w3.org/2000/svg" viewBox="0 0 153 17.5"><path fill="#F6F6F6" d="M0 0.1h1.4l5.4 15.4L11.9 0.1h1l5.1 15.4 5.4-15.4h1.3l-6.3 17.4h-1L12.4 2.5 7.3 17.5H6.3L0 0.1zM32.8 0h1.2l8 17.4h-1.4l-2.2-4.8H28.3l-2.2 4.8h-1.3L32.8 0zM38 11.4l-4.5-10 -4.6 10H38zM48.7 10.6L41.3 0.1h1.6l6.5 9.3 6.5-9.3h1.5l-7.4 10.4v6.9H48.7V10.6zM60.7 0.1h12.2v1.2H62v7.1h9.8v1.2h-9.8v7.8h-1.3V0.1zM77 0.1h1.3v17.3h-1.3V0.1zM83.6 0.1h1.2l11.9 15V0.1h1.2v17.3h-1L84.9 2v15.3h-1.2V0.1zM103.1 0.1h5.7c5.4 0 9.2 3.7 9.2 8.6v0c0 4.9-3.7 8.6-9.2 8.6h-5.7V0.1zM104.4 1.3V16.2h4.5c4.8 0 7.8-3.3 7.8-7.4V8.8c0-4.1-3-7.4-7.8-7.4H104.4zM122.4 0.1h12.3v1.2h-11v6.8h9.9v1.2h-9.9V16.2h11.1v1.2h-12.4V0.1zM138.9 0.1h7.3c2.1 0 3.8 0.7 4.9 1.7 0.8 0.8 1.3 2 1.3 3.2v0c0 2.9-2.1 4.5-5.1 4.9l5.7 7.4h-1.6l-5.5-7.2h-5.6v7.2h-1.3V0.1zM146 9.1c2.9 0 5-1.5 5-3.9v0c0-2.3-1.8-3.8-5-3.8h-5.9v7.8H146z"/></svg>