<?xml version="1.0" encoding="UTF-8"?>
<svg width="12px" height="25px" viewBox="0 0 12 25" version="1.1" xmlns="http://www.w3.org/2000/svg" xmlns:xlink="http://www.w3.org/1999/xlink">
    <!-- Generator: Sketch 54.1 (76490) - https://sketchapp.com -->
    <title>Shape</title>
    <desc>Created with Sketch.</desc>
    <g id="Grid-Pages" stroke="none" stroke-width="1" fill="none" fill-rule="evenodd">
        <g id="1440-Home" transform="translate(-41.000000, -2032.000000)" fill="#000000" fill-rule="nonzero">
            <g id="Services" transform="translate(40.000000, 1796.000000)">
                <g id="Group-4">
                    <path d="M6.89491356,258.64984 C10.2612187,258.64984 13,255.767075 13,252.224215 C13,249.472954 11.3131721,247.023665 8.8624257,246.144969 C8.82567267,245.185767 8.16956305,244.392161 7.30328055,244.19906 L7.30328055,241.329189 C7.30328055,241.09168 7.12033214,240.899438 6.89491356,240.899438 L6.58346567,240.899438 L6.58346567,236.42975 C6.58346567,236.192242 6.40051726,236 6.17509869,236 L3.88116521,236 C3.65547439,236 3.47279822,236.192242 3.47279822,236.42975 L3.47279822,240.899438 L3.16107809,240.899438 C2.93565951,240.899438 2.7527111,241.09168 2.7527111,241.329189 L2.7527111,251.128352 C2.7527111,251.365574 2.93565951,251.558102 3.16107809,251.558102 L3.47279822,251.558102 L3.47279822,253.577355 C3.47279822,253.814864 3.65547439,254.007105 3.88116521,254.007105 L6.17509869,254.007105 C6.40051726,254.007105 6.58346567,253.814864 6.58346567,253.577355 L6.58346567,251.558102 L6.89518581,251.558102 C7.12060438,251.558102 7.30355279,251.365574 7.30355279,251.128352 L7.30355279,248.257621 C7.95067834,248.113511 8.48073869,247.63391 8.72330868,247.000458 C10.7795726,247.798075 12.1835383,249.886661 12.1835383,252.223928 C12.1835383,255.292918 9.81119833,257.790053 6.89518581,257.790053 L2.3759245,257.790053 C2.15023368,257.790053 1.96755751,257.982294 1.96755751,258.219803 C1.96755751,258.457311 2.15023368,258.649553 2.3759245,258.649553 L3.47279822,258.649553 L3.47279822,260.1405 L1.40836699,260.1405 C1.18267616,260.1405 1,260.333028 1,260.57025 C1,260.807472 1.18267616,261 1.40836699,261 L8.64762467,261 C8.87304324,261 9.05599165,260.807472 9.05599165,260.57025 C9.05599165,260.333028 8.87304324,260.1405 8.64762467,260.1405 L6.58346567,260.1405 L6.58346567,258.649553 L6.89491356,258.649553 L6.89491356,258.64984 Z M4.92359,246.228341 C4.92359,247.225074 5.59494532,248.059076 6.48654658,248.257621 L6.48654658,250.698602 L3.56944507,250.698602 L3.56944507,241.758939 L6.48654658,241.758939 L6.48654658,244.199347 C5.59494532,244.397891 4.92359,245.231893 4.92359,246.228341 Z M4.28953219,236.8595 L5.7667317,236.8595 L5.7667317,240.899438 L4.28953219,240.899438 L4.28953219,236.8595 Z M5.7667317,253.147605 L4.28953219,253.147605 L4.28953219,251.558102 L5.7667317,251.558102 L5.7667317,253.147605 Z M6.89491356,247.443674 C6.25813331,247.443674 5.74032397,246.898464 5.74032397,246.228627 C5.74032397,245.55879 6.25813331,245.01358 6.89491356,245.01358 C7.53142157,245.01358 8.04923091,245.55879 8.04923091,246.228627 C8.04923091,246.898464 7.53142157,247.443674 6.89491356,247.443674 Z M5.7667317,260.140786 L4.28953219,260.140786 L4.28953219,258.64984 L5.7667317,258.64984 L5.7667317,260.140786 Z" id="Shape"></path>
                </g>
            </g>
        </g>
    </g>
</svg>