<?xml version="1.0" encoding="UTF-8"?>
<svg width="21px" height="21px" viewBox="0 0 21 21" version="1.1" xmlns="http://www.w3.org/2000/svg" xmlns:xlink="http://www.w3.org/1999/xlink">
    <!-- Generator: Sketch 54.1 (76490) - https://sketchapp.com -->
    <title>Shape</title>
    <desc>Created with Sketch.</desc>
    <g id="Grid-Pages" stroke="none" stroke-width="1" fill="none" fill-rule="evenodd">
        <g id="1440-Home" transform="translate(-395.000000, -2030.000000)" fill="#000000" fill-rule="nonzero">
            <g id="Services" transform="translate(40.000000, 1796.000000)">
                <g id="Group-4">
                    <path d="M375.741336,253.496338 L371.11378,248.869371 C372.40879,247.297237 373.187796,245.285 373.187796,243.094486 C373.187796,238.079781 369.108016,234 364.09331,234 C359.079192,234 355,238.079781 355,243.094486 C355,248.108604 359.079192,252.188973 364.09331,252.188973 C366.283235,252.188973 368.293707,251.410555 369.865252,250.11731 L374.493397,254.744867 C374.66579,254.91726 374.891725,255.003162 375.117661,255.003162 C375.343596,255.003162 375.569531,254.91726 375.741925,254.744867 C376.086123,254.399491 376.086123,253.841125 375.741336,253.496338 Z M364.09331,250.423265 C360.052362,250.423265 356.76512,247.134846 356.76512,243.093898 C356.76512,239.052362 360.052362,235.764532 364.09331,235.764532 C368.134846,235.764532 371.422676,239.052362 371.422676,243.093898 C371.422676,247.135434 368.135434,250.423265 364.09331,250.423265 Z M361.356197,239.106492 C361.01141,238.761705 360.452456,238.762294 360.107669,239.106492 C357.908329,241.305243 357.908329,244.88373 360.107669,247.084246 C360.280062,247.256639 360.505998,247.342542 360.731933,247.342542 C360.957868,247.342542 361.183804,247.256639 361.356197,247.084246 C361.700984,246.740048 361.700984,246.181093 361.356197,245.836306 C359.845254,244.324187 359.845254,241.865375 361.356197,240.35502 C361.700395,240.010233 361.700395,239.451279 361.356197,239.106492 Z" id="Shape"></path>
                </g>
            </g>
        </g>
    </g>
</svg>