<?xml version="1.0" encoding="UTF-8"?>
<svg width="21px" height="21px" viewBox="0 0 21 21" version="1.1" xmlns="http://www.w3.org/2000/svg" xmlns:xlink="http://www.w3.org/1999/xlink">
    <!-- Generator: Sketch 54.1 (76490) - https://sketchapp.com -->
    <title>Shape</title>
    <desc>Created with Sketch.</desc>
    <g id="Grid-Pages" stroke="none" stroke-width="1" fill="none" fill-rule="evenodd">
        <g id="1440-Home" transform="translate(-1083.000000, -2216.000000)" fill="#000000" fill-rule="nonzero">
            <g id="Services" transform="translate(40.000000, 1796.000000)">
                <g id="Group-4">
                    <path d="M1053.5,420 C1047.71012,420 1043,424.710549 1043,430.5 C1043,436.28988 1047.71012,441 1053.5,441 C1059.28988,441 1064,436.28988 1064,430.5 C1064,424.71012 1059.28988,420 1053.5,420 Z M1053.5,439.713551 C1048.41938,439.713551 1044.28645,435.579331 1044.28645,430.499571 C1044.28645,425.418954 1048.41981,421.286449 1053.5,421.286449 C1058.58062,421.286449 1062.71355,425.419383 1062.71355,430.5 C1062.71355,435.580617 1058.58062,439.713551 1053.5,439.713551 Z M1057.11106,427.842196 L1053.15995,431.792882 L1050.82762,429.460978 C1050.57633,429.209691 1050.16895,429.209691 1049.9181,429.460978 C1049.66681,429.712264 1049.66681,430.11964 1049.9181,430.370497 L1052.7054,433.157376 C1052.83105,433.283019 1052.99571,433.345626 1053.16038,433.345626 C1053.32504,433.345626 1053.48971,433.283019 1053.61535,433.157376 L1058.02101,428.751715 C1058.2723,428.500858 1058.2723,428.093482 1058.02101,427.842196 C1057.76973,427.590909 1057.36235,427.590909 1057.11106,427.842196 Z" id="Shape"></path>
                </g>
            </g>
        </g>
    </g>
</svg>