<?xml version="1.0" encoding="UTF-8"?>
<svg width="22px" height="19px" viewBox="0 0 22 19" version="1.1" xmlns="http://www.w3.org/2000/svg" xmlns:xlink="http://www.w3.org/1999/xlink">
    <!-- Generator: Sketch 54.1 (76490) - https://sketchapp.com -->
    <title>Shape</title>
    <desc>Created with Sketch.</desc>
    <g id="Grid-Pages" stroke="none" stroke-width="1" fill="none" fill-rule="evenodd">
        <g id="1440-Home" transform="translate(-41.000000, -2215.000000)" fill="#000000" fill-rule="nonzero">
            <g id="Services" transform="translate(40.000000, 1796.000000)">
                <g id="Group-4">
                    <path d="M22.3289439,434.986118 L4.12950883,434.986118 L4.12950883,419.667182 C4.12950883,419.298897 3.82907598,419 3.45889979,419 C3.08872361,419 2.78829076,419.298897 2.78829076,419.667182 L2.78829076,434.986118 L1.67060903,434.986118 C1.30043285,434.986118 1,435.285015 1,435.6533 C1,436.021584 1.30043285,436.320481 1.67060903,436.320481 L2.78829076,436.320481 L2.78829076,437.332818 C2.78829076,437.701103 3.08872361,438 3.45889979,438 C3.82907598,438 4.12950883,437.701103 4.12950883,437.332818 L4.12950883,436.320481 L22.329391,436.320481 C22.6995672,436.320481 23,436.021584 23,435.6533 C23,435.285015 22.6995672,434.986118 22.3289439,434.986118 Z M11.1002662,429.755858 C10.914731,429.604186 10.662135,429.561931 10.4385986,429.64733 L5.71661688,431.419809 C5.37013554,431.549687 5.19488305,431.934874 5.32587535,432.279584 C5.45686765,432.624295 5.84492674,432.798207 6.19006686,432.668329 L10.5494727,431.03151 L12.9292406,432.973898 C13.0512914,433.07442 13.202402,433.125571 13.3544067,433.125571 C13.4603629,433.125571 13.5672133,433.100662 13.6646752,433.049957 L20.3282936,429.590397 L20.6747749,431.069761 L22.0110752,427.862397 L18.5502855,427.409158 L19.6523197,428.435728 L13.4366681,431.663108 L11.1002662,429.755858 Z M5.9535654,429.95112 C6.12434717,429.95112 6.29468187,429.886626 6.42567417,429.757637 L10.5584141,425.685605 L13.4500803,427.013742 C13.7201122,427.136948 14.0370867,427.070674 14.2324575,426.850949 L18.6955841,421.855982 L19.5132801,423.133413 L19.7050743,419.667182 L16.2889919,420.380621 L17.6762584,420.988201 L13.5600602,425.594424 L10.6979008,424.280076 C10.4435164,424.163541 10.1439777,424.215582 9.94458331,424.412178 L5.48145664,428.810239 C5.21813083,429.069551 5.21634254,429.491654 5.47698592,429.753634 C5.60797822,429.884847 5.78054827,429.95112 5.9535654,429.95112 Z" id="Shape"></path>
                </g>
            </g>
        </g>
    </g>
</svg>