<?xml version="1.0" encoding="UTF-8"?>
<svg width="24px" height="25px" viewBox="0 0 24 25" version="1.1" xmlns="http://www.w3.org/2000/svg" xmlns:xlink="http://www.w3.org/1999/xlink">
    <!-- Generator: Sketch 54.1 (76490) - https://sketchapp.com -->
    <title>Shape</title>
    <desc>Created with Sketch.</desc>
    <g id="Grid-Pages" stroke="none" stroke-width="1" fill="none" fill-rule="evenodd">
        <g id="1440-Home" transform="translate(-1083.000000, -2024.000000)" fill="#000000" fill-rule="nonzero">
            <path d="M1106.99655,2040.38239 C1106.99489,2040.35355 1106.99267,2040.32472 1106.98768,2040.29589 C1106.98269,2040.26705 1106.97604,2040.23822 1106.96772,2040.20994 C1106.96384,2040.19442 1106.96218,2040.17889 1106.95719,2040.16392 L1103.21448,2029.08275 C1103.20894,2029.06667 1103.20007,2029.0528 1103.19397,2029.03728 C1103.18454,2029.01399 1103.17678,2028.99126 1103.16513,2028.96908 C1103.1607,2028.96076 1103.15571,2028.95244 1103.15183,2028.94413 C1103.14018,2028.92417 1103.12743,2028.90642 1103.11523,2028.88813 C1103.10359,2028.87038 1103.09305,2028.85208 1103.0803,2028.83545 C1103.07365,2028.82713 1103.06699,2028.81937 1103.06034,2028.81161 C1103.04537,2028.79442 1103.02873,2028.77889 1103.01321,2028.76337 C1102.99879,2028.74895 1102.98493,2028.73343 1102.96996,2028.72012 C1102.96109,2028.71291 1102.95277,2028.70626 1102.9439,2028.6996 C1102.92616,2028.68519 1102.9062,2028.67299 1102.88679,2028.66024 C1102.87015,2028.64859 1102.85352,2028.63639 1102.83578,2028.62641 C1102.82691,2028.62142 1102.81803,2028.61643 1102.80916,2028.612 C1102.78532,2028.5998 1102.76037,2028.59037 1102.73542,2028.58039 C1102.721,2028.57485 1102.70769,2028.56653 1102.69272,2028.56099 C1102.68884,2028.55988 1102.68496,2028.55988 1102.68108,2028.55821 C1102.67664,2028.5571 1102.67276,2028.55433 1102.66888,2028.55322 L1097.47123,2026.97131 C1097.45405,2026.60923 1097.36588,2026.2516 1097.18956,2025.92169 C1096.87739,2025.33727 1096.35674,2024.90922 1095.72242,2024.71626 C1095.48732,2024.64473 1095.24446,2024.60869 1094.99994,2024.60869 C1094.19152,2024.60869 1093.4646,2024.99294 1093.00827,2025.6134 L1087.81672,2024.0337 C1087.8145,2024.03315 1087.81229,2024.03315 1087.81007,2024.03259 C1087.78068,2024.02372 1087.75129,2024.01928 1087.72135,2024.01374 C1087.70139,2024.01041 1087.68198,2024.00542 1087.66202,2024.0032 C1087.65703,2024.00265 1087.65149,2024.00154 1087.6465,2024.00099 C1087.62266,2023.99877 1087.59881,2024.00099 1087.57442,2024.00099 C1087.54891,2024.00099 1087.52285,2023.99988 1087.4979,2024.00154 C1087.49235,2024.00209 1087.48625,2024.00265 1087.48071,2024.0032 C1087.46297,2024.00542 1087.44578,2024.01041 1087.42803,2024.01374 C1087.39865,2024.01928 1087.36871,2024.02372 1087.33987,2024.03204 C1087.33211,2024.03425 1087.32435,2024.03758 1087.31659,2024.0398 C1087.31381,2024.04035 1087.31104,2024.04035 1087.30827,2024.04146 C1087.29607,2024.04534 1087.28553,2024.05255 1087.27389,2024.05699 C1087.24672,2024.06752 1087.21844,2024.0775 1087.19294,2024.09137 C1087.18407,2024.0958 1087.1763,2024.10079 1087.16799,2024.10523 C1087.15135,2024.11465 1087.13638,2024.12574 1087.12086,2024.13628 C1087.10034,2024.14958 1087.07927,2024.16178 1087.05986,2024.17731 C1087.05155,2024.18341 1087.04434,2024.19006 1087.03658,2024.19727 C1087.02105,2024.21058 1087.00719,2024.22555 1086.99222,2024.23996 C1086.97614,2024.25604 1086.95895,2024.27101 1086.94453,2024.2882 C1086.93732,2024.29652 1086.93178,2024.30484 1086.92457,2024.31315 C1086.91126,2024.33034 1086.90017,2024.34864 1086.88798,2024.36694 C1086.87633,2024.38524 1086.86247,2024.40187 1086.85194,2024.42128 C1086.84695,2024.43015 1086.84251,2024.43958 1086.83752,2024.44845 C1086.82588,2024.47063 1086.81811,2024.49391 1086.80813,2024.5172 C1086.80148,2024.53328 1086.79261,2024.5477 1086.78706,2024.56378 L1083.04436,2035.64495 C1083.03937,2035.65937 1083.03826,2035.67434 1083.03382,2035.68931 C1083.02606,2035.71814 1083.01885,2035.74698 1083.01386,2035.77747 C1083.00887,2035.80575 1083.00665,2035.83403 1083.00499,2035.86231 C1083.00388,2035.87894 1083,2035.89447 1083,2035.9111 L1083,2037.52795 C1083,2038.85314 1084.0779,2039.93104 1085.40309,2039.93104 L1089.74574,2039.93104 C1091.07093,2039.93104 1092.14883,2038.85314 1092.14883,2037.52795 L1092.14883,2035.9111 C1092.14883,2035.89447 1092.14495,2035.87894 1092.14384,2035.86231 C1092.14218,2035.83403 1092.13996,2035.80575 1092.13497,2035.77747 C1092.12998,2035.74698 1092.12277,2035.71814 1092.11501,2035.68931 C1092.11057,2035.67434 1092.10946,2035.65937 1092.10447,2035.64495 L1088.87965,2026.09635 L1092.53197,2027.20807 C1092.57966,2028.18616 1093.204,2029.07166 1094.16767,2029.41654 L1094.16767,2046.68843 L1088.79703,2046.68843 C1088.33737,2046.68843 1087.96532,2047.06103 1087.96532,2047.52014 C1087.96532,2047.97924 1088.33737,2048.35185 1088.79703,2048.35185 L1101.20229,2048.35185 C1101.6614,2048.35185 1102.03401,2047.97924 1102.03401,2047.52014 C1102.03401,2047.06103 1101.6614,2046.68843 1101.20229,2046.68843 L1095.83054,2046.68843 L1095.83054,2029.42541 C1096.2963,2029.26129 1096.69941,2028.96243 1096.99217,2028.56487 L1101.36309,2029.89505 L1097.89485,2040.16392 C1097.88986,2040.17889 1097.8882,2040.19497 1097.88376,2040.2105 C1097.876,2040.23878 1097.86935,2040.26705 1097.86436,2040.29589 C1097.85937,2040.32472 1097.85715,2040.35355 1097.85549,2040.38239 C1097.85438,2040.39847 1097.8505,2040.41399 1097.8505,2040.43007 L1097.8505,2042.04692 C1097.8505,2043.37211 1098.92839,2044.45001 1100.25359,2044.45001 L1104.59623,2044.45001 C1105.92143,2044.45001 1106.99933,2043.37211 1106.99933,2042.04692 L1106.99933,2040.43007 C1107.00154,2040.41399 1106.99766,2040.39847 1106.99655,2040.38239 Z M1105.01098,2039.59836 L1099.84328,2039.59836 L1102.42713,2031.94772 L1105.01098,2039.59836 Z M1095.0005,2026.27156 C1095.08089,2026.27156 1095.16074,2026.28376 1095.23836,2026.30705 C1095.44685,2026.37081 1095.61929,2026.51165 1095.72187,2026.7046 C1095.825,2026.89701 1095.84662,2027.11769 1095.7823,2027.32672 C1095.65533,2027.7448 1095.19013,2027.9993 1094.76318,2027.87011 C1094.33235,2027.73925 1094.08838,2027.28126 1094.21979,2026.85099 C1094.32293,2026.50998 1094.64452,2026.27156 1095.0005,2026.27156 Z M1087.57497,2027.42764 L1090.15882,2035.07828 L1084.99112,2035.07828 L1087.57497,2027.42764 Z M1090.48596,2037.52684 C1090.48596,2037.93438 1090.15383,2038.26651 1089.74629,2038.26651 L1085.40365,2038.26651 C1084.99611,2038.26651 1084.66398,2037.93438 1084.66398,2037.52684 L1084.66398,2036.7417 L1090.48596,2036.7417 L1090.48596,2037.52684 Z M1105.33812,2042.04692 C1105.33812,2042.45446 1105.00599,2042.78659 1104.59845,2042.78659 L1100.25581,2042.78659 C1099.84827,2042.78659 1099.51614,2042.45446 1099.51614,2042.04692 L1099.51614,2041.26178 L1105.33812,2041.26178 L1105.33812,2042.04692 Z" id="Shape"></path>
        </g>
    </g>
</svg>