<?xml version="1.0" encoding="UTF-8"?>
<svg width="21px" height="25px" viewBox="0 0 21 25" version="1.1" xmlns="http://www.w3.org/2000/svg" xmlns:xlink="http://www.w3.org/1999/xlink">
    <!-- Generator: Sketch 54.1 (76490) - https://sketchapp.com -->
    <title>Shape</title>
    <desc>Created with Sketch.</desc>
    <g id="Grid-Pages" stroke="none" stroke-width="1" fill="none" fill-rule="evenodd">
        <g id="1440-Home" transform="translate(-741.000000, -2026.000000)" fill="#000000" fill-rule="nonzero">
            <g id="Services" transform="translate(40.000000, 1796.000000)">
                <g id="Group-4">
                    <path d="M719.02739,238.251369 L713.352751,238.251369 L713.352751,230.810123 C713.352751,230.362395 712.989816,230 712.542628,230 L701.810663,230 C701.363475,230 701.00054,230.362395 701.00054,230.810123 L701.00054,251.607052 C701.00054,251.609212 701,251.610832 701,251.612453 C701,253.251061 702.333462,254.584523 703.97207,254.584523 L714.704035,254.584523 C716.342643,254.584523 717.676105,253.251061 717.676105,251.612453 L717.676105,247.228069 L721.189877,247.228069 C721.637065,247.228069 722,246.865134 722,246.417946 L722,241.222899 C721.99946,239.584291 720.666538,238.251369 719.02739,238.251369 Z M703.97207,252.964277 C703.227837,252.964277 702.621866,252.359386 702.620785,251.615153 C702.620785,251.614073 702.620785,251.613533 702.620785,251.612453 L702.620785,231.620245 L711.732505,231.620245 L711.732505,251.612453 C711.732505,252.099066 711.852943,252.558136 712.060875,252.964277 L703.97207,252.964277 Z M716.05694,241.212098 C716.05694,241.216418 716.05586,241.219659 716.05586,241.222899 L716.05586,251.612453 C716.05586,252.357766 715.449348,252.964277 714.704035,252.964277 C713.958722,252.964277 713.352751,252.357766 713.352751,251.612453 L713.352751,239.871615 L716.38423,239.871615 C716.177378,240.274516 716.05802,240.729265 716.05694,241.212098 Z M720.379215,245.607823 L717.675565,245.607823 L717.675565,241.2283 C717.675565,241.22668 717.676105,241.22506 717.676105,241.222899 C717.676105,240.478127 718.282077,239.871615 719.02739,239.871615 C719.772703,239.871615 720.379215,240.478127 720.379215,241.222899 L720.379215,245.607823 Z M709.128771,233.928015 L705.22398,233.928015 C704.776792,233.928015 704.413857,234.29041 704.413857,234.738137 C704.413857,235.185865 704.776792,235.54826 705.22398,235.54826 L709.128771,235.54826 C709.575959,235.54826 709.938894,235.185865 709.938894,234.738137 C709.938894,234.29041 709.575959,233.928015 709.128771,233.928015 Z M709.128771,236.947612 L705.22398,236.947612 C704.776792,236.947612 704.413857,237.310547 704.413857,237.757735 C704.413857,238.204922 704.776792,238.567857 705.22398,238.567857 L709.128771,238.567857 C709.575959,238.567857 709.938894,238.204922 709.938894,237.757735 C709.938894,237.310547 709.575959,236.947612 709.128771,236.947612 Z M709.128771,239.966129 L705.22398,239.966129 C704.776792,239.966129 704.413857,240.329064 704.413857,240.776252 C704.413857,241.22398 704.776792,241.586375 705.22398,241.586375 L709.128771,241.586375 C709.575959,241.586375 709.938894,241.22398 709.938894,240.776252 C709.938894,240.329064 709.575959,239.966129 709.128771,239.966129 Z M709.128771,242.985186 L705.22398,242.985186 C704.776792,242.985186 704.413857,243.348121 704.413857,243.795309 C704.413857,244.243037 704.776792,244.605432 705.22398,244.605432 L709.128771,244.605432 C709.575959,244.605432 709.938894,244.243037 709.938894,243.795309 C709.938894,243.348121 709.575959,242.985186 709.128771,242.985186 Z M709.128771,246.005324 L705.22398,246.005324 C704.776792,246.005324 704.413857,246.368259 704.413857,246.815446 C704.413857,247.262634 704.776792,247.625569 705.22398,247.625569 L709.128771,247.625569 C709.575959,247.625569 709.938894,247.262634 709.938894,246.815446 C709.938894,246.368259 709.575959,246.005324 709.128771,246.005324 Z M709.128771,249.024381 L705.22398,249.024381 C704.776792,249.024381 704.413857,249.387316 704.413857,249.834504 C704.413857,250.281691 704.776792,250.644626 705.22398,250.644626 L709.128771,250.644626 C709.575959,250.644626 709.938894,250.281691 709.938894,249.834504 C709.938894,249.387316 709.575959,249.024381 709.128771,249.024381 Z" id="Shape"></path>
                </g>
            </g>
        </g>
    </g>
</svg>