<?xml version="1.0" encoding="UTF-8"?>
<svg width="13px" height="13px" viewBox="0 0 13 13" version="1.1" xmlns="http://www.w3.org/2000/svg" xmlns:xlink="http://www.w3.org/1999/xlink">
    <!-- Generator: Sketch 62 (91390) - https://sketch.com -->
    <title>linkedin-in 2</title>
    <desc>Created with Sketch.</desc>
    <g id="Home-and-About-Exploration" stroke="none" stroke-width="1" fill="none" fill-rule="evenodd">
        <g id="Process---1" transform="translate(-7.000000, -886.000000)" fill="#444444" fill-rule="nonzero">
            <g id="linkedin-in-2" transform="translate(7.000000, 886.000000)">
                <path d="M1.47655898,3.70314717 C1.87759983,3.70314717 2.22395289,3.55731432 2.515619,3.26564821 C2.80728511,2.9739821 2.95311796,2.62762904 2.95311796,2.22658819 C2.95311796,1.82554734 2.80728511,1.47919427 2.515619,1.18752816 C2.22395289,0.895862053 1.87759983,0.750029206 1.47655898,0.750029206 C1.07551813,0.750029206 0.729165067,0.895862053 0.437498957,1.18752816 C0.145832847,1.47919427 0,1.82554734 0,2.22658819 C0,2.62762904 0.145832847,2.9739821 0.437498957,3.26564821 C0.729165067,3.55731432 1.07551813,3.70314717 1.47655898,3.70314717 Z M6.86326489,13 L6.86326489,8.95313465 C6.86326489,8.31511548 6.95441036,7.83204357 7.13670173,7.50391935 C7.37368048,7.0664204 7.78383575,6.84767092 8.36716755,6.84767092 C8.95049935,6.84767092 9.34242578,7.09376408 9.542946,7.58595041 C9.65232074,7.87761652 9.70700811,8.35157358 9.70700811,9.00782202 L9.70700811,13 L12.2499708,13 L12.2499708,8.51563569 C12.2499708,7.25782619 12.0676794,6.32814091 11.7030971,5.72657984 C11.22914,4.97918593 10.3997146,4.60548876 9.21482178,4.60548876 C8.63148998,4.60548876 8.12107439,4.75132161 7.68357543,5.04298772 C7.28253458,5.27996646 6.99086889,5.58074699 6.80857752,5.94532932 L6.78123383,5.94532932 L6.78123383,4.82423824 L4.34764588,4.82423824 L4.34764588,13 L6.86326489,13 Z M2.73436848,13 L2.73436848,4.82423824 L0.191405794,4.82423824 L0.191405794,13 L2.73436848,13 Z" id="l"></path>
            </g>
        </g>
    </g>
</svg>