<?xml version="1.0" encoding="UTF-8"?>
<svg width="22px" height="18px" viewBox="0 0 22 18" version="1.1" xmlns="http://www.w3.org/2000/svg" xmlns:xlink="http://www.w3.org/1999/xlink">
    <!-- Generator: Sketch 62 (91390) - https://sketch.com -->
    <title>check</title>
    <desc>Created with Sketch.</desc>
    <g id="Components" stroke="none" stroke-width="1" fill="none" fill-rule="evenodd">
        <g id="Desktop---L---1440" transform="translate(-979.000000, -1382.000000)" fill="#4BA8F5" fill-rule="nonzero">
            <g id="check" transform="translate(979.265622, 1382.750041)">
                <path d="M6.84373368,16.4999607 C6.99998307,16.4999607 7.12498301,16.4530858 7.21873279,16.359336 L7.21873279,16.359336 L21.2811993,2.29686952 C21.4061992,2.17186958 21.4686988,2.03124492 21.4686988,1.87499553 C21.4686988,1.71874614 21.4061992,1.5937462 21.2811993,1.5 L21.2811993,1.5 L19.9687024,0.140624665 C19.8437025,0.0468748882 19.7030778,0 19.5468284,0 C19.390579,0 19.2655791,0.0468748882 19.1718293,0.140624665 L19.1718293,0.140624665 L6.84373368,12.5155952 L2.29686952,7.968731 C2.20311975,7.84373106 2.07811981,7.78123145 1.92187042,7.78123145 C1.76562103,7.78123145 1.62499636,7.84373106 1.5,7.968731 L1.5,7.968731 L0.187499553,9.28122787 C0.0624996126,9.40622781 0,9.54685248 0,9.70310187 C0,9.85935126 0.0624996126,9.9843512 0.187499553,10.078101 L0.187499553,10.078101 L6.42185969,16.359336 C6.54685963,16.4530858 6.68748429,16.4999607 6.84373368,16.4999607 Z" id="c"></path>
            </g>
        </g>
    </g>
</svg>