<?xml version="1.0" encoding="UTF-8"?>
<svg width="15px" height="16px" viewBox="0 0 15 16" version="1.1" xmlns="http://www.w3.org/2000/svg" xmlns:xlink="http://www.w3.org/1999/xlink">
    <!-- Generator: Sketch 62 (91390) - https://sketch.com -->
    <title>error</title>
    <desc>Created with Sketch.</desc>
    <g id="Components" stroke="none" stroke-width="1" fill="none" fill-rule="evenodd">
        <g id="Desktop---L---1440" transform="translate(-1070.000000, -1383.000000)" fill="#FF5252" fill-rule="nonzero">
            <g id="error" transform="translate(1070.000000, 1383.500039)">
                <path d="M13.0780938,14.9999642 C13.2968435,14.9999642 13.4687176,14.9218392 13.5937176,14.7655898 L13.5937176,14.7655898 L14.7655898,13.5937176 C14.9218392,13.4687176 14.9999642,13.2968435 14.9999642,13.0780938 C14.9999642,12.8593441 14.9218392,12.68747 14.7655898,12.56247 L14.7655898,12.56247 L9.74997675,7.49998212 L14.7655898,2.43749419 C14.9218392,2.31249425 14.9999642,2.14062013 14.9999642,1.92187042 C14.9999642,1.7031207 14.9218392,1.53124659 14.7655898,1.40624665 L14.7655898,1.40624665 L13.5937176,0.234374441 C13.4687176,0.0781250522 13.2968435,0 13.0780938,0 C12.8593441,0 12.68747,0.0781250522 12.56247,0.234374441 L12.56247,0.234374441 L7.49998212,5.24998748 L2.43749419,0.234374441 C2.31249425,0.0781250522 2.14062013,0 1.92187042,0 C1.7031207,0 1.53124659,0.0781250522 1.40624665,0.234374441 L1.40624665,0.234374441 L0.234374441,1.40624665 C0.0781250522,1.53124659 0,1.7031207 0,1.92187042 C0,2.14062013 0.0781250522,2.31249425 0.234374441,2.43749419 L0.234374441,2.43749419 L5.24998748,7.49998212 L0.234374441,12.56247 C0.0781250522,12.68747 0,12.8593441 0,13.0780938 C0,13.2968435 0.0781250522,13.4687176 0.234374441,13.5937176 L0.234374441,13.5937176 L1.40624665,14.7655898 C1.53124659,14.9218392 1.7031207,14.9999642 1.92187042,14.9999642 C2.14062013,14.9999642 2.31249425,14.9218392 2.43749419,14.7655898 L2.43749419,14.7655898 L7.49998212,9.74997675 L12.56247,14.7655898 C12.68747,14.9218392 12.8593441,14.9999642 13.0780938,14.9999642 Z" id="t"></path>
            </g>
        </g>
    </g>
</svg>