<?xml version="1.0" encoding="UTF-8"?>
<svg width="352px" height="40px" viewBox="0 0 352 40" version="1.1" xmlns="http://www.w3.org/2000/svg" xmlns:xlink="http://www.w3.org/1999/xlink">
    <!-- Generator: Sketch 62 (91390) - https://sketch.com -->
    <title>WAYFINDER 2</title>
    <desc>Created with Sketch.</desc>
    <g id="Final-Approved" stroke="none" stroke-width="1" fill="none" fill-rule="evenodd">
        <g id="Wayfinder-One-Sheet" transform="translate(-91.000000, -253.000000)" fill="#ffffff" fill-rule="nonzero">
            <g id="Group-18">
                <g id="Group-13">
                    <g id="WAYFINDER-2" transform="translate(91.000000, 253.000000)">
                        <path d="M11.9213372,39.5463291 L19.5172334,39.5463291 L27.5351239,13.3225316 L35.5530144,39.5463291 L43.2016599,39.5463291 L55.0702478,0.263291139 L46.6303631,0.263291139 L39.3509625,25.3286076 L31.702317,0.263291139 L23.8954236,0.263291139 L16.2995274,25.3286076 L9.0201268,0.263291139 L-1.15324977e-13,0.263291139 L11.9213372,39.5463291 Z M55.5449914,39.283038 L63.9848761,39.283038 L66.5168415,32.8587342 L84.2405994,32.8587342 L86.7725648,39.283038 L95.7399424,39.283038 L79.9679078,1.4390739e-14 L71.2115274,1.4390739e-14 L55.5449914,39.283038 Z M69.259804,25.7498734 L75.3787205,10.2156962 L81.4976369,25.7498734 L69.259804,25.7498734 Z M108.505268,39.283038 L117.103401,39.283038 L117.103401,25.5918987 L132.664438,0.263291139 L123.74981,0.263291139 L112.988957,17.8511392 L102.228104,0.263291139 L92.9442305,0.263291139 L108.505268,25.5918987 L108.505268,39.283038 Z M138.097614,39.283038 L146.748496,39.283038 L146.748496,24.1174684 L166.001983,24.1174684 L166.001983,16.4293671 L146.748496,16.4293671 L146.748496,8.05670886 L166.529476,8.05670886 L166.529476,0.263291139 L138.097614,0.263291139 L138.097614,39.283038 Z M174.389118,39.283038 L182.987251,39.283038 L182.987251,0.263291139 L174.389118,0.263291139 L174.389118,39.283038 Z M192.693118,39.283038 L200.974755,39.283038 L200.974755,12.9539241 L220.333741,39.283038 L228.246133,39.283038 L228.246133,0.263291139 L220.017245,0.263291139 L220.017245,24.8546835 L202.029741,0.263291139 L192.693118,0.263291139 L192.693118,39.283038 Z M237.424507,39.283038 L251.244818,39.283038 C266.647608,39.283038 273.241268,34.9650633 273.241268,19.7468354 C273.241268,4.26531646 266.858605,0.263291139 251.455816,0.263291139 L237.424507,0.263291139 L237.424507,39.283038 Z M246.075389,31.7529114 L246.075389,8.00405063 L251.561314,8.00405063 C262.744161,8.00405063 264.537637,10.9529114 264.537637,19.7468354 L264.534991,20.2677917 C264.447731,28.6679607 262.161809,31.7529114 251.719562,31.7529114 L246.075389,31.7529114 Z M280.204173,39.283038 L309.796519,39.283038 L309.796519,31.8055696 L288.855055,31.8055696 L288.855055,23.1696203 L309.058029,23.1696203 L309.058029,15.6394937 L288.855055,15.6394937 L288.855055,8.05670886 L309.585522,8.05670886 L309.585522,0.263291139 L280.204173,0.263291139 L280.204173,39.283038 Z M342.184576,39.283038 L351.4157,39.283038 L343.661556,25.3812658 C350.149718,23.3275949 351.890444,18.3777215 351.890444,13.0065823 C351.890444,5.52911392 348.936484,0.263291139 336.645902,0.263291139 L317.76166,0.263291139 L317.76166,39.283038 L326.201545,39.283038 L326.201545,26.3291139 L334.957925,26.3291139 L342.184576,39.283038 Z M326.201545,18.9043038 L326.201545,7.63544304 L336.276657,7.63544304 C341.18234,7.63544304 343.186813,8.79392405 343.186813,13.3225316 C343.186813,17.7458228 341.076841,18.9043038 336.382156,18.9043038 L326.201545,18.9043038 Z" id="WAYFINDER"></path>
                    </g>
                </g>
            </g>
        </g>
    </g>
</svg>