<?xml version="1.0" encoding="UTF-8"?>
<svg width="744px" height="537px" viewBox="0 0 744 537" version="1.1" xmlns="http://www.w3.org/2000/svg" xmlns:xlink="http://www.w3.org/1999/xlink">
    <!-- Generator: Sketch 62 (91390) - https://sketch.com -->
    <title>wayfinder logo</title>
    <desc>Created with Sketch.</desc>
    <defs>
        <polygon id="path-1" points="0.000278757736 0.313424125 743.56052 0.313424125 743.56052 537 0.000278757736 537"></polygon>
    </defs>
    <g id="2019-Review" stroke="none" stroke-width="1" fill="none" fill-rule="evenodd">
        <g id="Mobile" transform="translate(-412.000000, -214.000000)">
            <g id="wayfinder-logo" transform="translate(412.000000, 214.000000)">
                <path d="M553.41809,439.094969 C554.729997,443.871537 559.041146,447 563.733979,447 C564.682974,447 565.638226,446.872094 566.593478,446.605797 C572.302049,445.020597 575.649603,439.088679 574.064468,433.360152 L525.363293,256.300042 L589.934585,21.5436915 L675.285741,21.5436915 C681.202882,21.5436915 686,16.7188969 686,10.7743975 C686,4.82570457 681.202882,0 675.285741,0 L581.781571,0 C576.959424,0 572.742132,3.23421428 571.455253,7.9038439 L514.250665,215.898415 L457.039819,7.9038439 C455.463028,2.16273662 449.53963,-1.19637728 443.864431,0.395113014 C438.155861,1.98031283 434.808307,7.9122312 436.393441,13.6407575 L553.41809,439.094969 Z" id="Fill-1" fill="#FF5252"></path>
                <g id="Group-5">
                    <mask id="mask-2" fill="white">
                        <use xlink:href="#path-1"></use>
                    </mask>
                    <g id="Clip-4"></g>
                    <path d="M735.675571,0.706875875 C729.962052,-0.879050195 724.043583,2.46831946 722.464627,8.19144397 L582.048419,515.533164 L547.614639,515.533164 L407.200521,8.19144397 C405.912261,3.53605097 401.681496,0.313154188 396.846337,0.313154188 L346.712928,0.313154188 C343.35634,0.313154188 340.194246,1.8811716 338.165654,4.54945564 C336.130788,7.21982918 335.465745,10.677942 336.360835,13.9062105 L475.189723,515.533164 L447.345729,515.533164 L306.929521,8.19144397 C306.908607,8.1099537 306.864689,8.04100039 306.841685,7.96159961 C306.718296,7.55414825 306.55099,7.16550233 306.381592,6.77685642 C306.264477,6.50731167 306.162002,6.23149844 306.021883,5.97449066 C305.846211,5.64644008 305.630804,5.34764241 305.42167,5.03839728 C305.235542,4.76676304 305.066144,4.48886031 304.859102,4.23603152 C304.633238,3.96439728 304.371822,3.72410545 304.118771,3.47336615 C303.88245,3.23725331 303.656586,2.99278249 303.399352,2.77965409 C303.135845,2.56234669 302.843058,2.38265019 302.554454,2.18832724 C302.259577,1.98982529 301.973064,1.78505486 301.659364,1.61580584 C301.393765,1.47372023 301.107253,1.36506654 300.824923,1.24387588 C300.446392,1.07880584 300.067861,0.915825292 299.672599,0.796724125 C299.588946,0.771650195 299.522023,0.729860311 299.43837,0.706875875 C299.233419,0.648370039 299.028469,0.644191051 298.821427,0.600311673 C298.4178,0.512552918 298.020447,0.431062646 297.604272,0.391362257 C297.259202,0.35793035 296.920406,0.360019844 296.577428,0.360019844 C296.234449,0.360019844 295.893562,0.35793035 295.548492,0.391362257 C295.128135,0.431062646 294.722416,0.514642412 294.316698,0.604490661 C294.11593,0.646280545 293.917253,0.650459533 293.718577,0.706875875 C293.639106,0.727770817 293.572184,0.7695607 293.494804,0.792545136 C293.080721,0.917914786 292.685459,1.08716381 292.288106,1.26059183 C292.026689,1.37551401 291.756908,1.47580973 291.51013,1.60744786 C291.173426,1.78923385 290.863909,2.00863074 290.548118,2.22384864 C290.28461,2.40354514 290.010645,2.57070467 289.76596,2.77129611 C289.491995,2.99696148 289.251492,3.25814825 288.998441,3.51097704 C288.76212,3.74708988 288.515343,3.97275525 288.304119,4.22976304 C288.088711,4.49094981 287.910948,4.78138949 287.718546,5.06138171 C287.517778,5.36226887 287.306553,5.65270856 287.135064,5.97031167 C286.997036,6.23149844 286.890378,6.51149066 286.771172,6.78730389 C286.603866,7.17386031 286.43865,7.55623774 286.315262,7.96159961 C286.292257,8.04100039 286.250431,8.1099537 286.227426,8.19144397 L228.862191,215.452549 L171.501139,8.19144397 C169.920092,2.46831946 163.982801,-0.879050195 158.288104,0.706875875 C152.568311,2.28653346 149.209632,8.19771245 150.799044,13.9062105 L268.133222,437.872934 C269.44867,442.634891 273.769362,445.750327 278.47695,445.750327 C279.428506,445.750327 280.386336,445.622868 281.344166,445.357502 C287.06605,443.777845 290.424729,437.866666 288.835317,432.158168 L240.004808,255.712923 L296.579519,51.308156 L360.639107,282.776051 L296.215627,515.533164 L261.781847,515.533164 L121.365639,8.19144397 C120.079469,3.53605097 115.848705,0.313154188 111.015637,0.313154188 L60.8801364,0.313154188 C57.5214573,0.313154188 54.3614548,1.8811716 52.3328628,4.54945564 C50.2979969,7.21982918 49.6329533,10.677942 50.5280434,13.9062105 L189.356931,515.533164 L161.512938,515.533164 L21.0967291,8.19144397 C19.5156822,2.46831946 13.5783908,-0.879050195 7.88578531,0.706875875 C2.16390115,2.28653346 -1.19477793,8.19771245 0.394634335,13.9062105 L142.985828,529.125323 C144.271997,533.778627 148.502762,537.000627 153.33583,537.000627 L203.47133,537.000627 C206.830009,537.000627 209.990012,535.435596 212.018604,532.765222 C214.05347,530.096938 214.718513,526.636736 213.823423,523.408467 L74.9945356,21.781514 L102.838529,21.781514 L243.254737,529.125323 C244.540907,533.778627 248.773762,537.000627 253.60683,537.000627 L304.390644,537.000627 C309.223712,537.000627 313.454476,533.778627 314.742737,529.125323 L371.781724,323.034335 L428.816528,529.125323 C430.10688,533.778627 434.337645,537.000627 439.170713,537.000627 L489.304122,537.000627 C492.662801,537.000627 495.824895,535.435596 497.851395,532.765222 C499.886261,530.096938 500.551305,526.636736 499.656215,523.408467 L360.827327,21.781514 L388.671321,21.781514 L529.087529,529.125323 C530.373698,533.778627 534.604463,537.000627 539.439622,537.000627 L590.223435,537.000627 C595.058595,537.000627 599.289359,533.778627 600.575528,529.125323 L743.166722,13.9062105 C744.756134,8.19771245 741.397455,2.28653346 735.675571,0.706875875" id="Fill-3" fill="#FF5252" mask="url(#mask-2)"></path>
                </g>
            </g>
        </g>
    </g>
</svg>